<svg xmlns="http://www.w3.org/2000/svg" xmlns:xlink="http://www.w3.org/1999/xlink" width="500" zoomAndPan="magnify" viewBox="0 0 375 374.999991" height="500" preserveAspectRatio="xMidYMid meet" version="1.0"><defs><filter x="0%" y="0%" width="100%" height="100%" id="1f4edc00a8"><feColorMatrix values="0 0 0 0 1 0 0 0 0 1 0 0 0 0 1 0 0 0 1 0" color-interpolation-filters="sRGB"/></filter><mask id="9cfcf55104"><g filter="url(#1f4edc00a8)"><rect x="-37.5" width="450" fill="#000000" y="-37.499999" height="449.999989" fill-opacity="0.5"/></g></mask><clipPath id="809e573215"><path d="M 42 44 L 332 44 L 332 334 L 42 334 Z M 42 44 " clip-rule="nonzero"/></clipPath><clipPath id="accbfb3c42"><path d="M 169.199219 -14.949219 L 391.140625 173.261719 L 205.355469 392.339844 L -16.585938 204.132812 Z M 169.199219 -14.949219 " clip-rule="nonzero"/></clipPath><clipPath id="9efa92eb90"><path d="M 169.199219 -14.949219 L 391.140625 173.261719 L 205.355469 392.339844 L -16.585938 204.132812 Z M 169.199219 -14.949219 " clip-rule="nonzero"/></clipPath><clipPath id="f918814dfd"><path d="M 169.199219 -14.949219 L 391.140625 173.261719 L 205.355469 392.339844 L -16.585938 204.132812 Z M 169.199219 -14.949219 " clip-rule="nonzero"/></clipPath><clipPath id="7f27ad6269"><rect x="0" width="375" y="0" height="375"/></clipPath><mask id="4d1f761aa7"><g filter="url(#1f4edc00a8)"><rect x="-37.5" width="450" fill="#000000" y="-37.499999" height="449.999989" fill-opacity="0.5"/></g></mask><clipPath id="467e6a81b5"><path d="M 20 19 L 267 19 L 267 191 L 20 191 Z M 20 19 " clip-rule="nonzero"/></clipPath><clipPath id="2f7eabba1c"><path d="M 54.316406 -0.234375 L 301.832031 114.941406 L 247.722656 231.21875 L 0.210938 116.042969 Z M 54.316406 -0.234375 " clip-rule="nonzero"/></clipPath><clipPath id="2beaea31d6"><path d="M 54.316406 -0.234375 L 301.832031 114.941406 L 247.722656 231.21875 L 0.210938 116.042969 Z M 54.316406 -0.234375 " clip-rule="nonzero"/></clipPath><clipPath id="c64473f422"><path d="M 54 53 L 102 53 L 102 114 L 54 114 Z M 54 53 " clip-rule="nonzero"/></clipPath><clipPath id="48102169ec"><path d="M 54.316406 -0.234375 L 301.832031 114.941406 L 247.722656 231.21875 L 0.210938 116.042969 Z M 54.316406 -0.234375 " clip-rule="nonzero"/></clipPath><clipPath id="4aedfe4d96"><path d="M 54.316406 -0.234375 L 301.832031 114.941406 L 247.722656 231.21875 L 0.210938 116.042969 Z M 54.316406 -0.234375 " clip-rule="nonzero"/></clipPath><clipPath id="bfe841dde9"><rect x="0" width="303" y="0" height="232"/></clipPath><mask id="5f4ae39b8e"><g filter="url(#1f4edc00a8)"><rect x="-37.5" width="450" fill="#000000" y="-37.499999" height="449.999989" fill-opacity="0.5"/></g></mask><clipPath id="59e89f4818"><path d="M 1 32 L 45 32 L 45 55 L 1 55 Z M 1 32 " clip-rule="nonzero"/></clipPath><clipPath id="0572af4c70"><path d="M -3.824219 0.609375 L 56.921875 -0.203125 L 57.671875 56.042969 L -3.070312 56.855469 Z M -3.824219 0.609375 " clip-rule="nonzero"/></clipPath><clipPath id="29642bcd7f"><path d="M -3.824219 0.609375 L 56.921875 -0.203125 L 57.671875 56.042969 L -3.070312 56.855469 Z M -3.824219 0.609375 " clip-rule="nonzero"/></clipPath><clipPath id="3b2a84f6e8"><path d="M 3 19 L 52 19 L 52 45 L 3 45 Z M 3 19 " clip-rule="nonzero"/></clipPath><clipPath id="3a76db869c"><path d="M -3.824219 0.609375 L 56.921875 -0.203125 L 57.671875 56.042969 L -3.070312 56.855469 Z M -3.824219 0.609375 " clip-rule="nonzero"/></clipPath><clipPath id="f84411172a"><path d="M -3.824219 0.609375 L 56.921875 -0.203125 L 57.671875 56.042969 L -3.070312 56.855469 Z M -3.824219 0.609375 " clip-rule="nonzero"/></clipPath><clipPath id="eb6311c649"><path d="M 17 7 L 54 7 L 54 32 L 17 32 Z M 17 7 " clip-rule="nonzero"/></clipPath><clipPath id="fe3c81fb33"><path d="M -3.824219 0.609375 L 56.921875 -0.203125 L 57.671875 56.042969 L -3.070312 56.855469 Z M -3.824219 0.609375 " clip-rule="nonzero"/></clipPath><clipPath id="3c2539d9fc"><path d="M -3.824219 0.609375 L 56.921875 -0.203125 L 57.671875 56.042969 L -3.070312 56.855469 Z M -3.824219 0.609375 " clip-rule="nonzero"/></clipPath><clipPath id="bb7198232d"><path d="M 33 0.238281 L 52 0.238281 L 52 16 L 33 16 Z M 33 0.238281 " clip-rule="nonzero"/></clipPath><clipPath id="23916dcdca"><path d="M -3.824219 0.609375 L 56.921875 -0.203125 L 57.671875 56.042969 L -3.070312 56.855469 Z M -3.824219 0.609375 " clip-rule="nonzero"/></clipPath><clipPath id="7a6fc39ac4"><path d="M -3.824219 0.609375 L 56.921875 -0.203125 L 57.671875 56.042969 L -3.070312 56.855469 Z M -3.824219 0.609375 " clip-rule="nonzero"/></clipPath><clipPath id="6b4e0b7d54"><path d="M 6 44 L 33 44 L 33 56.640625 L 6 56.640625 Z M 6 44 " clip-rule="nonzero"/></clipPath><clipPath id="65de10fa96"><path d="M -3.824219 0.609375 L 56.921875 -0.203125 L 57.671875 56.042969 L -3.070312 56.855469 Z M -3.824219 0.609375 " clip-rule="nonzero"/></clipPath><clipPath id="9ecfddd41b"><path d="M -3.824219 0.609375 L 56.921875 -0.203125 L 57.671875 56.042969 L -3.070312 56.855469 Z M -3.824219 0.609375 " clip-rule="nonzero"/></clipPath><clipPath id="c0d8f9ec06"><rect x="0" width="55" y="0" height="57"/></clipPath></defs><g mask="url(#9cfcf55104)"><g transform="matrix(1, 0, 0, 1, 0, 0)"><g clip-path="url(#7f27ad6269)"><g clip-path="url(#809e573215)"><g clip-path="url(#accbfb3c42)"><g clip-path="url(#9efa92eb90)"><g clip-path="url(#f918814dfd)"><path fill="#000000" d="M 280.191406 79.242188 C 276.167969 75.828125 272 72.6875 267.738281 69.785156 C 256.769531 61.910156 245.875 55.945312 237.195312 53.46875 L 237.160156 53.460938 L 237.144531 53.449219 C 236.71875 53.398438 236.390625 53.402344 235.972656 53.355469 C 231.730469 51.441406 227.457031 50.113281 223.164062 49.347656 C 171.28125 35.535156 114.074219 51.058594 77.125 93.953125 L 76.988281 94.035156 L 76.933594 94.097656 C 76.820312 94.234375 76.734375 94.382812 76.625 94.519531 C 76.546875 94.609375 76.457031 94.6875 76.382812 94.777344 C 58.347656 116.039062 47.6875 141.109375 44.054688 166.921875 C 43.054688 170.035156 42.714844 173.542969 42.960938 177.386719 C 40.796875 209.808594 49.597656 242.753906 68.824219 270.320312 C 75.925781 280.507812 84.425781 289.964844 94.351562 298.382812 C 97.722656 301.242188 101.203125 303.898438 104.746094 306.402344 C 104.867188 306.488281 104.972656 306.585938 105.101562 306.660156 C 109.058594 309.4375 113.101562 311.996094 117.242188 314.332031 C 126.371094 319.90625 135.539062 324.136719 143.847656 326.03125 C 162.238281 332.011719 181.476562 334.214844 200.382812 332.722656 L 200.546875 332.710938 C 210.3125 332.25 219.910156 330.460938 229.148438 327.480469 C 255.21875 319.953125 279.371094 305 298.15625 282.851562 C 318.304688 259.089844 329.265625 230.597656 331.472656 201.605469 L 331.546875 200.585938 C 333.398438 173.792969 327.769531 146.636719 314.945312 122.425781 C 314.9375 122.410156 314.925781 122.398438 314.917969 122.382812 C 310.804688 112.398438 302.773438 101.675781 293.109375 91.675781 C 289.09375 87.335938 284.8125 83.164062 280.1875 79.242188 Z M 277.375 78.023438 C 279.386719 79.683594 281.386719 81.394531 283.339844 83.148438 C 286.183594 85.695312 288.910156 88.347656 291.558594 91.042969 C 292.003906 91.515625 292.425781 92.003906 292.867188 92.480469 C 288.941406 89.824219 283.03125 88.503906 275.179688 88.523438 C 275.144531 88.503906 275.113281 88.480469 275.078125 88.460938 C 274.78125 88.019531 274.519531 87.578125 274.21875 87.136719 L 274.179688 87.058594 L 274.101562 87.015625 L 272.796875 86.328125 C 272.957031 82.921875 272.886719 79.910156 272.367188 77.675781 C 271.824219 75.335938 270.914062 73.585938 269.65625 72.449219 C 269.238281 72.066406 268.777344 71.75 268.28125 71.5 C 266.308594 70.511719 263.808594 70.601562 260.902344 71.570312 C 260.714844 71.632812 260.488281 71.773438 260.292969 71.84375 C 257.4375 68.6875 254.550781 65.777344 251.621094 63.300781 C 248.523438 60.679688 245.378906 58.546875 242.21875 56.648438 C 251.082031 60.410156 259.664062 65.085938 267.847656 70.714844 L 267.949219 70.777344 C 271.105469 73.0625 274.265625 75.457031 277.375 78.023438 Z M 269.210938 72.949219 C 270.34375 73.976562 271.191406 75.574219 271.714844 77.828125 C 272.195312 79.910156 272.28125 82.769531 272.152344 86 C 271.679688 85.75 271.214844 85.515625 270.746094 85.269531 C 267.488281 80.464844 264.164062 76.160156 260.777344 72.363281 C 260.882812 72.328125 261.003906 72.242188 261.109375 72.207031 C 263.917969 71.273438 266.226562 71.230469 267.984375 72.109375 C 268.425781 72.332031 268.832031 72.605469 269.210938 72.949219 Z M 293.964844 94.140625 C 294.570312 94.667969 295.097656 95.238281 295.582031 95.839844 C 297.644531 98.417969 298.625 101.695312 298.679688 105.542969 C 298.179688 105.085938 297.757812 104.625 297.246094 104.171875 C 291.332031 98.964844 284.332031 93.96875 276.304688 89.191406 C 284.53125 89.324219 290.402344 91.019531 293.964844 94.140625 Z M 297.671875 97.964844 C 304.167969 105.777344 309.75 114.121094 314.378906 122.867188 C 314.675781 123.601562 314.859375 124.308594 315.113281 125.03125 C 311.152344 118.550781 305.859375 112.25 299.328125 106.179688 C 299.367188 103.097656 298.839844 100.339844 297.671875 97.964844 Z M 246.851562 57.957031 C 246.320312 57.710938 245.789062 57.457031 245.253906 57.21875 C 245.785156 57.457031 246.3125 57.699219 246.851562 57.957031 Z M 251.210938 63.8125 C 254.0625 66.226562 256.867188 69.066406 259.652344 72.136719 C 258.148438 72.734375 256.546875 73.53125 254.84375 74.539062 C 240.898438 65.382812 227.578125 58.691406 214.90625 54.136719 C 220.066406 53.125 226.957031 53.066406 235.550781 54.011719 C 236.058594 54.199219 236.566406 54.386719 237.074219 54.578125 C 241.84375 56.882812 246.566406 59.878906 251.210938 63.8125 Z M 260.121094 72.648438 C 263.285156 76.183594 266.40625 80.171875 269.464844 84.601562 L 268.183594 83.9375 C 263.898438 80.726562 259.648438 77.703125 255.472656 74.941406 C 257.132812 73.96875 258.679688 73.203125 260.121094 72.648438 Z M 296.808594 104.660156 C 297.476562 105.25 298.015625 105.859375 298.65625 106.449219 C 298.609375 108.507812 298.191406 110.785156 297.640625 113.144531 C 291.644531 105.945312 284.773438 98.675781 276.980469 91.351562 C 276.625 90.804688 276.269531 90.261719 275.90625 89.714844 C 283.929688 94.484375 290.917969 99.476562 296.808594 104.660156 Z M 299.316406 107.074219 C 306.617188 113.929688 312.191406 121.082031 316.210938 128.433594 C 317.078125 133.453125 317.292969 137.671875 316.988281 141.210938 C 312.078125 132.21875 305.847656 123.0625 298.179688 113.78125 C 298.753906 111.4375 299.214844 109.152344 299.316406 107.074219 Z M 273.722656 87.597656 C 273.742188 87.625 273.757812 87.65625 273.777344 87.6875 L 273.089844 87.28125 C 273.300781 87.394531 273.511719 87.484375 273.722656 87.597656 Z M 232.941406 53.125 C 225.023438 52.433594 218.570312 52.617188 213.730469 53.734375 C 210.019531 52.433594 206.355469 51.273438 202.761719 50.335938 C 209.203125 49 215.683594 48.796875 222.132812 49.820312 C 225.765625 50.765625 229.367188 51.886719 232.941406 53.125 Z M 272.105469 86.753906 C 272.105469 86.796875 272.105469 86.839844 272.105469 86.886719 C 271.9375 86.753906 271.765625 86.652344 271.597656 86.523438 L 271.585938 86.488281 Z M 274.769531 89.1875 L 274.917969 89.425781 L 274.660156 89.1875 Z M 272.824219 88.398438 L 272.953125 88.53125 C 272.921875 88.53125 272.898438 88.523438 272.871094 88.523438 Z M 273.671875 89.183594 C 274.621094 90.054688 275.535156 90.921875 276.457031 91.789062 C 283.445312 102.472656 289.355469 113.003906 294.242188 123.351562 C 293.671875 124.667969 292.957031 126.058594 292.285156 127.421875 C 288.195312 122.945312 283.886719 118.554688 279.390625 114.285156 C 277.828125 105.976562 275.734375 97.605469 273.054688 89.1875 Z M 270.515625 86.53125 C 262.105469 84.417969 253.792969 82.910156 245.59375 81.945312 C 247.597656 80.296875 249.53125 78.820312 251.359375 77.535156 C 251.609375 77.359375 251.824219 77.253906 252.074219 77.082031 C 257.296875 79.347656 262.578125 81.855469 267.929688 84.601562 C 268.789062 85.246094 269.652344 85.867188 270.515625 86.53125 Z M 271.410156 87.421875 C 271.613281 87.726562 271.816406 87.996094 272.019531 88.308594 L 272 88.515625 C 271.863281 88.519531 271.757812 88.515625 271.617188 88.523438 L 271.605469 88.511719 L 271.582031 88.511719 C 265.957031 89.320312 260.089844 90.820312 254.078125 92.820312 C 250.304688 89.953125 246.484375 87.203125 242.640625 84.550781 C 243.402344 83.886719 244.175781 83.15625 244.917969 82.539062 C 253.621094 83.535156 262.464844 85.125 271.410156 87.417969 Z M 278.53125 93.722656 C 285.625 100.523438 291.90625 107.265625 297.445312 113.949219 C 297.203125 114.910156 297.070312 115.8125 296.75 116.820312 C 296.171875 118.628906 295.390625 120.550781 294.578125 122.492188 C 290.085938 113.042969 284.761719 103.449219 278.53125 93.722656 Z M 264.644531 82.121094 C 260.648438 80.148438 256.695312 78.351562 252.777344 76.640625 C 253.484375 76.171875 254.171875 75.746094 254.847656 75.339844 C 258.085938 77.472656 261.34375 79.722656 264.644531 82.121094 Z M 271.972656 89.195312 C 271.933594 89.597656 271.953125 89.890625 271.90625 90.308594 L 271.898438 90.34375 C 270.308594 94.460938 268.542969 98.671875 266.6875 102.917969 C 265.820312 102.1875 264.96875 101.441406 264.09375 100.714844 C 261.433594 98.523438 258.738281 96.363281 256.015625 94.265625 C 255.601562 93.945312 255.175781 93.652344 254.761719 93.332031 C 260.566406 91.429688 266.230469 89.964844 271.648438 89.1875 C 271.765625 89.179688 271.855469 89.203125 271.972656 89.195312 Z M 272.601562 89.90625 C 275.09375 97.804688 277.046875 105.679688 278.550781 113.484375 C 274.878906 110.023438 271.085938 106.648438 267.214844 103.363281 C 269.105469 99.035156 270.914062 94.75 272.535156 90.554688 L 272.542969 90.519531 L 272.5625 90.46875 C 272.585938 90.257812 272.578125 90.113281 272.601562 89.90625 Z M 316.59375 127.257812 C 317.308594 128.722656 318.015625 130.183594 318.679688 131.671875 C 318.132812 130.523438 317.484375 129.394531 316.867188 128.257812 L 316.8125 127.90625 L 316.8125 127.882812 C 316.757812 127.675781 316.652344 127.464844 316.59375 127.257812 Z M 254.210938 74.925781 C 253.488281 75.367188 252.777344 75.800781 252.023438 76.3125 C 234.851562 68.902344 218.390625 64.011719 202.78125 61.328125 C 203.738281 59.683594 205.097656 58.234375 206.984375 57.046875 C 208.761719 55.933594 211.03125 55.074219 213.730469 54.4375 C 226.542969 58.949219 240.054688 65.65625 254.210938 74.925781 Z M 317.140625 130.167969 C 321.652344 138.980469 324 148.054688 324.445312 157.207031 C 322.550781 152.289062 320.269531 147.292969 317.574219 142.257812 C 317.972656 138.886719 317.828125 134.867188 317.140625 130.167969 Z M 297.984375 114.582031 C 305.726562 124.003906 311.976562 133.285156 316.867188 142.386719 C 316.328125 146.667969 314.972656 149.863281 312.914062 152.054688 C 312.675781 152.3125 312.390625 152.511719 312.136719 152.742188 C 311.957031 152.464844 311.808594 152.1875 311.628906 151.914062 C 308.449219 147.113281 304.921875 142.367188 301.132812 137.683594 C 299.292969 132.949219 297.246094 128.160156 294.980469 123.339844 C 295.910156 121.167969 296.742188 119.046875 297.386719 117.027344 C 297.65625 116.175781 297.765625 115.410156 297.984375 114.582031 Z M 251.308594 76.765625 C 251.191406 76.847656 251.089844 76.898438 250.96875 76.984375 C 248.988281 78.378906 246.886719 80.039062 244.707031 81.855469 C 242.355469 81.589844 240.015625 81.363281 237.683594 81.1875 C 226.527344 73.800781 215.273438 67.40625 204.457031 62.285156 C 219.339844 65.003906 235.003906 69.757812 251.3125 76.765625 Z M 320.214844 135.308594 C 320.839844 136.820312 321.441406 138.34375 322.011719 139.875 C 327.21875 153.785156 330.25 168.347656 331.03125 183.019531 C 330.082031 175.277344 328.132812 167.3125 325.164062 159.183594 C 325.042969 152.695312 324.089844 146.234375 322.015625 139.875 C 321.515625 138.34375 320.835938 136.824219 320.214844 135.304688 Z M 217.214844 48.644531 C 212.105469 48.335938 206.984375 48.679688 201.894531 49.800781 C 201.675781 49.851562 201.460938 49.925781 201.242188 49.976562 C 185.851562 46.164062 171.546875 45.589844 158.441406 47.726562 C 177.761719 44.039062 197.78125 44.304688 217.214844 48.644531 Z M 212.566406 54.023438 C 210.253906 54.652344 208.253906 55.464844 206.628906 56.484375 C 204.585938 57.765625 203.089844 59.359375 202.070312 61.1875 C 198.03125 59.335938 194.035156 57.605469 190.164062 56.140625 C 189.394531 55.847656 188.660156 55.617188 187.898438 55.339844 C 192.3125 53.289062 196.773438 51.714844 201.25 50.664062 C 204.960938 51.589844 208.730469 52.710938 212.566406 54.023438 Z M 317.425781 143.390625 C 320.265625 148.777344 322.589844 154.085938 324.511719 159.335938 C 324.527344 160.40625 324.613281 161.472656 324.582031 162.546875 C 324.46875 166.214844 324.027344 169.886719 323.355469 173.558594 C 320.484375 166.789062 316.839844 160.015625 312.503906 153.320312 C 312.804688 153.054688 313.125 152.8125 313.40625 152.515625 C 315.433594 150.355469 316.800781 147.339844 317.429688 143.390625 Z M 294.632812 124.214844 C 296.5 128.203125 298.257812 132.179688 299.828125 136.109375 C 297.566406 133.367188 295.210938 130.652344 292.769531 127.96875 C 293.386719 126.714844 294.097656 125.425781 294.632812 124.214844 Z M 244.027344 82.445312 C 243.390625 82.984375 242.722656 83.585938 242.070312 84.15625 C 241 83.421875 239.9375 82.664062 238.867188 81.945312 C 240.582031 82.085938 242.300781 82.257812 244.027344 82.445312 Z M 263.65625 101.230469 C 264.585938 101.996094 265.488281 102.785156 266.40625 103.5625 C 262.226562 113.09375 257.441406 122.882812 252.15625 132.816406 C 247.539062 129.351562 242.976562 125.660156 238.601562 121.804688 C 233.308594 117.140625 228.335938 112.253906 223.777344 107.339844 C 234.097656 101.511719 244.25 96.835938 253.960938 93.578125 C 254.507812 93.992188 255.066406 94.378906 255.609375 94.800781 C 258.324219 96.894531 261.007812 99.039062 263.660156 101.230469 Z M 266.933594 104.007812 C 270.984375 107.449219 274.945312 110.988281 278.777344 114.621094 C 280.679688 124.820312 281.722656 134.886719 282.097656 144.808594 C 281.066406 146.347656 280.035156 147.886719 278.925781 149.457031 C 270.523438 145.40625 261.523438 139.832031 252.691406 133.246094 C 257.972656 123.324219 262.746094 113.535156 266.933594 104.007812 Z M 253.277344 93.066406 C 243.609375 96.347656 233.527344 101.03125 223.292969 106.820312 C 222.808594 106.292969 222.339844 105.761719 221.867188 105.234375 C 229.113281 97.296875 235.925781 90.4375 242.105469 85 C 245.859375 87.589844 249.585938 90.273438 253.277344 93.0625 Z M 279.605469 115.4375 C 283.910156 119.554688 288.042969 123.773438 291.96875 128.082031 C 289.484375 133.0625 286.375 138.347656 282.699219 143.886719 C 282.308594 134.53125 281.355469 125.039062 279.605469 115.4375 Z M 241.539062 84.609375 C 235.375 90.042969 228.585938 96.851562 221.398438 104.726562 C 214.46875 96.949219 208.871094 89.199219 205.320312 82.144531 C 215.738281 81.132812 226.476562 81.023438 237.441406 81.839844 C 238.8125 82.75 240.171875 83.671875 241.539062 84.609375 Z M 292.457031 128.625 C 295.265625 131.730469 297.996094 134.863281 300.570312 138.039062 C 302.875 143.972656 304.847656 149.816406 306.507812 155.59375 C 303.15625 156.394531 299.15625 156.265625 294.644531 155.269531 C 291.007812 154.472656 287.035156 153.082031 282.898438 151.304688 C 282.886719 149.210938 282.84375 147.113281 282.769531 145.003906 C 286.605469 139.269531 289.863281 133.789062 292.457031 128.625 Z M 236.25 81.070312 C 225.589844 80.34375 215.15625 80.515625 205.019531 81.515625 C 203.535156 78.480469 202.324219 75.542969 201.707031 72.84375 C 200.921875 69.410156 200.886719 66.308594 201.722656 63.648438 C 201.894531 63.097656 202.132812 62.582031 202.378906 62.066406 C 213.367188 67.144531 224.84375 73.589844 236.25 81.070312 Z M 199.867188 50.328125 C 195.542969 51.433594 191.246094 53.015625 186.992188 55.035156 C 175.53125 50.96875 165.027344 48.695312 156.316406 48.808594 C 156.972656 48.6875 157.613281 48.53125 158.273438 48.421875 C 171.007812 46.300781 184.917969 46.78125 199.867188 50.328125 Z M 301.898438 139.71875 C 305.179688 143.859375 308.265625 148.042969 311.0625 152.273438 C 311.265625 152.578125 311.429688 152.886719 311.625 153.191406 C 310.324219 154.222656 308.835938 154.96875 307.140625 155.445312 C 305.652344 150.265625 303.898438 145.023438 301.898438 139.71875 Z M 325.210938 161.339844 C 329.210938 172.921875 331.101562 184.144531 331.078125 194.871094 C 331.074219 196.890625 330.996094 198.894531 330.863281 200.882812 C 330.742188 202.675781 330.554688 204.441406 330.328125 206.203125 C 330.585938 195.910156 328.21875 185.277344 323.835938 174.628906 C 324.625 170.609375 325.128906 166.582031 325.25 162.5625 C 325.261719 162.152344 325.207031 161.746094 325.210938 161.335938 Z M 311.996094 153.765625 C 316.476562 160.699219 320.25 167.707031 323.140625 174.699219 C 321.460938 183.128906 318.355469 191.523438 314.058594 199.746094 C 313.769531 185.871094 311.625 171.265625 307.324219 156.085938 C 309.070312 155.589844 310.632812 154.835938 311.996094 153.765625 Z M 201.742188 61.835938 C 201.488281 62.359375 201.25 62.890625 201.074219 63.449219 C 200.191406 66.257812 200.246094 69.476562 201.050781 72.996094 C 201.667969 75.691406 202.84375 78.601562 204.285156 81.601562 C 185.0625 83.574219 166.96875 88.523438 150.320312 95.554688 C 149.695312 95.292969 149.066406 94.988281 148.441406 94.734375 C 146.800781 94.066406 145.195312 93.539062 143.570312 92.9375 C 154.734375 78.871094 167.066406 67.257812 179.925781 59.554688 C 186.988281 59.828125 194.265625 60.585938 201.742188 61.835938 Z M 199.621094 60.808594 C 193.285156 59.832031 187.089844 59.195312 181.054688 58.921875 C 183.039062 57.773438 185.03125 56.71875 187.039062 55.757812 C 188.003906 56.101562 188.941406 56.398438 189.917969 56.769531 C 193.085938 57.964844 196.335938 59.347656 199.621094 60.808594 Z M 306.691406 156.234375 C 311.109375 171.792969 313.246094 186.75 313.441406 200.914062 C 308.5625 209.988281 302.179688 218.804688 294.734375 227.226562 C 294.207031 226.1875 293.765625 225.175781 293.207031 224.125 C 288.960938 216.183594 283.585938 207.953125 277.484375 199.644531 C 281.011719 184.488281 282.925781 168.527344 282.886719 152.019531 C 286.964844 153.753906 290.894531 155.128906 294.507812 155.925781 C 299.089844 156.933594 303.207031 157.070312 306.691406 156.230469 Z M 186.144531 55.4375 C 183.996094 56.488281 181.871094 57.617188 179.753906 58.878906 C 162.265625 58.230469 146.066406 60.445312 131.414062 64.953125 C 133.308594 60.246094 136.609375 56.203125 141.589844 52.980469 C 141.882812 52.804688 142.246094 52.703125 142.554688 52.542969 C 145.417969 51.515625 148.359375 50.621094 151.367188 49.878906 C 160.625 48.640625 172.671875 50.726562 186.144531 55.4375 Z M 323.617188 175.765625 C 328.859375 188.847656 330.988281 201.855469 328.929688 214.183594 C 325.136719 221.367188 319.351562 225.65625 312.070312 227.609375 C 313.496094 219.152344 314.199219 210.324219 314.09375 201.160156 C 318.550781 192.84375 321.8125 184.328125 323.621094 175.769531 Z M 282.164062 145.925781 C 282.21875 147.636719 282.234375 149.339844 282.246094 151.039062 C 281.355469 150.648438 280.441406 150.183594 279.535156 149.753906 C 280.449219 148.460938 281.304688 147.195312 282.164062 145.925781 Z M 178.722656 59.527344 C 166.027344 67.3125 153.890625 78.808594 142.894531 92.695312 C 139.046875 91.289062 135.25 90.054688 131.511719 89.035156 C 130.046875 83.945312 129.316406 79.125 129.453125 74.683594 C 129.546875 71.5 130.113281 68.511719 131.121094 65.742188 C 145.554688 61.238281 161.492188 58.988281 178.722656 59.527344 Z M 204.589844 82.230469 C 208.175781 89.457031 213.882812 97.339844 220.941406 105.242188 C 219.046875 107.324219 217.125 109.453125 215.183594 111.667969 C 209.570312 115.125 203.933594 118.875 198.3125 122.878906 C 182.679688 111.824219 166.660156 102.511719 151.175781 95.925781 C 167.664062 89.027344 185.578125 84.160156 204.589844 82.230469 Z M 282.234375 151.753906 C 282.292969 168.097656 280.414062 183.898438 276.960938 198.917969 C 271.386719 191.378906 265.203125 183.789062 258.4375 176.289062 C 266.230469 167.394531 273.191406 158.65625 279.125 150.3125 C 280.167969 150.804688 281.214844 151.3125 282.234375 151.757812 Z M 278.519531 150.015625 C 272.625 158.292969 265.707031 166.960938 257.980469 175.789062 C 252.140625 169.34375 245.910156 162.996094 239.40625 156.800781 C 243.957031 149.136719 248.316406 141.460938 252.382812 133.847656 C 261.171875 140.398438 270.117188 145.960938 278.519531 150.015625 Z M 221.398438 105.742188 L 222.679688 107.160156 C 220.824219 108.21875 218.960938 109.40625 217.09375 110.53125 C 218.554688 108.882812 219.96875 107.3125 221.398438 105.742188 Z M 223.164062 107.679688 C 227.773438 112.652344 232.800781 117.589844 238.15625 122.308594 C 242.574219 126.203125 247.179688 129.933594 251.839844 133.429688 C 247.78125 141.027344 243.445312 148.679688 238.90625 156.332031 C 236.609375 154.148438 234.320312 151.953125 231.957031 149.820312 C 228.703125 146.882812 225.394531 143.992188 222.035156 141.164062 C 216.003906 136.085938 209.816406 131.226562 203.546875 126.609375 C 207.636719 121.632812 211.707031 116.683594 215.65625 112.175781 C 218.167969 110.632812 220.671875 109.097656 223.164062 107.679688 Z M 143.253906 51.484375 C 142.980469 51.609375 142.695312 51.726562 142.425781 51.863281 C 128.09375 56.976562 115.539062 65.523438 104.90625 76.480469 C 98.710938 80.050781 92.925781 84.070312 87.574219 88.511719 C 84.613281 89.59375 81.800781 90.984375 79.132812 92.660156 C 96.921875 72.667969 119.203125 58.863281 143.253906 51.484375 Z M 213.769531 113.308594 C 210.246094 117.367188 206.632812 121.792969 203.003906 126.214844 C 201.644531 125.21875 200.273438 124.261719 198.90625 123.292969 C 203.859375 119.773438 208.820312 116.410156 213.769531 113.308594 Z M 139.355469 53.773438 C 135.148438 56.953125 132.246094 60.800781 130.578125 65.214844 C 122.203125 67.851562 114.34375 71.242188 107.023438 75.277344 C 116.390625 66.019531 127.210938 58.652344 139.355469 53.773438 Z M 313.464844 202.328125 C 313.503906 211.152344 312.773438 219.660156 311.378906 227.816406 C 310.3125 228.078125 309.21875 228.28125 308.09375 228.445312 C 304.183594 229.015625 299.847656 228.898438 295.296875 228.371094 L 295.054688 227.878906 C 302.3125 219.695312 308.609375 211.144531 313.464844 202.328125 Z M 328.460938 216.253906 C 324.507812 232.589844 316.195312 247.449219 304.839844 260.394531 C 304.804688 259.453125 304.773438 258.515625 304.679688 257.546875 C 304.613281 256.867188 304.425781 256.136719 304.332031 255.445312 C 307.710938 246.945312 310.285156 237.882812 311.945312 228.339844 C 318.886719 226.542969 324.539062 222.609375 328.460938 216.253906 Z M 328.394531 219.261719 C 324.015625 240.777344 314.5625 261.503906 299.957031 279.632812 C 303.457031 274.492188 305.011719 268.304688 304.894531 261.34375 C 315.871094 248.960938 324.105469 234.800781 328.394531 219.261719 Z M 221.582031 141.683594 C 224.9375 144.507812 228.253906 147.382812 231.503906 150.316406 C 233.898438 152.480469 236.226562 154.703125 238.554688 156.914062 C 231.78125 168.296875 224.484375 179.578125 217.019531 190.65625 C 210.335938 185.695312 203.742188 180.410156 197.347656 174.902344 C 190.996094 169.433594 184.859375 163.738281 179.023438 157.929688 C 184.289062 150.828125 189.59375 143.875 194.871094 137.191406 C 197.648438 133.675781 200.351562 130.480469 203.09375 127.132812 C 209.359375 131.746094 215.550781 136.609375 221.582031 141.683594 Z M 239.042969 157.375 C 245.519531 163.550781 251.703125 169.878906 257.515625 176.300781 C 255.230469 178.90625 252.90625 181.523438 250.496094 184.140625 C 245.03125 190.074219 239.253906 196.03125 233.285156 201.917969 C 228.035156 198.507812 222.78125 194.890625 217.574219 191.042969 C 225.027344 179.984375 232.28125 168.734375 239.042969 157.375 Z M 202.550781 126.738281 C 199.8125 130.082031 197.113281 133.273438 194.339844 136.785156 C 189.078125 143.445312 183.78125 150.371094 178.53125 157.449219 C 175.125 154.046875 171.875 150.601562 168.714844 147.140625 C 176.347656 140.5 184.144531 134.117188 192.035156 128.222656 C 194.117188 126.664062 196.210938 125.199219 198.300781 123.707031 C 199.71875 124.714844 201.140625 125.703125 202.550781 126.738281 Z M 130.324219 65.992188 C 129.398438 68.699219 128.859375 71.589844 128.765625 74.652344 C 128.632812 79.066406 129.332031 83.820312 130.738281 88.820312 C 118.820312 85.65625 107.53125 84.503906 97.433594 86.03125 C 99.945312 82.847656 102.589844 79.828125 105.371094 76.960938 C 113.070312 72.527344 121.410156 68.839844 130.324219 65.992188 Z M 197.722656 123.304688 C 195.691406 124.753906 193.660156 126.167969 191.636719 127.683594 C 183.730469 133.589844 175.914062 139.980469 168.269531 146.628906 C 155.644531 132.75 145.085938 118.585938 138.214844 105.386719 C 137.71875 104.429688 137.351562 103.511719 136.890625 102.566406 C 141.242188 100.308594 145.726562 98.226562 150.316406 96.277344 C 165.863281 102.832031 181.984375 112.183594 197.722656 123.304688 Z M 257.976562 176.800781 C 264.847656 184.421875 271.132812 192.132812 276.765625 199.789062 C 275.011719 207.28125 272.851562 214.546875 270.367188 221.597656 C 258.722656 216.964844 246.332031 210.347656 233.851562 202.289062 C 239.792969 196.425781 245.554688 190.5 250.996094 184.589844 C 253.390625 181.984375 255.699219 179.386719 257.976562 176.800781 Z M 311.257812 228.507812 C 309.667969 237.542969 307.273438 246.144531 304.128906 254.238281 C 302.898438 246.476562 299.988281 238.003906 295.640625 229.082031 C 300.078125 229.566406 304.316406 229.667969 308.175781 229.109375 C 309.226562 228.957031 310.253906 228.742188 311.257812 228.507812 Z M 277.289062 200.519531 C 283.226562 208.640625 288.460938 216.683594 292.609375 224.4375 C 293.210938 225.566406 293.6875 226.652344 294.25 227.769531 C 294.109375 227.921875 293.988281 228.085938 293.847656 228.242188 C 288.117188 227.445312 281.988281 225.902344 275.546875 223.632812 C 274.0625 223.109375 272.519531 222.449219 271.007812 221.855469 C 273.441406 214.953125 275.554688 207.84375 277.292969 200.519531 Z M 149.453125 95.898438 C 145.191406 97.722656 141.03125 99.667969 136.980469 101.761719 C 138.992188 98.929688 141.023438 96.144531 143.121094 93.484375 C 144.808594 94.105469 146.476562 94.65625 148.179688 95.347656 C 148.601562 95.519531 149.03125 95.722656 149.453125 95.898438 Z M 142.445312 93.242188 C 140.375 95.878906 138.359375 98.644531 136.371094 101.441406 C 134.496094 97.457031 132.882812 93.554688 131.757812 89.820312 C 135.269531 90.789062 138.832031 91.925781 142.445312 93.242188 Z M 130.953125 89.578125 C 132.132812 93.582031 133.886719 97.777344 135.921875 102.050781 C 135.835938 102.171875 135.75 102.285156 135.664062 102.40625 C 112.753906 114.464844 93.394531 130.621094 78.9375 148.554688 C 76.410156 143.445312 74.449219 138.480469 72.953125 133.671875 C 76.410156 122.617188 80.859375 112.039062 86.410156 102.351562 C 89.550781 96.871094 93.039062 91.675781 96.820312 86.808594 C 107.089844 85.117188 118.679688 86.277344 130.953125 89.578125 Z M 294.855469 229.007812 C 299.480469 238.441406 302.539062 247.363281 303.65625 255.425781 C 301.960938 259.664062 300.0625 263.742188 297.984375 267.691406 C 295.054688 270.550781 291.972656 273.300781 288.753906 275.929688 C 281.605469 281.773438 273.738281 286.960938 265.441406 291.574219 C 258.59375 291.074219 251.242188 289.667969 243.421875 287.246094 C 242.539062 284.417969 241.476562 281.539062 240.171875 278.582031 C 243.34375 274.542969 246.390625 270.304688 249.308594 265.863281 C 261.621094 258.214844 273.15625 249.558594 283.273438 240.101562 C 287.128906 236.496094 290.703125 232.753906 294.136719 228.949219 C 294.382812 228.984375 294.609375 228.980469 294.855469 229.007812 Z M 293.296875 228.875 C 289.976562 232.535156 286.519531 236.140625 282.804688 239.613281 C 273.066406 248.71875 262.019531 257.101562 250.214844 264.535156 C 258.363281 251.90625 265.351562 237.757812 270.789062 222.484375 C 272.304688 223.078125 273.851562 223.75 275.339844 224.273438 C 281.640625 226.492188 287.652344 228.054688 293.296875 228.875 Z M 136.300781 102.859375 C 136.765625 103.8125 137.128906 104.742188 137.628906 105.703125 C 144.535156 118.972656 155.113281 133.179688 167.761719 147.082031 C 157.757812 155.808594 148.109375 165.027344 139.039062 174.417969 C 128.242188 167.628906 117.527344 161.875 107.335938 157.582031 C 114.734375 138.414062 124.28125 119.988281 135.367188 103.960938 C 135.605469 103.617188 135.867188 103.304688 136.105469 102.960938 Z M 134.800781 103.59375 C 123.691406 119.65625 114.121094 138.109375 106.707031 157.3125 C 103.203125 155.855469 99.75 154.515625 96.398438 153.417969 C 90.441406 151.472656 84.753906 150.140625 79.4375 149.484375 L 79.285156 149.199219 C 93.453125 131.550781 112.382812 115.589844 134.800781 103.59375 Z M 103.214844 78.21875 C 100.855469 80.75 98.597656 83.414062 96.441406 86.179688 C 93.984375 86.597656 91.625 87.199219 89.316406 87.941406 C 93.671875 84.421875 98.308594 81.171875 103.214844 78.21875 Z M 270.15625 222.234375 C 264.558594 237.949219 257.308594 252.457031 248.859375 265.34375 C 244.984375 267.746094 241.035156 270.023438 237.015625 272.203125 C 236.609375 271.425781 236.28125 270.675781 235.851562 269.894531 C 228.5625 256.640625 217.734375 242.589844 204.941406 228.917969 C 214.675781 220.554688 224.253906 211.757812 233.371094 202.78125 C 245.929688 210.898438 258.414062 217.5625 270.15625 222.230469 Z M 303.855469 256.605469 C 303.890625 256.929688 303.988281 257.28125 304.019531 257.605469 C 304.132812 258.792969 304.191406 259.957031 304.21875 261.101562 C 302.726562 262.777344 301.1875 264.425781 299.59375 266.039062 C 301.132812 262.984375 302.539062 259.824219 303.855469 256.605469 Z M 304.21875 262.113281 C 304.210938 270.0625 301.972656 276.925781 297.039062 282.273438 C 293.398438 285.898438 288.980469 288.402344 283.953125 289.949219 C 289.457031 283.3125 294.332031 275.988281 298.496094 268.082031 C 300.476562 266.144531 302.382812 264.152344 304.21875 262.113281 Z M 168.203125 147.585938 C 171.398438 151.082031 174.695312 154.554688 178.132812 157.992188 C 171.085938 167.507812 164.238281 177.269531 157.5625 187.023438 C 151.605469 182.652344 145.609375 178.566406 139.605469 174.769531 C 148.636719 165.425781 158.246094 156.269531 168.199219 147.585938 Z M 232.789062 202.402344 C 223.710938 211.332031 214.175781 220.09375 204.480469 228.417969 C 201.988281 225.765625 199.421875 223.140625 196.789062 220.527344 C 203.695312 211.25 210.5 201.503906 217.191406 191.59375 C 222.359375 195.417969 227.574219 199.011719 232.789062 202.398438 Z M 95.796875 86.976562 C 92.175781 91.695312 88.84375 96.726562 85.820312 102.007812 C 80.398438 111.46875 76.035156 121.789062 72.601562 132.558594 C 71.480469 128.761719 70.574219 125.050781 70.179688 121.511719 C 69.550781 115.882812 69.921875 110.632812 71.335938 105.835938 C 76.261719 99.792969 81.800781 94.175781 87.914062 89.085938 C 90.445312 88.171875 93.070312 87.476562 95.796875 86.976562 Z M 178.617188 158.488281 C 184.441406 164.28125 190.578125 169.960938 196.914062 175.417969 C 203.324219 180.9375 209.933594 186.238281 216.632812 191.214844 C 209.964844 201.089844 203.175781 210.796875 196.296875 220.046875 C 189.5 213.332031 182.328125 206.757812 174.855469 200.519531 C 169.382812 195.949219 163.757812 191.605469 158.09375 187.429688 C 164.75 177.703125 171.585938 167.980469 178.613281 158.488281 Z M 85.976562 89.867188 C 80.855469 94.269531 76.140625 99.042969 71.878906 104.132812 C 73.113281 100.6875 74.914062 97.488281 77.390625 94.597656 C 77.40625 94.578125 77.421875 94.5625 77.4375 94.546875 C 77.4375 94.542969 77.441406 94.539062 77.445312 94.53125 C 77.449219 94.527344 77.453125 94.523438 77.457031 94.519531 C 80.121094 92.628906 82.980469 91.109375 85.976562 89.867188 Z M 297.054688 269.394531 C 292.945312 276.925781 288.1875 283.925781 282.847656 290.269531 C 279 291.324219 274.820312 291.867188 270.316406 291.871094 C 269.164062 291.875 267.914062 291.710938 266.726562 291.648438 C 274.695312 287.144531 282.257812 282.089844 289.160156 276.449219 C 291.914062 274.195312 294.507812 271.8125 297.054688 269.394531 Z M 297.050781 283.164062 C 281.863281 300.835938 263.191406 313.816406 242.878906 322.023438 C 254.816406 316.375 265.894531 308.652344 275.574219 299.105469 C 278.230469 296.484375 280.78125 293.730469 283.214844 290.847656 C 288.519531 289.359375 293.191406 286.851562 297.050781 283.164062 Z M 72.84375 100.195312 C 71.976562 101.886719 71.289062 103.671875 70.738281 105.503906 C 68.40625 108.371094 66.195312 111.324219 64.144531 114.367188 C 60.210938 120.210938 56.832031 126.378906 53.976562 132.761719 C 58.683594 121.335938 64.96875 110.375 72.84375 100.195312 Z M 70.257812 107.210938 C 69.171875 111.675781 68.9375 116.480469 69.507812 121.582031 C 69.9375 125.4375 70.945312 129.507812 72.226562 133.648438 C 70.636719 138.75 69.242188 143.921875 68.117188 149.203125 C 66.820312 149.328125 65.546875 149.492188 64.324219 149.734375 C 56.101562 151.355469 49.589844 155.785156 45.511719 163.464844 C 48.246094 146.085938 54.808594 129.4375 64.699219 114.75 C 66.441406 112.167969 68.316406 109.667969 70.257812 107.210938 Z M 282.011719 291.191406 C 279.792969 293.769531 277.507812 296.265625 275.109375 298.625 C 263.648438 309.933594 250.21875 318.675781 235.71875 324.410156 C 242.964844 318.582031 246.144531 310.730469 245.996094 301.636719 C 252.769531 298.910156 259.304688 295.722656 265.609375 292.222656 C 267.179688 292.332031 268.792969 292.523438 270.304688 292.523438 C 274.460938 292.515625 278.375 292.085938 282.011719 291.191406 Z M 174.414062 201.027344 C 181.90625 207.28125 189.09375 213.863281 195.90625 220.59375 C 188.191406 230.949219 180.507812 240.550781 172.953125 249.632812 C 164.546875 243.585938 156.238281 237.152344 148.222656 230.355469 C 144.296875 227.027344 140.457031 223.613281 136.6875 220.15625 C 143.140625 209.730469 150.261719 198.898438 157.71875 187.988281 C 163.363281 192.148438 168.964844 196.472656 174.414062 201.023438 Z M 157.171875 187.570312 C 149.730469 198.457031 142.632812 209.273438 136.183594 219.683594 C 129.335938 213.386719 122.816406 206.90625 116.675781 200.34375 C 116.886719 200.089844 117.070312 199.832031 117.28125 199.578125 C 123.984375 191.492188 131.359375 183.332031 139.128906 175.265625 C 145.160156 179.074219 151.1875 183.179688 157.171875 187.570312 Z M 196.375 221.082031 C 198.972656 223.660156 201.511719 226.25 203.972656 228.871094 C 194.539062 236.953125 184.96875 244.546875 175.558594 251.488281 L 173.496094 250.027344 C 181.027344 240.972656 188.683594 231.394531 196.375 221.082031 Z M 204.417969 229.355469 C 217.195312 243.003906 228.007812 257.019531 235.261719 270.210938 C 235.691406 270.988281 236.007812 271.734375 236.414062 272.507812 C 231.945312 274.914062 227.417969 277.160156 222.8125 279.265625 C 207.664062 272.351562 191.753906 262.902344 176.128906 251.90625 C 185.503906 244.980469 195.023438 237.40625 204.417969 229.355469 Z M 247.933594 266.675781 C 245.332031 270.570312 242.636719 274.304688 239.839844 277.882812 C 239.085938 276.214844 238.183594 274.503906 237.304688 272.804688 C 240.910156 270.851562 244.445312 268.808594 247.933594 266.675781 Z M 138.539062 174.898438 C 130.796875 182.941406 123.453125 191.082031 116.769531 199.144531 C 116.574219 199.378906 116.398438 199.601562 116.207031 199.835938 C 110.242188 193.433594 104.699219 186.976562 99.640625 180.523438 C 101.769531 173.023438 104.25 165.570312 107.074219 158.199219 C 117.175781 162.457031 127.816406 168.164062 138.539062 174.898438 Z M 106.453125 157.917969 C 103.679688 165.152344 101.238281 172.484375 99.136719 179.851562 C 92.871094 171.800781 87.304688 163.785156 82.84375 155.988281 C 81.734375 154.042969 80.796875 152.136719 79.816406 150.222656 C 84.945312 150.890625 90.414062 152.160156 96.171875 154.042969 C 99.511719 155.136719 102.957031 156.457031 106.453125 157.914062 Z M 264.304688 292.152344 C 258.386719 295.382812 252.285156 298.347656 245.957031 300.898438 C 245.816406 296.820312 244.953125 292.476562 243.597656 287.96875 C 250.902344 290.203125 257.820312 291.585938 264.304688 292.152344 Z M 236.710938 273.113281 C 237.636719 274.910156 238.601562 276.710938 239.386719 278.46875 C 237.84375 280.421875 236.285156 282.332031 234.691406 284.183594 L 233.183594 283.652344 C 230.058594 282.441406 226.871094 281.082031 223.664062 279.632812 C 228.078125 277.601562 232.421875 275.421875 236.710938 273.113281 Z M 72.578125 134.742188 C 74.089844 139.398438 76.035156 144.175781 78.484375 149.09375 C 78.417969 149.175781 78.34375 149.253906 78.277344 149.335938 C 74.953125 148.984375 71.796875 148.917969 68.804688 149.148438 C 69.851562 144.269531 71.136719 139.46875 72.578125 134.742188 Z M 239.675781 279.199219 C 240.832031 281.847656 241.84375 284.449219 242.65625 286.992188 C 240.269531 286.238281 237.824219 285.339844 235.371094 284.429688 C 236.828125 282.726562 238.261719 280.984375 239.675781 279.199219 Z M 242.859375 287.761719 C 244.304688 292.46875 245.179688 296.992188 245.296875 301.199219 C 232.234375 306.40625 218.453125 310.015625 204.570312 312.011719 C 213.246094 306.351562 221.695312 299.265625 229.632812 290.910156 C 231.429688 289.023438 233.152344 286.984375 234.890625 284.96875 C 237.578125 285.972656 240.253906 286.945312 242.859375 287.761719 Z M 79.019531 150.097656 C 80.070312 152.164062 81.085938 154.230469 82.285156 156.328125 C 86.832031 164.285156 92.507812 172.453125 98.910156 180.652344 C 97.113281 187.019531 95.507812 193.398438 94.265625 199.742188 C 92.4375 209.101562 91.316406 218.347656 90.839844 227.355469 C 83.6875 224.277344 77.128906 222.386719 71.730469 222.191406 C 70.613281 222.152344 69.558594 222.21875 68.539062 222.328125 C 64.828125 204.988281 64.023438 186.785156 65.820312 168.898438 C 69.300781 162.75 73.332031 156.691406 77.917969 150.820312 C 78.117188 150.566406 78.351562 150.328125 78.550781 150.074219 C 78.710938 150.09375 78.855469 150.078125 79.015625 150.097656 Z M 77.714844 150.027344 C 77.609375 150.15625 77.488281 150.28125 77.386719 150.410156 C 73.089844 155.910156 69.324219 161.578125 65.992188 167.324219 C 66.636719 161.441406 67.484375 155.601562 68.695312 149.847656 C 71.523438 149.617188 74.5625 149.722656 77.714844 150.027344 Z M 234.222656 284.734375 C 232.542969 286.667969 230.878906 288.636719 229.148438 290.457031 C 220.851562 299.1875 211.992188 306.484375 202.914062 312.238281 C 200.578125 312.550781 198.242188 312.929688 195.902344 313.144531 C 188.5625 313.816406 181.242188 313.898438 173.996094 313.5625 C 175 309.0625 173.894531 303.71875 171.253906 297.945312 C 170.984375 297.359375 170.609375 296.75 170.308594 296.15625 C 177.808594 294.996094 185.363281 293.375 192.90625 291.210938 C 203.003906 288.316406 213.023438 284.480469 222.824219 280.023438 C 226.238281 281.574219 229.625 283 232.949219 284.289062 C 233.382812 284.457031 233.792969 284.570312 234.222656 284.730469 Z M 222.027344 279.636719 C 212.421875 283.980469 202.597656 287.726562 192.710938 290.5625 C 185.121094 292.738281 177.519531 294.371094 169.984375 295.527344 C 166.296875 288.421875 160.492188 280.734375 153.355469 273.074219 C 157.378906 268.785156 161.496094 264.25 165.738281 259.355469 C 168.230469 257.632812 170.726562 255.90625 173.253906 254.074219 C 174.023438 253.515625 174.804688 252.910156 175.578125 252.34375 C 191.109375 263.289062 206.929688 272.699219 222.03125 279.636719 Z M 67.996094 149.894531 C 66.699219 156.089844 65.773438 162.390625 65.128906 168.730469 C 58.527344 180.429688 54.117188 192.476562 52.023438 204.332031 C 47.9375 196.066406 45.195312 188.328125 44.082031 181.492188 C 44.101562 176.105469 44.507812 170.757812 45.246094 165.464844 C 49.148438 156.871094 55.804688 152.109375 64.464844 150.40625 C 65.605469 150.179688 66.785156 150.015625 67.996094 149.894531 Z M 245.3125 301.917969 C 245.398438 311.007812 242.183594 318.722656 234.691406 324.421875 C 219.628906 329.578125 202.359375 328.109375 184.5 322.207031 C 190.746094 319.867188 196.972656 316.773438 203.101562 312.902344 C 217.488281 310.964844 231.777344 307.296875 245.3125 301.917969 Z M 99.433594 181.335938 C 104.4375 187.699219 109.917969 194.0625 115.792969 200.367188 C 107.675781 210.238281 100.554688 219.921875 94.625 229.089844 C 93.578125 228.589844 92.53125 228.105469 91.507812 227.65625 C 91.972656 218.601562 93.089844 209.296875 94.933594 199.863281 C 96.136719 193.714844 97.699219 187.515625 99.429688 181.335938 Z M 116.261719 200.875 C 122.417969 207.453125 128.960938 213.949219 135.824219 220.261719 C 135.339844 221.039062 134.785156 221.863281 134.3125 222.636719 C 129.507812 230.476562 125.136719 237.976562 121.210938 245.089844 C 112.445312 238.804688 103.554688 233.382812 95.253906 229.382812 C 101.140625 220.289062 108.214844 210.667969 116.261719 200.875 Z M 174.996094 251.9375 C 174.285156 252.460938 173.558594 253.019531 172.847656 253.535156 C 171.035156 254.851562 169.253906 256.070312 167.453125 257.332031 C 169.300781 255.179688 171.1875 252.808594 173.0625 250.5625 Z M 172.515625 250.164062 C 170.210938 252.929688 167.867188 255.882812 165.605469 258.496094 C 165.5 258.617188 165.402344 258.710938 165.300781 258.832031 C 159.917969 262.546875 154.648438 265.96875 149.503906 269.082031 C 144.640625 264.179688 139.355469 259.335938 133.785156 254.738281 C 131.394531 252.765625 128.964844 250.832031 126.503906 248.960938 C 124.9375 247.769531 123.351562 246.636719 121.765625 245.496094 C 125.695312 238.371094 130.074219 230.847656 134.886719 222.996094 C 135.339844 222.257812 135.867188 221.472656 136.324219 220.730469 C 140.078125 224.171875 143.890625 227.566406 147.796875 230.878906 C 155.808594 237.671875 164.113281 244.117188 172.515625 250.167969 Z M 64.953125 170.496094 C 63.359375 187.894531 64.253906 205.554688 67.855469 222.40625 C 66.238281 222.640625 64.773438 223.070312 63.472656 223.738281 C 61.027344 220.113281 58.703125 216.519531 56.65625 213 C 55.148438 210.402344 53.78125 207.851562 52.507812 205.339844 C 54.4375 193.757812 58.652344 181.984375 64.953125 170.492188 Z M 163.277344 261.085938 C 159.75 265.109375 156.269531 268.980469 152.898438 272.578125 C 151.949219 271.570312 150.984375 270.570312 149.996094 269.566406 C 154.34375 266.929688 158.757812 264.152344 163.277344 261.085938 Z M 231.695312 325.933594 C 230.859375 326.226562 230.019531 326.5 229.179688 326.773438 C 219.691406 329.527344 209.953125 331.320312 200.117188 332.078125 L 199.976562 332.089844 C 187.742188 332.601562 175.257812 330.988281 162.945312 327.085938 C 169.710938 326.667969 176.597656 325.058594 183.480469 322.574219 C 200.492188 328.324219 216.996094 330.015625 231.695312 325.933594 Z M 133.363281 255.261719 C 138.871094 259.808594 144.085938 264.601562 148.890625 269.445312 C 138.15625 275.90625 128.066406 280.96875 119.207031 284.070312 C 115.316406 280.875 111.515625 277.570312 107.792969 274.191406 C 110.949219 266.246094 115.613281 256.695312 121.433594 246.097656 C 122.992188 247.21875 124.554688 248.324219 126.09375 249.496094 C 128.546875 251.363281 130.980469 253.296875 133.363281 255.265625 Z M 201.4375 313.125 C 195.503906 316.761719 189.496094 319.675781 183.472656 321.863281 C 179.785156 320.613281 176.078125 319.210938 172.359375 317.59375 C 172.996094 316.550781 173.441406 315.421875 173.765625 314.25 C 181.105469 314.601562 188.523438 314.511719 195.957031 313.832031 C 197.789062 313.664062 199.609375 313.351562 201.4375 313.125 Z M 120.890625 245.699219 C 115.097656 256.238281 110.4375 265.753906 107.265625 273.722656 C 106.484375 273.011719 105.683594 272.3125 104.914062 271.59375 C 100.910156 267.867188 97.070312 264.03125 93.324219 260.160156 C 91.882812 252.429688 91.226562 244.226562 91.246094 235.71875 C 92.371094 233.839844 93.632812 231.894531 94.875 229.960938 C 103.171875 233.957031 112.09375 239.394531 120.890625 245.699219 Z M 149.394531 269.9375 C 150.433594 270.992188 151.4375 272.046875 152.429688 273.105469 C 144.835938 281.171875 137.714844 288.082031 131.359375 293.492188 C 127.449219 290.621094 123.585938 287.660156 119.792969 284.566406 C 128.683594 281.425781 138.726562 276.375 149.394531 269.9375 Z M 152.886719 273.601562 C 159.910156 281.152344 165.644531 288.6875 169.289062 295.644531 C 157.902344 297.339844 146.6875 297.820312 135.964844 296.847656 C 134.609375 295.894531 133.273438 294.890625 131.929688 293.90625 C 138.269531 288.5 145.351562 281.613281 152.886719 273.601562 Z M 43.421875 181.699219 L 43.445312 181.828125 C 43.441406 195.453125 45.761719 209.25 50.667969 222.683594 C 50.734375 224.132812 50.832031 225.574219 50.980469 227.007812 C 51.566406 232.609375 52.824219 238.0625 54.734375 243.324219 C 46.46875 223.730469 42.65625 202.671875 43.421875 181.699219 Z M 44.152344 185.296875 C 45.605469 191.503906 48.214844 198.277344 51.828125 205.445312 C 50.996094 210.523438 50.523438 215.5625 50.609375 220.519531 C 46.59375 208.914062 44.492188 197.058594 44.15625 185.296875 Z M 94.246094 229.667969 C 93.238281 231.234375 92.222656 232.816406 91.289062 234.347656 C 91.3125 232.386719 91.394531 230.402344 91.488281 228.410156 Z M 90.828125 228.09375 C 90.707031 230.585938 90.570312 233.070312 90.5625 235.515625 C 87.695312 240.304688 85.28125 244.878906 83.230469 249.242188 C 79.234375 244.683594 75.449219 240.09375 71.933594 235.519531 C 70.660156 231.40625 69.578125 227.214844 68.652344 222.972656 C 69.621094 222.871094 70.625 222.8125 71.703125 222.851562 C 77.03125 223.042969 83.621094 224.964844 90.828125 228.09375 Z M 169.613281 296.273438 C 169.945312 296.921875 170.339844 297.597656 170.632812 298.238281 C 173.265625 303.992188 174.292969 309.21875 173.28125 313.550781 C 169.386719 313.351562 165.519531 313.042969 161.691406 312.539062 C 153.421875 308.261719 145.160156 303.246094 137.078125 297.636719 C 147.574219 298.488281 158.519531 297.941406 169.617188 296.273438 Z M 90.535156 236.96875 C 90.578125 244.703125 91.207031 252.175781 92.464844 259.277344 C 89.460938 256.144531 86.511719 253.003906 83.707031 249.820312 C 85.613281 245.738281 87.894531 241.449219 90.535156 236.96875 Z M 52.300781 206.441406 C 53.46875 208.710938 54.726562 211.015625 56.078125 213.347656 C 58.117188 216.855469 60.425781 220.441406 62.855469 224.050781 C 60.527344 225.429688 58.816406 227.609375 57.914062 230.65625 C 57.457031 232.1875 57.21875 233.9375 57.171875 235.914062 C 54.9375 231.523438 52.972656 227.074219 51.324219 222.582031 C 51.085938 217.296875 51.464844 211.886719 52.300781 206.441406 Z M 67.980469 223.066406 C 68.792969 226.78125 69.75 230.449219 70.828125 234.074219 C 68.347656 230.796875 66.050781 227.539062 63.851562 224.300781 C 65.066406 223.691406 66.449219 223.285156 67.980469 223.066406 Z M 173.074219 314.234375 C 172.757812 315.324219 172.328125 316.363281 171.730469 317.324219 C 171.378906 317.171875 171.03125 317.054688 170.679688 316.898438 C 168.328125 315.847656 165.960938 314.683594 163.605469 313.5 C 166.734375 313.867188 169.898438 314.070312 173.074219 314.234375 Z M 182.464844 322.222656 C 175.492188 324.65625 168.527344 326.207031 161.707031 326.5 L 161.039062 326.507812 C 160.304688 326.257812 159.574219 325.964844 158.84375 325.703125 C 165.308594 324.222656 169.585938 321.632812 171.972656 318.152344 C 175.480469 319.675781 178.984375 321.011719 182.464844 322.222656 Z M 63.222656 224.605469 C 65.738281 228.3125 68.414062 232.039062 71.300781 235.796875 C 73.59375 243.1875 76.445312 250.339844 79.882812 257.15625 C 78.871094 259.898438 78.015625 262.542969 77.449219 265.007812 C 69.417969 256.222656 62.929688 246.910156 57.878906 237.285156 C 57.816406 234.800781 58.03125 232.640625 58.558594 230.855469 C 59.425781 227.929688 61.023438 225.898438 63.222656 224.605469 Z M 171.320312 317.882812 C 168.917969 321.304688 164.550781 323.894531 157.699219 325.285156 C 144.789062 320.46875 132.140625 313.027344 120.207031 302.699219 C 120.886719 302.269531 121.539062 301.894531 122.246094 301.410156 C 134.386719 307.523438 147.691406 311.371094 161.519531 313.207031 C 164.480469 314.734375 167.449219 316.183594 170.410156 317.507812 C 170.714844 317.644531 171.015625 317.75 171.320312 317.882812 Z M 187.121094 332.472656 C 174.480469 332.308594 161.816406 330.484375 149.476562 326.992188 L 149.511719 326.976562 C 150.339844 326.929688 151.085938 326.839844 151.863281 326.769531 C 154.886719 327.144531 157.953125 327.269531 161.046875 327.171875 C 169.691406 330.0625 178.429688 331.792969 187.117188 332.46875 Z M 72.46875 237.296875 C 75.75 241.5 79.214844 245.714844 82.890625 249.902344 C 81.871094 252.105469 81.007812 254.222656 80.21875 256.292969 C 77.183594 250.199219 74.589844 243.851562 72.46875 237.296875 Z M 159.824219 312.300781 C 146.820312 310.402344 134.328125 306.6875 122.863281 300.964844 C 124.691406 299.695312 126.628906 298.234375 128.632812 296.625 C 130.976562 296.988281 133.351562 297.277344 135.742188 297.496094 C 143.648438 303.035156 151.714844 308.011719 159.824219 312.300781 Z M 83.390625 250.476562 C 86.371094 253.851562 89.503906 257.183594 92.707031 260.496094 C 94.476562 269.871094 97.382812 278.5625 101.542969 286.300781 L 100.914062 285.851562 C 92.714844 277.355469 85.980469 267.648438 80.644531 257.117188 C 81.441406 254.976562 82.335938 252.773438 83.390625 250.480469 Z M 51.492188 224.769531 C 53.132812 229.027344 55.039062 233.242188 57.210938 237.398438 C 57.332031 241.976562 58.632812 247.832031 61.003906 254.808594 C 55.746094 246.183594 52.671875 236.78125 51.640625 226.925781 C 51.566406 226.210938 51.542969 225.488281 51.492188 224.769531 Z M 93.566406 261.402344 C 97.09375 265.015625 100.703125 268.597656 104.453125 272.085938 L 106.996094 274.375 C 105.042969 279.359375 103.664062 283.730469 103.019531 287.308594 C 102.941406 287.253906 102.859375 287.207031 102.78125 287.152344 C 98.46875 279.476562 95.433594 270.800781 93.570312 261.402344 Z M 134.667969 296.71875 C 132.871094 296.535156 131.09375 296.308594 129.324219 296.042969 C 130.007812 295.488281 130.691406 294.949219 131.390625 294.359375 Z M 130.824219 293.941406 C 130.007812 294.628906 129.199219 295.269531 128.410156 295.90625 C 120.875 294.707031 113.644531 292.738281 106.820312 289.9375 C 105.96875 289.371094 105.152344 288.789062 104.320312 288.214844 L 104.414062 288.207031 C 104.429688 288.203125 104.4375 288.195312 104.449219 288.191406 C 108.828125 287.847656 113.757812 286.6875 119.089844 284.851562 C 122.9375 288 126.851562 291.023438 130.824219 293.941406 Z M 107.523438 274.84375 C 111.101562 278.089844 114.757812 281.269531 118.488281 284.339844 C 113.324219 286.101562 108.585938 287.207031 104.371094 287.53125 L 104.347656 287.53125 L 104.335938 287.523438 C 104.082031 287.5625 103.890625 287.550781 103.636719 287.589844 C 104.25 284.105469 105.589844 279.78125 107.523438 274.84375 Z M 127.71875 296.488281 C 125.792969 298.019531 123.941406 299.410156 122.191406 300.617188 C 118.378906 298.679688 114.683594 296.507812 111.125 294.117188 C 110.214844 293.183594 109.300781 292.25 108.40625 291.28125 C 114.558594 293.652344 121.015625 295.382812 127.71875 296.488281 Z M 57.929688 238.804688 C 62.984375 248.191406 69.417969 257.261719 77.300781 265.828125 C 76.796875 268.214844 76.503906 270.464844 76.464844 272.546875 C 70.890625 267.902344 66.292969 262.828125 62.632812 257.402344 C 59.878906 249.921875 58.28125 243.660156 57.933594 238.804688 Z M 80.292969 257.96875 C 85.023438 267.183594 90.820312 275.753906 97.742188 283.449219 C 90.363281 277.828125 83.789062 271.863281 78.007812 265.613281 C 78.027344 265.527344 78.027344 265.453125 78.046875 265.363281 C 78.570312 263.042969 79.363281 260.550781 80.292969 257.96875 Z M 159.21875 326.527344 C 157.839844 326.53125 156.472656 326.484375 155.109375 326.390625 C 155.996094 326.261719 156.890625 326.136719 157.707031 325.972656 Z M 156.394531 325.5 C 155 325.742188 153.503906 325.9375 151.917969 326.085938 C 138.371094 324.417969 125.699219 317.882812 115.019531 305.550781 C 115.726562 305.222656 116.386719 304.980469 117.140625 304.574219 C 117.921875 304.152344 118.785156 303.566406 119.617188 303.058594 C 131.320312 313.21875 143.722656 320.632812 156.394531 325.5 Z M 121.585938 301.070312 C 120.917969 301.523438 120.316406 301.828125 119.679688 302.230469 C 117.566406 300.382812 115.480469 298.464844 113.417969 296.4375 C 116.074219 298.109375 118.796875 299.644531 121.585938 301.070312 Z M 107.226562 291.03125 L 107.292969 291.085938 L 108.476562 292.335938 C 107.53125 291.65625 106.632812 290.917969 105.707031 290.207031 C 105.957031 290.3125 106.21875 290.394531 106.46875 290.5 C 106.730469 290.671875 106.964844 290.859375 107.226562 291.03125 Z M 77.875 266.472656 C 84.40625 273.480469 91.910156 280.144531 100.453125 286.34375 C 100.875 286.785156 101.304688 287.222656 101.738281 287.65625 C 101.238281 287.410156 100.722656 287.199219 100.226562 286.945312 L 100.214844 286.9375 C 91.171875 282.980469 83.523438 278.308594 77.113281 273.074219 C 77.113281 271.054688 77.40625 268.828125 77.875 266.472656 Z M 103.621094 288.546875 C 103.589844 288.53125 103.554688 288.519531 103.523438 288.507812 L 103.492188 288.460938 Z M 110.714844 294.648438 C 113.457031 297.464844 116.246094 300.117188 119.078125 302.601562 C 118.328125 303.058594 117.539062 303.597656 116.832031 303.980469 C 116.027344 304.417969 115.316406 304.679688 114.570312 305.015625 C 110.910156 300.714844 107.492188 295.722656 104.359375 290.007812 C 106.421875 291.640625 108.542969 293.1875 110.714844 294.648438 Z M 102.726562 288.847656 C 101.898438 293.074219 101.53125 296.597656 101.707031 299.332031 C 101.804688 300.851562 102.0625 302.15625 102.457031 303.246094 C 101.589844 302.578125 100.703125 301.945312 99.851562 301.261719 C 94.101562 296.648438 88.65625 291.710938 83.722656 286.722656 C 87.894531 288.925781 93.933594 289.597656 102.035156 288.523438 Z M 103.304688 289.488281 C 106.550781 295.539062 110.117188 300.78125 113.949219 305.304688 C 112.230469 306.027344 110.625 306.570312 109.277344 306.71875 C 108.386719 306.816406 107.613281 306.773438 106.898438 306.617188 C 105.785156 305.8125 104.699219 304.964844 103.597656 304.128906 C 102.9375 302.953125 102.507812 301.375 102.375 299.300781 C 102.210938 296.769531 102.5625 293.429688 103.304688 289.488281 Z M 145.832031 325.6875 C 145.277344 325.582031 144.746094 325.535156 144.179688 325.40625 L 141.554688 324.507812 C 142.964844 324.964844 144.398438 325.347656 145.832031 325.6875 Z M 100.695312 287.894531 C 91.511719 288.910156 85.144531 287.632812 81.460938 284.363281 C 80.875 283.75 80.304688 283.144531 79.738281 282.53125 C 78.082031 280.253906 77.226562 277.34375 77.109375 273.910156 C 83.476562 279.046875 91.027344 283.652344 99.917969 287.542969 L 99.953125 287.550781 Z M 59.929688 254.335938 C 60.597656 255.46875 61.269531 256.585938 62.011719 257.691406 C 62.1875 258.164062 62.308594 258.582031 62.492188 259.066406 C 61.597656 257.503906 60.761719 255.925781 59.929688 254.335938 Z M 140.0625 323.988281 C 132.058594 321.121094 124.25 317.507812 116.707031 313.175781 C 113.808594 311.378906 110.917969 309.464844 108.058594 307.425781 C 108.472656 307.4375 108.894531 307.441406 109.339844 307.390625 C 110.832031 307.226562 112.5625 306.628906 114.398438 305.839844 C 122.058594 314.71875 130.75 320.671875 140.0625 323.988281 Z M 63.394531 259.613281 C 66.949219 264.523438 71.28125 269.136719 76.433594 273.378906 C 76.46875 276.046875 76.941406 278.425781 77.84375 280.480469 C 74.738281 276.988281 71.957031 273.527344 69.589844 270.199219 C 69.277344 269.753906 68.988281 269.300781 68.683594 268.855469 C 66.648438 265.878906 64.90625 263 63.640625 260.328125 C 63.640625 260.320312 63.644531 260.3125 63.640625 260.304688 C 63.539062 260.054688 63.492188 259.859375 63.394531 259.609375 Z M 63.394531 259.613281 " fill-opacity="1" fill-rule="evenodd"/></g></g></g></g></g></g></g><g mask="url(#4d1f761aa7)"><g transform="matrix(1, 0, 0, 1, 48, 72)"><g clip-path="url(#bfe841dde9)"><g clip-path="url(#467e6a81b5)"><g clip-path="url(#2f7eabba1c)"><g clip-path="url(#2beaea31d6)"><path fill="#000000" d="M 266.996094 190.195312 L 129.960938 136.410156 L 126.617188 135.101562 L 110.144531 128.632812 L 124.726562 136.847656 L 122.085938 139.285156 C 121.371094 139.9375 120.296875 140.015625 119.496094 139.472656 L 117.082031 137.820312 C 109.152344 132.394531 98.242188 136.410156 95.722656 145.683594 L 94.957031 148.5 C 94.699219 149.4375 93.832031 150.074219 92.863281 150.035156 L 72.929688 149.234375 C 71.960938 149.195312 71.148438 148.496094 70.96875 147.539062 L 70.429688 144.664062 C 68.660156 135.222656 58.105469 130.34375 49.769531 135.117188 L 47.230469 136.566406 C 46.386719 137.054688 45.324219 136.886719 44.667969 136.175781 L 31.140625 121.511719 C 30.484375 120.800781 30.40625 119.730469 30.949219 118.929688 L 32.601562 116.515625 C 38.027344 108.585938 34.011719 97.675781 24.746094 95.152344 L 21.921875 94.386719 C 20.984375 94.128906 20.351562 93.265625 20.390625 92.296875 L 21.1875 72.363281 C 21.226562 71.394531 21.929688 70.578125 22.878906 70.402344 L 25.757812 69.863281 C 35.199219 68.09375 40.078125 57.539062 35.308594 49.195312 L 33.851562 46.664062 C 33.375 45.820312 33.539062 44.761719 34.25 44.097656 L 48.90625 30.574219 C 49.621094 29.910156 50.699219 29.835938 51.492188 30.382812 L 53.90625 32.03125 C 61.835938 37.457031 72.746094 33.441406 75.269531 24.171875 L 76.042969 21.351562 C 76.289062 20.417969 77.164062 19.78125 78.132812 19.820312 L 98.0625 20.621094 C 99.03125 20.664062 99.84375 21.363281 100.023438 22.316406 L 100.558594 25.191406 C 102.332031 34.632812 112.886719 39.503906 121.226562 34.738281 L 123.757812 33.285156 C 124.605469 32.804688 125.667969 32.96875 126.324219 33.679688 L 139.847656 48.339844 C 140.511719 49.054688 140.589844 50.125 140.039062 50.925781 L 138.386719 53.335938 C 132.960938 61.269531 136.980469 72.179688 146.25 74.703125 L 149.074219 75.46875 C 150.007812 75.726562 150.640625 76.589844 150.601562 77.558594 L 150.378906 83 C 150.390625 82.910156 136.679688 77.597656 136.1875 77.410156 L 149.367188 85.175781 L 150.273438 85.707031 L 219.398438 126.429688 L 121.683594 80.957031 C 121.089844 75.453125 119.261719 70.304688 116.46875 65.792969 C 110.320312 55.859375 99.511719 49.054688 86.957031 48.550781 C 66.871094 47.746094 49.929688 63.378906 49.121094 83.460938 C 48.3125 103.554688 63.949219 120.5 84.035156 121.304688 C 86.277344 121.394531 88.476562 121.28125 90.621094 120.972656 C 96.148438 120.195312 101.304688 118.167969 105.761719 115.167969 L 266.996094 190.195312 " fill-opacity="1" fill-rule="nonzero"/></g></g></g><g clip-path="url(#c64473f422)"><g clip-path="url(#48102169ec)"><g clip-path="url(#4aedfe4d96)"><path fill="#000000" d="M 74.917969 113.9375 C 74.121094 113.640625 73.328125 113.3125 72.546875 112.949219 C 56.960938 105.695312 50.203125 87.183594 57.457031 71.601562 C 64.707031 56.015625 83.21875 49.261719 98.808594 56.515625 C 99.589844 56.878906 100.351562 57.273438 101.089844 57.691406 C 86.042969 52.125 68.992188 58.964844 62.105469 73.765625 C 55.21875 88.5625 60.96875 106.011719 74.917969 113.9375 " fill-opacity="1" fill-rule="nonzero"/></g></g></g></g></g></g><g mask="url(#5f4ae39b8e)"><g transform="matrix(1, 0, 0, 1, 113, 132)"><g clip-path="url(#c0d8f9ec06)"><g clip-path="url(#59e89f4818)"><g clip-path="url(#0572af4c70)"><g clip-path="url(#29642bcd7f)"><path fill="#000000" d="M 27.210938 32.960938 C 19.074219 31.917969 -3.363281 33.816406 2.230469 40.949219 C 2.542969 41.347656 3.019531 41.820312 3.414062 42.136719 C 3.789062 42.4375 5.738281 43.914062 7.230469 43.324219 C 19.019531 36.375 39.515625 41.488281 38.050781 48.761719 C 37.566406 51.144531 34.871094 52.953125 31.957031 54.074219 C 31.960938 54.089844 31.957031 54.109375 31.960938 54.121094 C 32.878906 53.820312 33.171875 53.707031 34.050781 53.351562 C 36.167969 52.410156 36.382812 52.3125 37.804688 51.523438 C 38.765625 50.941406 40.027344 50.144531 40.949219 49.511719 C 50.117188 42.355469 41.085938 34.738281 27.210938 32.960938 " fill-opacity="1" fill-rule="evenodd"/></g></g></g><g clip-path="url(#3b2a84f6e8)"><g clip-path="url(#3a76db869c)"><g clip-path="url(#f84411172a)"><path fill="#000000" d="M 8.84375 29.441406 C 32.699219 25.015625 52.753906 35.027344 47.019531 44.6875 C 47.039062 44.707031 47.0625 44.722656 47.085938 44.742188 C 48.367188 43.089844 49.359375 41.667969 50.738281 38.980469 L 51.304688 37.777344 C 57.308594 21.308594 17.253906 16.929688 6.296875 21.523438 C 3.917969 22.519531 2.871094 25.085938 3.976562 27.242188 C 4.472656 28.21875 5.773438 29.800781 8.84375 29.441406 " fill-opacity="1" fill-rule="evenodd"/></g></g></g><g clip-path="url(#eb6311c649)"><g clip-path="url(#fe3c81fb33)"><g clip-path="url(#3c2539d9fc)"><path fill="#000000" d="M 31.285156 16.425781 C 34.019531 16.914062 36.617188 17.570312 39.003906 18.378906 C 41.378906 19.183594 43.554688 20.140625 45.441406 21.234375 C 47.328125 22.324219 48.921875 23.554688 50.164062 24.90625 C 50.746094 25.535156 51.226562 26.171875 51.613281 26.8125 C 52.011719 27.449219 52.304688 28.097656 52.515625 28.742188 C 52.726562 29.382812 52.84375 30.03125 52.878906 30.671875 C 52.894531 30.941406 52.882812 31.207031 52.863281 31.472656 C 52.875 31.472656 52.886719 31.480469 52.90625 31.484375 C 53.273438 29.1875 53.359375 28.363281 53.417969 25.75 C 53.375 24.824219 53.355469 23.585938 53.277344 22.660156 C 52.941406 20.785156 51.9375 15.074219 39.933594 10.695312 C 39.746094 10.628906 21.070312 4.238281 17.933594 9.773438 C 17.558594 10.4375 17.425781 11.433594 17.617188 12.144531 C 17.84375 12.984375 18.792969 14.992188 22.753906 15.472656 C 25.6875 15.613281 28.554688 15.9375 31.285156 16.425781 " fill-opacity="1" fill-rule="evenodd"/></g></g></g><g clip-path="url(#bb7198232d)"><g clip-path="url(#23916dcdca)"><g clip-path="url(#7a6fc39ac4)"><path fill="#000000" d="M 38.226562 6.640625 C 39.445312 7.039062 40.613281 7.476562 41.722656 7.957031 C 42.824219 8.433594 43.863281 8.949219 44.828125 9.5 C 45.792969 10.050781 46.683594 10.640625 47.488281 11.261719 C 48.292969 11.886719 49.019531 12.539062 49.648438 13.226562 C 49.929688 13.535156 50.1875 13.847656 50.421875 14.15625 C 50.660156 14.46875 50.875 14.78125 51.058594 15.097656 C 51.101562 15.167969 51.132812 15.242188 51.179688 15.316406 C 51.183594 15.195312 49.832031 11.828125 48.613281 9.761719 C 47.859375 8.476562 47.105469 7.167969 44.722656 5.261719 C 44.007812 4.683594 43.191406 4.167969 42.332031 3.671875 C 41.453125 3.171875 40.519531 2.710938 39.53125 2.277344 C 38.535156 1.847656 37.484375 1.453125 36.386719 1.089844 C 32.683594 0.125 33.054688 2.261719 33.480469 3.085938 C 33.734375 3.589844 34.835938 5.332031 38.226562 6.640625 " fill-opacity="1" fill-rule="evenodd"/></g></g></g><g clip-path="url(#6b4e0b7d54)"><g clip-path="url(#65de10fa96)"><g clip-path="url(#9ecfddd41b)"><path fill="#000000" d="M 22.808594 44.839844 C 17.554688 44.304688 3.160156 45.886719 6.871094 50.382812 C 7.078125 50.636719 7.394531 50.929688 7.652344 51.128906 C 7.898438 51.316406 9.175781 52.234375 10.125 51.832031 C 20.554688 45.320312 34.664062 51.441406 22.898438 56.3125 C 22.898438 56.324219 22.898438 56.335938 22.898438 56.34375 C 35.476562 51.886719 35.507812 46.148438 22.808594 44.839844 " fill-opacity="1" fill-rule="evenodd"/></g></g></g></g></g></g><path fill="#000000" d="M 187.5 0 C 83.90625 0 0 83.90625 0 187.5 C 0 291.09375 83.90625 375 187.5 375 C 291.09375 375 375 291.09375 375 187.5 C 375 83.90625 291.09375 0 187.5 0 Z M 187.5 337.5 C 104.625 337.5 37.5 270.375 37.5 187.5 C 37.5 104.625 104.625 37.5 187.5 37.5 C 270.375 37.5 337.5 104.625 337.5 187.5 C 337.5 270.375 270.375 337.5 187.5 337.5 Z M 187.5 337.5 " fill-opacity="1" fill-rule="nonzero"/></svg>