<?xml version="1.0" encoding="UTF-8" standalone="no"?>
<svg
   width="500"
   zoomAndPan="magnify"
   viewBox="0 0 375 374.99999"
   height="500"
   preserveAspectRatio="xMidYMid"
   version="1.0"
   id="svg66"
   sodipodi:docname="5.svg"
   inkscape:version="1.3 (0e150ed6c4, 2023-07-21)"
   xmlns:inkscape="http://www.inkscape.org/namespaces/inkscape"
   xmlns:sodipodi="http://sodipodi.sourceforge.net/DTD/sodipodi-0.dtd"
   xmlns="http://www.w3.org/2000/svg"
   xmlns:svg="http://www.w3.org/2000/svg">
  <sodipodi:namedview
     id="namedview66"
     pagecolor="#ffffff"
     bordercolor="#000000"
     borderopacity="0.25"
     inkscape:showpageshadow="2"
     inkscape:pageopacity="0.0"
     inkscape:pagecheckerboard="0"
     inkscape:deskcolor="#d1d1d1"
     inkscape:zoom="1.642"
     inkscape:cx="249.69549"
     inkscape:cy="250"
     inkscape:window-width="1920"
     inkscape:window-height="1017"
     inkscape:window-x="2552"
     inkscape:window-y="-8"
     inkscape:window-maximized="1"
     inkscape:current-layer="svg66" />
  <defs
     id="defs26">
    <filter
       x="0"
       y="0"
       width="1"
       height="1"
       id="68f100188b">
      <feColorMatrix
         values="0 0 0 0 1 0 0 0 0 1 0 0 0 0 1 0 0 0 1 0"
         color-interpolation-filters="sRGB"
         id="feColorMatrix1" />
    </filter>
    <g
       id="g1" />
    <mask
       id="cbdaea3f31">
      <g
         filter="url(#68f100188b)"
         id="g2">
        <rect
           x="-37.5"
           width="450"
           fill="#000000"
           y="-37.5"
           height="450"
           fill-opacity="0.5"
           id="rect1" />
      </g>
    </mask>
    <clipPath
       id="069bff08d1">
      <path
         d="M 42,44 H 332 V 334 H 42 Z m 0,0"
         clip-rule="nonzero"
         id="path2" />
    </clipPath>
    <clipPath
       id="e0c9a09c54">
      <path
         d="M 169.19922,-14.949219 391.14062,173.26172 205.35547,392.33984 -16.585938,204.13281 Z m 0,0"
         clip-rule="nonzero"
         id="path3" />
    </clipPath>
    <clipPath
       id="cf3828f7a4">
      <path
         d="M 169.19922,-14.949219 391.14062,173.26172 205.35547,392.33984 -16.585938,204.13281 Z m 0,0"
         clip-rule="nonzero"
         id="path4" />
    </clipPath>
    <clipPath
       id="3ac8436107">
      <path
         d="M 169.19922,-14.949219 391.14062,173.26172 205.35547,392.33984 -16.585938,204.13281 Z m 0,0"
         clip-rule="nonzero"
         id="path5" />
    </clipPath>
    <clipPath
       id="62e2a20f73">
      <rect
         x="0"
         width="375"
         y="0"
         height="375"
         id="rect5" />
    </clipPath>
    <mask
       id="f8987eab44">
      <g
         filter="url(#68f100188b)"
         id="g6">
        <rect
           x="-37.5"
           width="450"
           fill="#000000"
           y="-37.5"
           height="450"
           fill-opacity="0.5"
           id="rect6" />
      </g>
    </mask>
    <clipPath
       id="20578f8ff7">
      <path
         d="M 20,19 H 267 V 191 H 20 Z m 0,0"
         clip-rule="nonzero"
         id="path6" />
    </clipPath>
    <clipPath
       id="a3504a28fe">
      <path
         d="M 54.316406,-0.234375 301.83203,114.94141 247.72266,231.21875 0.210938,116.04297 Z m 0,0"
         clip-rule="nonzero"
         id="path7" />
    </clipPath>
    <clipPath
       id="b2be0fb52e">
      <path
         d="M 54.316406,-0.234375 301.83203,114.94141 247.72266,231.21875 0.210938,116.04297 Z m 0,0"
         clip-rule="nonzero"
         id="path8" />
    </clipPath>
    <clipPath
       id="6fa84e703f">
      <path
         d="m 54,53 h 48 v 61 H 54 Z m 0,0"
         clip-rule="nonzero"
         id="path9" />
    </clipPath>
    <clipPath
       id="a5beb38e36">
      <path
         d="M 54.316406,-0.234375 301.83203,114.94141 247.72266,231.21875 0.210938,116.04297 Z m 0,0"
         clip-rule="nonzero"
         id="path10" />
    </clipPath>
    <clipPath
       id="ade21180a7">
      <path
         d="M 54.316406,-0.234375 301.83203,114.94141 247.72266,231.21875 0.210938,116.04297 Z m 0,0"
         clip-rule="nonzero"
         id="path11" />
    </clipPath>
    <clipPath
       id="d5e6ea4b5d">
      <rect
         x="0"
         width="303"
         y="0"
         height="232"
         id="rect11" />
    </clipPath>
    <mask
       id="ad6ea24108">
      <g
         filter="url(#68f100188b)"
         id="g12">
        <rect
           x="-37.5"
           width="450"
           fill="#000000"
           y="-37.5"
           height="450"
           fill-opacity="0.5"
           id="rect12" />
      </g>
    </mask>
    <clipPath
       id="7be4e09063">
      <path
         d="M 1,32 H 45 V 55 H 1 Z m 0,0"
         clip-rule="nonzero"
         id="path12" />
    </clipPath>
    <clipPath
       id="4d316fe151">
      <path
         d="m -3.824219,0.609375 60.746094,-0.8125 0.75,56.246094 -60.742187,0.8125 z m 0,0"
         clip-rule="nonzero"
         id="path13" />
    </clipPath>
    <clipPath
       id="5adc928e44">
      <path
         d="m -3.824219,0.609375 60.746094,-0.8125 0.75,56.246094 -60.742187,0.8125 z m 0,0"
         clip-rule="nonzero"
         id="path14" />
    </clipPath>
    <clipPath
       id="5c158b6fdb">
      <path
         d="M 3,19 H 52 V 45 H 3 Z m 0,0"
         clip-rule="nonzero"
         id="path15" />
    </clipPath>
    <clipPath
       id="f7a38d2693">
      <path
         d="m -3.824219,0.609375 60.746094,-0.8125 0.75,56.246094 -60.742187,0.8125 z m 0,0"
         clip-rule="nonzero"
         id="path16" />
    </clipPath>
    <clipPath
       id="4054d65b4c">
      <path
         d="m -3.824219,0.609375 60.746094,-0.8125 0.75,56.246094 -60.742187,0.8125 z m 0,0"
         clip-rule="nonzero"
         id="path17" />
    </clipPath>
    <clipPath
       id="4328b3f86f">
      <path
         d="M 17,7 H 54 V 32 H 17 Z m 0,0"
         clip-rule="nonzero"
         id="path18" />
    </clipPath>
    <clipPath
       id="eb5126572c">
      <path
         d="m -3.824219,0.609375 60.746094,-0.8125 0.75,56.246094 -60.742187,0.8125 z m 0,0"
         clip-rule="nonzero"
         id="path19" />
    </clipPath>
    <clipPath
       id="4c84f27247">
      <path
         d="m -3.824219,0.609375 60.746094,-0.8125 0.75,56.246094 -60.742187,0.8125 z m 0,0"
         clip-rule="nonzero"
         id="path20" />
    </clipPath>
    <clipPath
       id="7f726a332e">
      <path
         d="M 33,0.238281 H 52 V 16 H 33 Z m 0,0"
         clip-rule="nonzero"
         id="path21" />
    </clipPath>
    <clipPath
       id="55137237d9">
      <path
         d="m -3.824219,0.609375 60.746094,-0.8125 0.75,56.246094 -60.742187,0.8125 z m 0,0"
         clip-rule="nonzero"
         id="path22" />
    </clipPath>
    <clipPath
       id="a156bcb181">
      <path
         d="m -3.824219,0.609375 60.746094,-0.8125 0.75,56.246094 -60.742187,0.8125 z m 0,0"
         clip-rule="nonzero"
         id="path23" />
    </clipPath>
    <clipPath
       id="d429506cb7">
      <path
         d="M 6,44 H 33 V 56.640625 H 6 Z m 0,0"
         clip-rule="nonzero"
         id="path24" />
    </clipPath>
    <clipPath
       id="99df4002ad">
      <path
         d="m -3.824219,0.609375 60.746094,-0.8125 0.75,56.246094 -60.742187,0.8125 z m 0,0"
         clip-rule="nonzero"
         id="path25" />
    </clipPath>
    <clipPath
       id="7c7b7a630e">
      <path
         d="m -3.824219,0.609375 60.746094,-0.8125 0.75,56.246094 -60.742187,0.8125 z m 0,0"
         clip-rule="nonzero"
         id="path26" />
    </clipPath>
    <clipPath
       id="13184ece7b">
      <rect
         x="0"
         width="55"
         y="0"
         height="57"
         id="rect26" />
    </clipPath>
  </defs>
  <g
     mask="url(#cbdaea3f31)"
     id="g33">
    <g
       id="g32">
      <g
         clip-path="url(#62e2a20f73)"
         id="g31">
        <g
           clip-path="url(#069bff08d1)"
           id="g30">
          <g
             clip-path="url(#e0c9a09c54)"
             id="g29">
            <g
               clip-path="url(#cf3828f7a4)"
               id="g28">
              <g
                 clip-path="url(#3ac8436107)"
                 id="g27">
                <path
                   fill="#000000"
                   d="M 280.19141,79.242188 C 276.16797,75.828125 272,72.6875 267.73828,69.785156 256.76953,61.914062 245.875,55.945312 237.19531,53.46875 l -0.0352,-0.0078 -0.0156,-0.01172 c -0.42578,-0.05078 -0.75391,-0.04297 -1.17187,-0.09375 -4.24219,-1.914063 -8.51563,-3.242188 -12.8086,-4.007813 C 171.28125,35.535156 114.07422,51.058594 77.125,93.953125 l -0.136719,0.08203 -0.05469,0.0625 c -0.113282,0.136719 -0.199219,0.285156 -0.308594,0.421875 -0.07813,0.08984 -0.167969,0.167969 -0.242188,0.257813 C 58.347656,116.03906 47.6875,141.10937 44.054688,166.92187 c -1,3.11329 -1.339844,6.6211 -1.09375,10.46485 -2.164063,32.42187 6.636718,65.36719 25.863281,92.93359 7.101562,10.1875 15.601562,19.64453 25.527343,28.0625 3.371094,2.85938 6.851568,5.51563 10.394528,8.01953 0.1211,0.0859 0.22657,0.1836 0.35547,0.25782 3.95703,2.77734 8,5.33593 12.14063,7.67187 9.1289,5.57422 18.29687,9.80469 26.60547,11.69922 18.39062,5.98047 37.6289,8.18359 56.53515,6.69141 l 0.16406,-0.0117 c 9.76563,-0.46094 19.36329,-2.25 28.60157,-5.23047 26.07031,-7.52735 50.22265,-22.48047 69.00781,-44.62891 20.14844,-23.76172 31.10937,-52.2539 33.31641,-81.24609 l 0.0742,-1.01953 c 1.85157,-26.79297 -3.77734,-53.94922 -16.60156,-78.16016 -0.008,-0.0156 -0.0195,-0.0273 -0.0273,-0.043 -4.11328,-9.98437 -12.14453,-20.70703 -21.8086,-30.707029 -4.01562,-4.339843 -8.29687,-8.511719 -12.92187,-12.429687 z m -2.81641,-1.21875 c 2.01172,1.660156 4.01172,3.371093 5.96484,5.125 2.84375,2.546874 5.57032,5.199218 8.21875,7.894531 0.44532,0.472656 0.86719,0.960937 1.3086,1.4375 -3.92578,-2.65625 -9.83594,-3.976563 -17.6875,-3.957031 -0.0352,-0.01953 -0.0664,-0.04297 -0.10157,-0.0625 -0.29687,-0.441407 -0.55859,-0.882813 -0.85937,-1.324219 l -0.0391,-0.07813 -0.0781,-0.04297 -1.30469,-0.6875 c 0.16016,-3.40625 0.0899,-6.417969 -0.42968,-8.652344 -0.54297,-2.339843 -1.45313,-4.089843 -2.71094,-5.226562 -0.41797,-0.382813 -0.87891,-0.699219 -1.375,-0.949219 -1.97266,-0.988281 -4.47266,-0.898438 -7.37891,0.07031 -0.1875,0.0625 -0.41406,0.203126 -0.60937,0.273438 -2.85547,-3.15625 -5.74219,-6.066406 -8.67188,-8.542969 -3.09765,-2.621093 -6.24218,-4.753906 -9.40234,-6.652343 8.86328,3.761718 17.44531,8.4375 25.62891,14.066406 l 0.10156,0.0625 c 3.15625,2.285156 6.3164,4.679687 9.42578,7.246094 z m -8.16406,-5.074219 c 1.13281,1.027343 1.98047,2.625 2.5039,4.878906 0.48047,2.082031 0.56641,4.941406 0.4375,8.171875 -0.47265,-0.25 -0.9375,-0.484375 -1.40625,-0.730469 -3.25781,-4.804687 -6.58203,-9.109375 -9.96875,-12.90625 0.10547,-0.03516 0.22657,-0.121093 0.33203,-0.15625 2.8086,-0.933593 5.11719,-0.976562 6.875,-0.09766 0.44141,0.222656 0.84766,0.496094 1.22657,0.839844 z m 24.7539,21.191406 c 0.60547,0.527344 1.13282,1.097656 1.61719,1.699219 2.0625,2.578125 3.04297,5.855466 3.09766,9.703126 -0.5,-0.45703 -0.92188,-0.91797 -1.4336,-1.37109 -5.91406,-5.207036 -12.91406,-10.20313 -20.9414,-14.980474 8.22656,0.132813 14.09765,1.828125 17.66015,4.949219 z m 3.70703,3.824219 c 6.4961,7.812496 12.07813,16.156246 16.70704,24.902346 0.29687,0.73437 0.48046,1.4414 0.73437,2.16406 -3.96094,-6.48047 -9.25391,-12.78125 -15.78516,-18.85156 0.0391,-3.08203 -0.48828,-5.83985 -1.65625,-8.21094 z M 246.85156,57.957031 c -0.53125,-0.246093 -1.0625,-0.5 -1.59765,-0.738281 0.53125,0.238281 1.05859,0.480469 1.59765,0.738281 z m 4.35938,5.855469 c 2.85156,2.414062 5.65625,5.253906 8.4414,8.324219 -1.5039,0.597656 -3.10547,1.394531 -4.80859,2.402343 -13.94531,-9.15625 -27.26563,-15.847656 -39.9375,-20.402343 5.16016,-1.011719 12.05078,-1.070313 20.64453,-0.125 0.50781,0.1875 1.01563,0.375 1.52344,0.566406 4.76953,2.304687 9.49219,5.300781 14.13672,9.234375 z m 8.91015,8.835938 c 3.16407,3.535156 6.28516,7.523437 9.34375,11.953124 L 268.18359,83.9375 c -4.28515,-3.210938 -8.53515,-6.234375 -12.71093,-8.996094 1.66015,-0.972656 3.20703,-1.738281 4.64843,-2.292968 z m 36.6875,32.015622 c 0.66797,0.58594 1.20703,1.19532 1.84766,1.78516 -0.0469,2.05859 -0.46484,4.33594 -1.01563,6.69531 -5.99609,-7.19922 -12.86718,-14.468749 -20.66015,-21.792968 -0.35547,-0.546874 -0.71094,-1.089843 -1.07422,-1.636718 8.02344,4.769531 15.01172,9.761718 20.90234,14.945316 z m 2.50782,2.41016 c 7.30078,6.85547 12.875,14.00781 16.89453,21.35937 0.86718,5.01953 1.08203,9.23828 0.77734,12.77735 -4.91016,-8.99219 -11.14062,-18.14844 -18.80859,-27.42969 0.57422,-2.34375 1.03515,-4.62891 1.13672,-6.70703 z M 273.72266,87.597656 c 0.0195,0.02734 0.0351,0.05859 0.0547,0.08984 l -0.6875,-0.40625 c 0.21094,0.113281 0.42188,0.203125 0.63282,0.316406 z M 232.94141,53.125 c -7.91797,-0.691406 -14.3711,-0.507812 -19.21094,0.609375 -3.71094,-1.300781 -7.375,-2.460937 -10.96875,-3.398437 6.4414,-1.335938 12.92187,-1.539063 19.37109,-0.515626 3.63281,0.945313 7.23438,2.066407 10.8086,3.304688 z m 39.16406,33.628906 c 0,0.04297 0,0.08594 0,0.132813 -0.16797,-0.128907 -0.33985,-0.234375 -0.50781,-0.363281 l -0.0117,-0.03516 z m 2.66406,2.433594 0.14844,0.238281 -0.25781,-0.238281 z m -1.94531,-0.789062 0.1289,0.132812 c -0.0312,0 -0.0547,-0.0078 -0.082,-0.0039 z m 0.84765,0.785156 c 0.94922,0.871094 1.86329,1.738281 2.78516,2.605468 6.98828,10.683598 12.89844,21.214848 17.78516,31.562498 -0.57032,1.31641 -1.28516,2.70703 -1.95703,4.07422 -4.08985,-4.48047 -8.39844,-8.87109 -12.89454,-13.14062 -1.5625,-8.3086 -3.65625,-16.679691 -6.33593,-25.093754 l 0.61718,-0.0039 z m -3.15625,-2.652344 c -8.41015,-2.113281 -16.72265,-3.621094 -24.92187,-4.585938 2.00391,-1.648437 3.9375,-3.125 5.76562,-4.410156 0.25,-0.175781 0.46485,-0.28125 0.71485,-0.453125 5.22265,2.265625 10.5039,4.773438 15.85547,7.519531 0.85937,0.644532 1.72265,1.265626 2.58593,1.929688 z m 0.89454,0.890625 c 0.20312,0.304687 0.40625,0.574219 0.60937,0.886719 L 272,88.515625 c -0.13672,0.0039 -0.24219,0 -0.38281,0.0078 l -0.0117,-0.01172 h -0.0234 c -5.625,0.808593 -11.49219,2.308593 -17.50391,4.308593 -3.77343,-2.867187 -7.59375,-5.617187 -11.4375,-8.269531 0.76172,-0.664062 1.53516,-1.394531 2.27735,-2.011719 8.70312,0.996094 17.54687,2.585938 26.49219,4.878907 z m 7.12109,6.300781 c 7.09375,6.800784 13.375,13.542974 18.91406,20.226564 -0.24219,0.96094 -0.375,1.86328 -0.69531,2.87109 -0.57813,1.8086 -1.35938,3.73047 -2.17188,5.67188 -4.49218,-9.44922 -9.8164,-19.04297 -16.04687,-28.769534 z M 264.64453,82.121094 c -3.99609,-1.972656 -7.94922,-3.769532 -11.86719,-5.480469 0.70703,-0.46875 1.39453,-0.894531 2.07032,-1.300781 3.23828,2.132812 6.49609,4.382812 9.79687,6.78125 z m 7.32813,7.074218 c -0.0391,0.402344 -0.0195,0.695313 -0.0664,1.113282 l -0.008,0.03516 c -1.58985,4.117188 -3.35547,8.328125 -5.21094,12.574216 -0.86719,-0.73047 -1.71875,-1.47656 -2.59375,-2.20313 -2.66016,-2.191398 -5.35547,-4.351555 -8.07813,-6.449211 -0.41406,-0.320313 -0.83984,-0.613281 -1.2539,-0.933594 5.80469,-1.902343 11.46875,-3.367187 16.88672,-4.144531 0.11718,-0.0078 0.20703,0.01563 0.32422,0.0078 z m 0.6289,0.710938 c 2.49219,7.898438 4.44531,15.77344 5.94922,23.57813 -3.67187,-3.46094 -7.46484,-6.83594 -11.33594,-10.1211 1.89063,-4.328124 3.69922,-8.61328 5.32032,-12.808592 l 0.008,-0.03516 0.0195,-0.05078 c 0.0234,-0.210938 0.0156,-0.355469 0.0391,-0.5625 z m 43.99219,37.35156 c 0.71484,1.46485 1.42187,2.92578 2.08594,4.41406 -0.54688,-1.14843 -1.19532,-2.27734 -1.8125,-3.41406 l -0.0547,-0.35156 v -0.0234 c -0.0547,-0.20703 -0.16016,-0.41797 -0.21875,-0.625 z M 254.21094,74.925781 c -0.72266,0.441407 -1.4336,0.875 -2.1875,1.386719 -17.17188,-7.410156 -33.63282,-12.300781 -49.24219,-14.980469 0.95703,-1.648437 2.31641,-3.097656 4.20312,-4.28125 1.77735,-1.117187 4.04688,-1.976562 6.7461,-2.613281 12.8125,4.511719 26.32422,11.21875 40.48047,20.488281 z m 62.92968,55.242189 c 4.51172,8.8125 6.85938,17.88672 7.30469,27.03906 -1.89453,-4.91797 -4.17578,-9.91406 -6.87109,-14.94922 0.39844,-3.37109 0.2539,-7.39062 -0.4336,-12.08984 z m -19.15625,-15.58594 c 7.74219,9.42188 13.99219,18.70313 18.88282,27.80469 -0.53907,4.28125 -1.89453,7.47656 -3.95313,9.66797 -0.23828,0.25781 -0.52344,0.45703 -0.77734,0.6875 -0.17969,-0.27344 -0.32813,-0.55469 -0.50781,-0.82813 -3.17969,-4.79687 -6.70704,-9.54687 -10.4961,-14.23047 -1.83984,-4.73437 -3.88672,-9.52343 -6.15234,-14.34375 0.92969,-2.17187 1.76172,-4.29296 2.40625,-6.3125 0.26953,-0.85156 0.3789,-1.61718 0.59765,-2.44531 z M 251.30859,76.765625 c -0.11718,0.08203 -0.21875,0.132813 -0.33984,0.21875 -1.98047,1.394531 -4.08203,3.054687 -6.26172,4.871094 -2.35156,-0.265625 -4.69141,-0.492188 -7.02344,-0.667969 -11.15625,-7.386719 -22.41015,-13.78125 -33.22656,-18.902344 14.88281,2.71875 30.54688,7.472656 46.85547,14.480469 z m 68.90625,58.542965 c 0.625,1.51172 1.22657,3.03516 1.79688,4.56641 5.20703,13.91016 8.23828,28.47266 9.01953,43.14453 -0.94922,-7.74219 -2.89844,-15.70703 -5.86719,-23.83594 -0.12109,-6.48828 -1.07422,-12.94922 -3.14844,-19.30859 -0.5,-1.53125 -1.17968,-3.05078 -1.80078,-4.57031 z m -103,-86.664059 c -5.10937,-0.308593 -10.23047,0.03516 -15.32031,1.15625 -0.21875,0.05078 -0.43359,0.125 -0.65234,0.175781 -15.39063,-3.8125 -29.69532,-4.386718 -42.80078,-2.25 19.32031,-3.6875 39.33984,-3.421874 58.77343,0.917969 z m -4.64843,5.378907 c -2.3125,0.628906 -4.3125,1.441406 -5.9375,2.460937 -2.04297,1.28125 -3.53907,2.875 -4.5586,4.703125 -4.03906,-1.851562 -8.03515,-3.582031 -11.90625,-5.046875 -0.76953,-0.292969 -1.5039,-0.523437 -2.26562,-0.800781 4.41406,-2.050782 8.875,-3.625 13.35156,-4.675782 3.71094,0.925782 7.48047,2.046876 11.31641,3.359376 z m 104.85937,89.367182 c 2.83984,5.38672 5.16406,10.69532 7.08594,15.94532 0.0156,1.07031 0.10156,2.13672 0.0703,3.21093 -0.11328,3.66797 -0.55469,7.33985 -1.22656,11.01172 -2.8711,-6.76953 -6.51563,-13.54297 -10.85156,-20.23828 0.30078,-0.26562 0.62109,-0.50781 0.90234,-0.80469 2.02734,-2.16015 3.39453,-5.17578 4.02344,-9.125 z m -22.79297,-19.17578 c 1.86719,3.98828 3.625,7.96485 5.19531,11.89453 -2.26171,-2.74218 -4.61718,-5.45703 -7.05859,-8.14062 0.61719,-1.25391 1.32813,-2.54297 1.86328,-3.75391 z M 244.02734,82.445312 c -0.63672,0.539063 -1.30468,1.140626 -1.95703,1.710938 -1.07031,-0.734375 -2.13281,-1.492188 -3.20312,-2.210938 1.71484,0.144532 3.43359,0.3125 5.16015,0.5 z m 19.62891,18.785158 c 0.92969,0.76562 1.83203,1.55469 2.75,2.33203 -4.17969,9.53125 -8.96484,19.32031 -14.25,29.25391 -4.61719,-3.46485 -9.17969,-7.15235 -13.55469,-11.01172 -5.29297,-4.66406 -10.26562,-9.55078 -14.82422,-14.46485 10.32032,-5.82812 20.47266,-10.503902 30.1836,-13.761715 0.54687,0.414063 1.10547,0.800781 1.64843,1.222656 2.71485,2.09375 5.39844,4.238281 8.05079,6.429689 z m 3.27734,2.77734 c 4.05078,3.44141 8.01172,6.98047 11.84375,10.61719 1.90235,10.19531 2.94532,20.26172 3.32032,30.18359 -1.03125,1.53907 -2.0625,3.07813 -3.17188,4.64844 -8.40234,-4.05078 -17.40234,-9.625 -26.23437,-16.21094 5.28125,-9.92187 10.05468,-19.71093 14.24218,-29.23828 z M 253.27734,93.066406 c -9.66797,3.28125 -19.75,7.964844 -29.98437,13.753904 -0.48438,-0.52734 -0.95313,-1.05859 -1.42578,-1.58593 C 229.11328,97.296875 235.92578,90.4375 242.10547,85 c 3.7539,2.589844 7.48047,5.273438 11.17187,8.0625 z m 26.32813,22.371094 c 4.30469,4.11719 8.4375,8.33594 12.36328,12.64453 -2.48438,4.98047 -5.59375,10.26563 -9.26953,15.80469 -0.39063,-9.35547 -1.34375,-18.84766 -3.09375,-28.44922 z M 241.53906,84.609375 c -6.16406,5.433594 -12.95312,12.242187 -20.14062,20.117185 -6.92969,-7.777341 -12.52735,-15.527341 -16.07813,-22.582029 10.41797,-1.011719 21.15625,-1.121093 32.1211,-0.304687 1.37109,0.910156 2.73046,1.832031 4.09765,2.769531 z M 292.45703,128.625 c 2.80859,3.10547 5.53906,6.23828 8.11328,9.41406 2.30469,5.9336 4.27735,11.77735 5.9375,17.55469 -3.35156,0.80078 -7.35156,0.67187 -11.86328,-0.32422 -3.63672,-0.79687 -7.60937,-2.1875 -11.74609,-3.96484 -0.0117,-2.09375 -0.0547,-4.19141 -0.12891,-6.30078 3.83594,-5.73438 7.09375,-11.21485 9.6875,-16.37891 z M 236.25,81.070312 c -10.66016,-0.726562 -21.09375,-0.554687 -31.23047,0.445313 -1.48437,-3.035156 -2.69531,-5.972656 -3.3125,-8.671875 -0.78516,-3.433594 -0.82031,-6.535156 0.0156,-9.195312 0.17187,-0.550782 0.41015,-1.066407 0.65625,-1.582032 10.98828,5.082032 22.46484,11.523438 33.87109,19.003906 z M 199.86719,50.328125 c -4.32422,1.105469 -8.6211,2.6875 -12.875,4.707031 -11.46094,-4.066406 -21.96485,-6.339844 -30.67578,-6.226562 0.65625,-0.121094 1.29687,-0.277344 1.95703,-0.386719 12.73437,-2.121094 26.64453,-1.640625 41.59375,1.90625 z m 102.03125,89.390625 c 3.28125,4.14062 6.36718,8.32422 9.16406,12.55469 0.20312,0.30468 0.36719,0.61328 0.5625,0.91797 -1.30078,1.03125 -2.78906,1.77734 -4.48438,2.2539 -1.48828,-5.17969 -3.24218,-10.42187 -5.24218,-15.72656 z m 23.3125,21.62109 c 4,11.58203 5.89062,22.80469 5.86718,33.53125 -0.004,2.01953 -0.082,4.02344 -0.21484,6.01172 -0.12109,1.79297 -0.30859,3.5586 -0.53516,5.32031 0.25782,-10.29296 -2.10937,-20.92578 -6.49218,-31.57421 0.78906,-4.01954 1.29297,-8.04688 1.41406,-12.06641 0.0117,-0.41016 -0.043,-0.81641 -0.0391,-1.22656 z m -13.21485,-7.57422 c 4.48047,6.9336 8.25391,13.94141 11.14453,20.9336 -1.67968,8.42969 -4.78515,16.82422 -9.08203,25.04687 -0.28906,-13.875 -2.43359,-28.48047 -6.73437,-43.66015 1.74609,-0.4961 3.30859,-1.25 4.67187,-2.32032 z M 201.74219,61.835938 c -0.25391,0.523437 -0.49219,1.054687 -0.66797,1.613281 -0.88281,2.808593 -0.82813,6.027343 -0.0234,9.546875 0.61719,2.695312 1.79297,5.605468 3.23438,8.605468 -19.22266,1.972657 -37.31641,6.921876 -53.96485,13.953126 -0.625,-0.261719 -1.2539,-0.566407 -1.8789,-0.820313 -1.64063,-0.667969 -3.2461,-1.195313 -4.8711,-1.796875 11.16406,-14.066406 23.4961,-25.679688 36.35547,-33.382812 7.0625,0.273437 14.33984,1.03125 21.81641,2.28125 z m -2.1211,-1.027344 c -6.33593,-0.976563 -12.53125,-1.613282 -18.5664,-1.882813 1.98437,-1.152343 3.97656,-2.207031 5.98437,-3.167969 0.96485,0.34375 1.90235,0.640626 2.87891,1.011719 3.16797,1.195313 6.41797,2.578125 9.70312,4.039063 z m 107.07032,95.425776 c 4.41796,15.5586 6.55468,30.51563 6.75,44.67969 -4.87891,9.07422 -11.26172,17.89063 -18.70704,26.3125 -0.52734,-1.03906 -0.96875,-2.05078 -1.52734,-3.09765 -4.24609,-7.94532 -9.62109,-16.17579 -15.72266,-24.48438 3.52735,-15.15625 5.44141,-31.11719 5.40235,-47.625 4.07812,1.73438 8.00781,3.10938 11.62109,3.90625 4.58203,1.00781 8.69922,1.14453 12.1836,0.30859 z M 186.14453,55.441406 c -2.14844,1.046875 -4.27344,2.175782 -6.39062,3.4375 -17.48829,-0.648437 -33.6875,1.566406 -48.33985,6.074219 1.89453,-4.707031 5.19531,-8.75 10.17578,-11.972656 0.29297,-0.175781 0.65625,-0.277344 0.96485,-0.4375 2.86328,-1.027344 5.80468,-1.921875 8.8125,-2.664063 9.25781,-1.238281 21.30468,0.847656 34.77734,5.558594 z M 323.61719,175.76562 c 5.24218,13.08204 7.37109,26.08985 5.3125,38.41797 -3.79297,7.1836 -9.57813,11.47266 -16.85938,13.42578 1.42578,-8.45703 2.12891,-17.28515 2.02344,-26.44921 4.45703,-8.31641 7.71875,-16.83204 9.52734,-25.39063 z m -41.45313,-29.83984 c 0.0547,1.71094 0.0703,3.41406 0.082,5.11328 -0.89062,-0.39062 -1.80468,-0.85547 -2.71093,-1.28515 0.91406,-1.29297 1.76953,-2.5586 2.6289,-3.82813 z M 178.72266,59.527344 c -12.69532,7.785156 -24.83204,19.28125 -35.82813,33.167968 -3.84766,-1.40625 -7.64453,-2.640624 -11.38281,-3.660156 -1.46485,-5.089844 -2.19531,-9.910156 -2.0586,-14.351562 0.0937,-3.183594 0.66016,-6.171875 1.66797,-8.941406 14.4336,-4.503907 30.3711,-6.753907 47.60157,-6.214844 z m 25.86718,22.707031 c 3.58594,7.222656 9.29297,15.105469 16.35157,23.007815 -1.89454,2.08203 -3.81641,4.21094 -5.75782,6.42578 -5.61328,3.45703 -11.25,7.20703 -16.87109,11.21094 -15.63281,-11.05469 -31.65234,-20.36719 -47.13672,-26.953129 16.48828,-6.898437 34.40234,-11.765625 53.41406,-13.695312 z m 77.64453,69.523435 c 0.0586,16.33985 -1.82031,32.14063 -5.27343,47.16016 -5.57422,-7.53906 -11.75782,-15.12891 -18.52344,-22.62891 7.79297,-8.89453 14.75391,-17.63281 20.6875,-25.97656 1.04297,0.49219 2.08984,1 3.10937,1.44531 z m -3.71484,-1.74219 c -5.89453,8.27735 -12.8125,16.94532 -20.53906,25.77344 -5.83985,-6.44531 -12.07031,-12.79297 -18.57422,-18.98828 4.55078,-7.66406 8.91016,-15.33984 12.97656,-22.95312 8.78906,6.55078 17.73438,12.11328 26.13672,16.16796 z m -57.12109,-44.27343 1.28125,1.41797 c -1.85547,1.05859 -3.71875,2.24609 -5.58594,3.37109 1.46094,-1.64844 2.875,-3.21875 4.30469,-4.78906 z m 1.76562,1.9375 c 4.60938,4.97265 9.63672,9.91015 14.99219,14.63281 4.41797,3.89063 9.02344,7.62109 13.68359,11.11719 -4.05859,7.59765 -8.39453,15.25 -12.93359,22.90234 -2.29688,-2.18359 -4.58594,-4.37891 -6.94922,-6.51172 -3.25391,-2.9375 -6.5625,-5.82812 -9.92187,-8.65625 -6.03125,-5.07812 -12.21875,-9.9375 -18.48829,-14.55468 4.08985,-4.97657 8.16016,-9.92579 12.10938,-14.4336 2.51172,-1.54297 5.01562,-3.07812 7.50781,-4.49609 z M 143.25391,51.484375 c -0.27344,0.125 -0.5586,0.242187 -0.82813,0.378906 -14.33203,5.113281 -26.88672,13.660157 -37.51953,24.617188 -6.195312,3.570312 -11.980469,7.589843 -17.332031,12.03125 -2.960938,1.082031 -5.773438,2.472656 -8.441407,4.148437 C 96.921875,72.667969 119.20313,58.863281 143.25391,51.484375 Z m 70.51562,61.824215 c -3.52344,4.0586 -7.13672,8.48438 -10.76562,12.90625 -1.35938,-0.99609 -2.73047,-1.95312 -4.09766,-2.92187 4.95312,-3.51953 9.91406,-6.88281 14.86328,-9.98438 z M 139.35547,53.773438 c -4.20703,3.179687 -7.10938,7.027343 -8.77735,11.441406 -8.37499,2.636718 -16.23437,6.027344 -23.55468,10.0625 9.36719,-9.257813 20.1875,-16.621094 32.33203,-21.503906 z M 313.46484,202.32812 c 0.0391,8.82422 -0.6914,17.33204 -2.08593,25.48829 -1.06641,0.26171 -2.16016,0.46484 -3.28516,0.6289 -3.91016,0.57031 -8.24609,0.45313 -12.79688,-0.0742 l -0.24218,-0.49218 c 7.25781,-8.1836 13.55468,-16.73438 18.41015,-25.55079 z m 14.9961,13.92579 c -3.95313,16.33593 -12.26563,31.19531 -23.6211,44.14062 -0.0351,-0.94141 -0.0664,-1.87891 -0.16015,-2.84766 -0.0664,-0.67578 -0.25391,-1.41015 -0.34766,-2.10156 3.37891,-8.5 5.95313,-17.5625 7.61328,-27.10547 6.94141,-1.79687 12.59375,-5.73047 16.51563,-12.08593 z m -0.0664,3.00781 c -4.37891,21.51562 -13.83203,42.24219 -28.4375,60.37109 3.5,-5.14062 5.05469,-11.32812 4.9375,-18.28906 10.97656,-12.38281 19.21094,-26.54297 23.5,-42.08203 z m -106.8125,-77.57813 c 3.35547,2.82422 6.67188,5.69922 9.92188,8.63282 2.39453,2.16406 4.72265,4.38671 7.05078,6.59765 -6.77344,11.38281 -14.07032,22.66406 -21.53516,33.7461 -6.68359,-4.96485 -13.27734,-10.25 -19.67187,-15.75782 -6.35157,-5.46875 -12.48829,-11.16406 -18.32422,-16.97265 5.26562,-7.10157 10.57031,-14.05469 15.84765,-20.73828 2.77735,-3.51563 5.48047,-6.71094 8.22266,-10.0586 6.26562,4.61328 12.45703,9.47656 18.48828,14.55078 z m 17.46094,15.69141 c 6.47656,6.17578 12.66015,12.50391 18.47265,18.92578 -2.28515,2.60547 -4.60937,5.22266 -7.01953,7.83984 -5.46484,5.9336 -11.24218,11.89063 -17.21093,17.77735 -5.25,-3.40625 -10.50391,-7.02344 -15.71094,-10.875 7.45312,-11.0586 14.70703,-22.3086 21.46875,-33.66797 z m -36.49219,-30.63672 c -2.73828,3.34375 -5.4375,6.53516 -8.21094,10.04688 -5.26172,6.66015 -10.55859,13.58593 -15.80859,20.66406 -3.40625,-3.40235 -6.65625,-6.84766 -9.81641,-10.3086 7.63282,-6.64062 15.42969,-13.02343 23.32032,-18.91796 2.08203,-1.5586 4.17578,-3.02344 6.26562,-4.51563 1.41797,1.00781 2.83984,1.9961 4.25,3.03125 z M 130.32422,65.992188 c -0.92578,2.707031 -1.46485,5.597656 -1.5586,8.660156 -0.13281,4.414062 0.56641,9.167968 1.97266,14.167968 -11.91797,-3.164062 -23.20703,-4.316406 -33.304686,-2.789062 2.511718,-3.183594 5.156246,-6.203125 7.937496,-9.070312 7.69922,-4.433594 16.03907,-8.121094 24.95313,-10.96875 z m 67.39844,57.312502 c -2.03125,1.44922 -4.0625,2.86328 -6.08594,4.3789 -7.90625,5.90625 -15.72266,12.29688 -23.36719,18.94532 -12.625,-13.87891 -23.18359,-28.04297 -30.05469,-41.24219 -0.49609,-0.95703 -0.86328,-1.875 -1.32422,-2.82031 4.35157,-2.25782 8.83594,-4.339848 13.42579,-6.289066 15.54687,6.554686 31.66796,15.906246 47.40625,27.027346 z m 60.2539,53.49609 c 6.8711,7.62109 13.15625,15.33203 18.78906,22.98828 -1.7539,7.49219 -3.91406,14.75781 -6.39843,21.8086 -11.64453,-4.63282 -24.03516,-11.25 -36.51563,-19.3086 5.94141,-5.86328 11.70313,-11.78906 17.14453,-17.69922 2.39453,-2.60547 4.70313,-5.19922 6.98047,-7.78906 z m 53.28125,51.70703 c -1.58984,9.03516 -3.98437,17.64063 -7.1289,25.73047 -1.23047,-7.76172 -4.14063,-16.23047 -8.48829,-25.15625 4.4375,0.48438 8.67579,0.58594 12.53516,0.0273 1.05078,-0.15234 2.07813,-0.36718 3.08203,-0.60156 z m -33.96875,-27.98828 c 5.9375,8.12109 11.17188,16.16406 15.32031,23.91797 0.60157,1.12891 1.07813,2.21484 1.64063,3.33203 -0.14063,0.15234 -0.26172,0.31641 -0.40234,0.47266 -5.73047,-0.79688 -11.85938,-2.33985 -18.30079,-4.60938 -1.48437,-0.52344 -3.02734,-1.18359 -4.53906,-1.77734 2.4336,-6.90235 4.54688,-14.01172 6.28516,-21.33594 z M 149.45312,95.898438 c -4.26171,1.824218 -8.42187,3.769531 -12.47265,5.863282 2.01172,-2.832032 4.04297,-5.617189 6.14062,-8.277345 1.6875,0.621094 3.35547,1.171875 5.0586,1.863281 0.42187,0.171875 0.85156,0.375 1.27343,0.550782 z m -7.00781,-2.65625 c -2.07031,2.636718 -4.08594,5.402343 -6.07422,8.199222 -1.875,-3.984379 -3.48828,-7.886722 -4.61328,-11.621098 3.51172,0.96875 7.07422,2.105469 10.6875,3.421876 z m -11.49219,-3.664063 c 1.17969,4.003906 2.9336,8.199219 4.96875,12.472655 -0.0859,0.1211 -0.17187,0.23438 -0.25781,0.35547 -22.91015,12.05859 -42.269529,28.21484 -56.72656,46.14844 -2.527344,-5.10938 -4.488281,-10.07422 -5.984375,-14.88282 3.457031,-11.05468 7.90625,-21.63281 13.457031,-31.32031 3.140625,-5.480466 6.628906,-10.675779 10.410156,-15.542966 10.269528,-1.691406 21.859378,-0.53125 34.132808,2.769531 z M 294.85547,229.00781 c 4.625,9.4336 7.68359,18.35547 8.80078,26.41797 -1.69531,4.23828 -3.59375,8.31641 -5.67188,12.26563 -2.92968,2.85937 -6.01171,5.60937 -9.23046,8.23828 -7.14844,5.84375 -15.01563,11.03125 -23.3125,15.64453 -6.84766,-0.5 -14.19922,-1.90625 -22.01954,-4.32813 -0.88281,-2.82812 -1.94531,-5.70703 -3.25,-8.66406 3.17188,-4.03906 6.21875,-8.27734 9.13672,-12.71875 12.3125,-7.64844 23.84766,-16.30469 33.96485,-25.76172 3.85547,-3.60547 7.42968,-7.34765 10.86328,-11.15234 0.24609,0.0352 0.47265,0.0312 0.71875,0.0625 z m -1.5586,-0.13281 c -3.32031,3.66016 -6.77734,7.26562 -10.49218,10.73828 -9.73828,9.10547 -20.78516,17.48828 -32.58985,24.92188 8.14844,-12.62891 15.13672,-26.77735 20.57422,-42.05079 1.51563,0.59375 3.0625,1.26563 4.55078,1.78907 6.30078,2.21875 12.3125,3.78125 17.95703,4.60156 z M 136.30078,102.85938 c 0.46484,0.95312 0.82813,1.88281 1.32813,2.84375 6.90625,13.26953 17.48437,27.47656 30.13281,41.3789 -10.00391,8.72656 -19.65235,17.94531 -28.72266,27.33594 -10.79687,-6.78906 -21.51172,-12.54297 -31.70312,-16.83594 7.39844,-19.16797 16.94531,-37.59375 28.03125,-53.62109 0.23828,-0.34375 0.5,-0.65625 0.73828,-1 z m -1.5,0.73437 c -11.10937,16.0625 -20.67969,34.51562 -28.09375,53.71875 -3.5039,-1.45703 -6.95703,-2.79688 -10.308592,-3.89453 -5.957032,-1.94531 -11.644532,-3.27735 -16.960938,-3.9336 l -0.152344,-0.28515 c 14.167969,-17.64844 33.097654,-33.60938 55.515624,-45.60547 z m -31.58594,-25.375 c -2.35937,2.53125 -4.617184,5.195312 -6.773434,7.960938 -2.457031,0.417968 -4.816406,1.019531 -7.125,1.761718 4.355469,-3.519531 8.992188,-6.769531 13.898434,-9.722656 z m 166.94141,144.01562 c -5.59766,15.71485 -12.84766,30.22266 -21.29688,43.10938 -3.875,2.40234 -7.82421,4.67969 -11.84375,6.85937 -0.40625,-0.77734 -0.73437,-1.52734 -1.16406,-2.30859 -7.28906,-13.25391 -18.11719,-27.30469 -30.91015,-40.97656 9.73437,-8.36328 19.3125,-17.16016 28.42968,-26.13672 12.5586,8.11719 25.04297,14.78125 36.78516,19.44922 z m 33.69922,34.3711 c 0.0351,0.32422 0.13281,0.67578 0.16406,1 0.11328,1.1875 0.17188,2.35156 0.19922,3.49609 -1.49219,1.67969 -3.03125,3.32422 -4.625,4.9375 1.53906,-3.05469 2.94531,-6.21484 4.26172,-9.43359 z m 0.36328,5.50781 c -0.008,7.94922 -2.24609,14.8125 -7.17969,20.16016 -3.64062,3.625 -8.05859,6.1289 -13.08594,7.67578 5.50391,-6.63672 10.37891,-13.96094 14.54297,-21.86719 1.98047,-1.9375 3.88672,-3.92969 5.72266,-5.96875 z M 168.20312,147.58594 c 3.19532,3.49609 6.49219,6.97265 9.92969,10.40625 -7.04687,9.51562 -13.89453,19.27734 -20.57031,29.03125 -5.95703,-4.3711 -11.95313,-8.45703 -17.95703,-12.25391 9.03125,-9.34375 18.64062,-18.5 28.59375,-27.18359 z m 64.58594,54.8164 c -9.07812,8.92969 -18.61328,17.69141 -28.30859,26.01563 -2.49219,-2.65235 -5.0586,-5.27735 -7.69141,-7.89063 6.90625,-9.27734 13.71094,-19.02343 20.40235,-28.93359 5.16796,3.82422 10.38281,7.41797 15.59765,10.80469 z M 95.796875,86.976562 c -3.621094,4.71875 -6.953125,9.75 -9.976563,15.031248 -5.421874,9.46094 -9.785156,19.78125 -13.21875,30.55078 -1.121093,-3.79687 -2.027343,-7.50781 -2.421874,-11.04687 -0.628907,-5.62891 -0.257813,-10.87891 1.15625,-15.67578 4.925781,-6.042971 10.464843,-11.660159 16.578124,-16.750002 2.53125,-0.914063 5.15625,-1.609376 7.882813,-2.109376 z m 82.820315,71.511718 c 5.82422,5.79297 11.96093,11.47266 18.29687,16.92969 6.41016,5.51953 13.01953,10.82031 19.71875,15.79687 -6.66797,9.875 -13.45703,19.58203 -20.33594,28.83203 -6.79687,-6.71484 -13.96875,-13.28906 -21.4414,-19.52734 -5.47266,-4.57031 -11.09766,-8.91406 -16.76172,-13.08984 6.65625,-9.72657 13.49219,-19.44922 20.51953,-28.94141 z M 85.976562,89.867188 c -5.121093,4.402343 -9.835937,9.175781 -14.097656,14.265622 1.234375,-3.44531 3.035156,-6.644529 5.511719,-9.535154 0.01563,-0.01953 0.03125,-0.03516 0.04687,-0.05078 0,-0.0039 0.0039,-0.0078 0.0078,-0.01563 0.0039,-0.0039 0.0078,-0.0078 0.01172,-0.01172 2.664063,-1.890625 5.523438,-3.410156 8.519531,-4.652343 z M 297.05469,269.39453 c -4.10938,7.53125 -8.86719,14.53125 -14.20703,20.875 -3.84766,1.05469 -8.02735,1.59766 -12.53125,1.60156 -1.15235,0.004 -2.40235,-0.16015 -3.58985,-0.22265 7.96875,-4.50391 15.53125,-9.5586 22.4336,-15.19922 2.7539,-2.25391 5.34765,-4.63672 7.89453,-7.05469 z m -0.004,13.76953 c -15.1875,17.67188 -33.85937,30.65235 -54.17187,38.85938 11.9375,-5.64844 23.01562,-13.3711 32.69531,-22.91797 2.65625,-2.6211 5.20703,-5.375 7.64062,-8.25781 5.30469,-1.48829 9.97657,-3.9961 13.83594,-7.6836 z M 72.84375,100.19531 c -0.867188,1.69532 -1.554688,3.47657 -2.105469,5.3086 -2.332031,2.86718 -4.542969,5.82031 -6.59375,8.86328 -3.933593,5.84375 -7.3125,12.01172 -10.167969,18.39453 C 58.683594,121.33594 64.96875,110.375 72.84375,100.19531 Z m -2.585938,7.01563 c -1.085937,4.46484 -1.320312,9.26953 -0.75,14.37109 0.429688,3.85547 1.4375,7.92578 2.71875,12.06641 -1.589843,5.10156 -2.984374,10.27734 -4.109374,15.55468 -1.296876,0.125 -2.570313,0.28907 -3.792969,0.53125 -8.222657,1.6211 -14.734375,6.05079 -18.8125,13.73047 2.734375,-17.3789 9.296875,-34.02734 19.1875,-48.71484 1.742187,-2.58203 3.617187,-5.08203 5.558593,-7.53906 z M 282.01172,291.19141 c -2.21875,2.57812 -4.50391,5.07421 -6.90235,7.43359 -11.46093,11.30859 -24.89062,20.05078 -39.39062,25.78516 7.24609,-5.82813 10.42578,-13.67969 10.27734,-22.77344 6.77344,-2.72656 13.3086,-5.91406 19.61328,-9.41406 1.57032,0.10937 3.1836,0.30078 4.69532,0.30078 4.15625,-0.008 8.07031,-0.4375 11.70703,-1.33203 z M 174.41406,201.02734 c 7.49219,6.25391 14.67969,12.83594 21.49219,19.56641 -7.71484,10.35547 -15.39844,19.95703 -22.95313,29.03906 -8.40625,-6.04687 -16.71484,-12.48047 -24.73046,-19.27734 -3.92579,-3.32813 -7.76563,-6.74219 -11.53516,-10.19922 6.45312,-10.42578 13.57422,-21.25781 21.03125,-32.16797 5.64453,4.16016 11.24609,8.48438 16.69531,13.03516 z m -17.24219,-13.45703 c -7.4414,10.88672 -14.53906,21.70313 -20.98828,32.11328 -6.84765,-6.29687 -13.36718,-12.77734 -19.50781,-19.33984 0.21094,-0.25391 0.39453,-0.51172 0.60547,-0.76563 6.70313,-8.08593 14.07812,-16.24609 21.84766,-24.3125 6.03125,3.8086 12.05859,7.91407 18.04296,12.30469 z m 39.20313,33.51172 c 2.59766,2.57813 5.13672,5.16797 7.59766,7.78906 -9.4336,8.08203 -19.00391,15.67578 -28.41407,22.61719 l -2.0625,-1.46094 c 7.53125,-9.05468 15.1875,-18.63281 22.87891,-28.94531 z m 8.04297,8.27344 c 12.77734,13.64844 23.58984,27.66406 30.84375,40.85547 0.42969,0.77734 0.74609,1.52343 1.15234,2.29687 -4.46875,2.40625 -8.99609,4.65235 -13.60156,6.75781 -15.14844,-6.91406 -31.05859,-16.36328 -46.68359,-27.35937 9.375,-6.92578 18.89453,-14.5 28.28906,-22.55078 z m 43.51562,37.32031 c -2.60156,3.89453 -5.29687,7.62891 -8.09375,11.20703 -0.7539,-1.66797 -1.65625,-3.3789 -2.53515,-5.07812 3.60547,-1.95313 7.14062,-3.9961 10.6289,-6.12891 z M 138.53906,174.89844 c -7.74219,8.04297 -15.08593,16.18359 -21.76953,24.24609 -0.19531,0.23438 -0.37109,0.45703 -0.5625,0.69141 -5.96484,-6.39844 -11.50781,-12.85938 -16.566405,-19.3125 2.128905,-7.5 4.609375,-14.95313 7.433595,-22.32422 10.10156,4.25781 20.74219,9.96484 31.46484,16.69922 z m -32.08593,-16.98047 c -2.77344,7.23437 -5.21485,14.5664 -7.316411,21.93359 -6.265625,-8.05078 -11.832031,-16.0625 -16.292969,-23.86328 -1.109375,-1.94531 -2.046875,-3.85156 -3.027344,-5.76562 5.128906,0.66796 10.597656,1.9375 16.355469,3.82031 3.339844,1.09375 6.785155,2.41406 10.281255,3.87109 z m 157.85156,134.23437 c -5.91797,3.23047 -12.01953,6.19532 -18.34766,8.7461 -0.14062,-4.07813 -1.00391,-8.42188 -2.35937,-12.92969 7.30468,2.23437 14.22265,3.61719 20.70703,4.18359 z m -27.59375,-19.03906 c 0.92578,1.79688 1.89062,3.59766 2.67578,5.35547 -1.54297,1.95312 -3.10156,3.86328 -4.69531,5.71484 l -1.50782,-0.53125 c -3.125,-1.21093 -6.3125,-2.57031 -9.51953,-4.01953 4.41406,-2.03125 8.75781,-4.21094 13.04688,-6.51953 z M 72.578125,134.74219 c 1.511719,4.65625 3.457031,9.43359 5.90625,14.35156 -0.06641,0.082 -0.140625,0.16016 -0.207031,0.24219 -3.324219,-0.35157 -6.480469,-0.41797 -9.472656,-0.1875 1.046874,-4.87891 2.332031,-9.67969 3.773437,-14.40625 z M 239.67578,279.19922 c 1.15625,2.64844 2.16797,5.25 2.98047,7.79297 -2.38672,-0.75391 -4.83203,-1.65235 -7.28516,-2.5625 1.45703,-1.69922 2.89063,-3.44532 4.30469,-5.23047 z m 3.18359,8.5625 c 1.44532,4.70703 2.32032,9.23047 2.4375,13.4375 -13.0625,5.20703 -26.84375,8.8164 -40.72656,10.8125 8.67578,-5.66016 17.125,-12.7461 25.0625,-21.10156 1.79688,-1.88672 3.51953,-3.92579 5.25781,-5.94141 2.6875,1.00391 5.36329,1.97656 7.96875,2.79297 z M 79.019531,150.09766 c 1.050781,2.0664 2.066407,4.13281 3.265625,6.23046 4.546875,7.95704 10.222656,16.125 16.625,24.32422 -1.796875,6.36719 -3.402344,12.7461 -4.644531,19.08985 -1.828125,9.35937 -2.949219,18.60547 -3.425781,27.61328 -7.152344,-3.07813 -13.710938,-4.96875 -19.109375,-5.16406 -1.117188,-0.0391 -2.171875,0.0273 -3.191407,0.13671 -3.710937,-17.33984 -4.515624,-35.54296 -2.71875,-53.42968 3.480469,-6.14844 7.511719,-12.20703 12.097657,-18.07813 0.199219,-0.2539 0.433593,-0.49219 0.632812,-0.74609 0.160157,0.0195 0.304688,0.004 0.464844,0.0234 z m -1.304687,-0.0703 c -0.105469,0.12891 -0.226563,0.25391 -0.328125,0.38282 -4.296875,5.5 -8.0625,11.16796 -11.394531,16.91406 0.644531,-5.88281 1.492187,-11.72266 2.703124,-17.47656 2.828126,-0.23047 5.867188,-0.125 9.019532,0.17968 z M 234.22266,284.73437 c -1.67969,1.9336 -3.34375,3.90235 -5.07422,5.72266 -8.29688,8.73047 -17.15625,16.02734 -26.23438,21.78125 -2.33594,0.3125 -4.67187,0.69141 -7.01172,0.90625 -7.33984,0.67188 -14.66015,0.75391 -21.90625,0.41797 1.00391,-4.5 -0.10156,-9.84375 -2.74218,-15.61719 -0.26954,-0.58203 -0.64454,-1.19531 -0.94532,-1.78906 7.5,-1.16016 15.05469,-2.78125 22.59766,-4.94531 10.09766,-2.89453 20.11719,-6.72657 29.91797,-11.1875 3.41406,1.55078 6.80078,2.97656 10.125,4.26562 0.43359,0.16797 0.84375,0.28125 1.27344,0.44141 z m -12.19532,-5.09765 c -9.60547,4.34375 -19.42968,8.08984 -29.3164,10.92578 -7.58985,2.17578 -15.19141,3.80859 -22.72657,4.96484 -3.6875,-7.10547 -9.49218,-14.79297 -16.6289,-22.45312 4.02344,-4.28906 8.14062,-8.82422 12.38281,-13.71875 2.49219,-1.72266 4.98828,-3.44922 7.51563,-5.28125 0.76953,-0.5586 1.55078,-1.16406 2.32421,-1.73047 15.53125,10.94531 31.35157,20.35547 46.45313,27.29297 z M 67.996094,149.89453 c -1.296875,6.19531 -2.222656,12.49609 -2.867188,18.83594 -6.601562,11.69922 -11.011718,23.74609 -13.105468,35.60156 -4.085938,-8.26172 -6.828126,-16.00391 -7.941407,-22.83984 0.01953,-5.38672 0.425781,-10.73047 1.164063,-16.02735 3.902344,-8.59375 10.558594,-13.35547 19.21875,-15.05859 1.140625,-0.22656 2.320312,-0.39063 3.53125,-0.51172 z M 245.3125,301.91797 c 0.0859,9.08984 -3.12891,16.80469 -10.62109,22.5039 -15.0625,5.15625 -32.33204,3.6875 -50.19141,-2.21484 6.24609,-2.33984 12.47266,-5.43359 18.60156,-9.30469 14.38672,-1.93359 28.67578,-5.60547 42.21094,-10.98437 z M 99.433594,181.33594 c 5.003906,6.36328 10.484376,12.72656 16.359376,19.03125 -8.11719,9.87109 -15.23828,19.55468 -21.16797,28.72265 -1.046875,-0.5 -2.09375,-0.98437 -3.117188,-1.43359 0.464844,-9.05469 1.582032,-18.35938 3.425782,-27.78906 1.203125,-6.15235 2.765625,-12.35157 4.496094,-18.53125 z M 116.26172,200.875 c 6.15625,6.57812 12.69922,13.07422 19.5625,19.38672 -0.48438,0.77734 -1.03906,1.60156 -1.51172,2.375 -4.80469,7.83984 -9.17578,15.33984 -13.10156,22.45312 -8.76563,-6.28515 -17.65625,-11.70703 -25.957034,-15.70703 5.886724,-9.09375 12.960934,-18.71484 21.007814,-28.50781 z m 58.73437,51.0625 c -0.71093,0.52344 -1.4375,1.08203 -2.14843,1.59766 -1.8125,1.3164 -3.59375,2.53515 -5.39454,3.79687 1.84766,-2.15234 3.73438,-4.52344 5.60938,-6.76953 z m -2.48047,-1.77344 c -2.30468,2.76953 -4.64843,5.71875 -6.91015,8.33203 -0.10547,0.1211 -0.20313,0.21485 -0.30469,0.33594 -5.38281,3.71484 -10.65234,7.13672 -15.79687,10.25 -4.86329,-4.90234 -10.14844,-9.74609 -15.71875,-14.34375 -2.39063,-1.97266 -4.82032,-3.90625 -7.28125,-5.77734 -1.56641,-1.19141 -3.15235,-2.32422 -4.73828,-3.46485 3.92968,-7.125 8.30859,-14.64843 13.12109,-22.5 0.45312,-0.73828 0.98047,-1.52343 1.4375,-2.26562 3.7539,3.4414 7.5664,6.83594 11.47265,10.14844 8.01172,6.79296 16.31641,13.23828 24.71875,19.28906 z M 64.953125,170.49609 c -1.59375,17.39844 -0.699219,35.0586 2.902344,51.91016 -1.617188,0.23437 -3.082031,0.66406 -4.382813,1.33203 -2.445312,-3.625 -4.769531,-7.21875 -6.816406,-10.73828 -1.507812,-2.59766 -2.875,-5.14453 -4.148438,-7.66016 1.929688,-11.58203 6.144532,-23.35547 12.445313,-34.84375 z m 98.324215,90.58985 c -3.52734,4.02343 -7.00781,7.89453 -10.3789,11.49218 -0.94922,-1.00781 -1.91407,-2.00781 -2.90235,-3.01171 4.34766,-2.63672 8.76172,-5.41407 13.28125,-8.48047 z m 68.41797,64.84765 c -0.83594,0.29297 -1.67578,0.56641 -2.51562,0.83985 -9.48828,2.7539 -19.22657,4.54687 -29.0625,5.30468 l -0.14063,0.0117 c -12.23437,0.51172 -24.71875,-1.10156 -37.03125,-5.0039 6.76563,-0.41797 13.65235,-2.02735 20.53516,-4.51172 17.01172,5.75 33.51562,7.4414 48.21484,3.35937 z m -98.33203,-70.67187 c 5.50781,4.54687 10.72266,9.33984 15.52734,14.18359 -10.73437,6.46094 -20.82421,11.52735 -29.68359,14.625 -3.89062,-3.19531 -7.6914,-6.5 -11.41406,-9.8789 3.15625,-7.94532 7.82031,-17.4961 13.64062,-28.09375 1.5586,1.12109 3.1211,2.22656 4.66016,3.39843 2.45312,1.86719 4.88672,3.80078 7.26953,5.76953 z M 201.4375,313.125 c -5.93359,3.63672 -11.94141,6.55078 -17.96484,8.73828 -3.6875,-1.25 -7.39454,-2.65234 -11.11329,-4.26953 0.63672,-1.04297 1.08204,-2.17188 1.40625,-3.34375 7.33985,0.35156 14.75782,0.26172 22.19141,-0.41797 1.83203,-0.16797 3.65234,-0.48047 5.48047,-0.70703 z m -80.54687,-67.42578 c -5.79297,10.53906 -10.45313,20.05469 -13.625,28.02344 -0.78125,-0.71094 -1.58204,-1.41016 -2.35157,-2.12891 -4.0039,-3.72656 -7.843748,-7.5625 -11.589841,-11.43359 -1.441407,-7.73047 -2.097657,-15.9336 -2.078125,-24.44141 1.125,-1.87891 2.386718,-3.82422 3.628906,-5.75781 8.29688,3.99609 17.21875,9.43359 26.01563,15.73828 z m 28.5039,24.23828 c 1.03906,1.05469 2.04297,2.10937 3.03516,3.16797 -7.59375,8.0664 -14.71485,14.97656 -21.07032,20.38672 -3.91015,-2.8711 -7.77343,-5.83203 -11.5664,-8.92578 8.89062,-3.14063 18.93359,-8.19141 29.60156,-14.62891 z m 3.49219,3.66406 c 7.02344,7.55078 12.75781,15.08594 16.40234,22.04297 -11.38672,1.69531 -22.60156,2.17578 -33.32422,1.20313 -1.35547,-0.95313 -2.6914,-1.95704 -4.03515,-2.94141 6.33984,-5.40625 13.42187,-12.29297 20.95703,-20.30469 z m -109.464845,-91.90234 0.02344,0.1289 c -0.0039,13.625 2.316407,27.42188 7.222657,40.85547 0.06641,1.44922 0.164062,2.89063 0.3125,4.32422 0.585937,5.60156 1.84375,11.05469 3.753906,16.31641 -8.265625,-19.59375 -12.078125,-40.65235 -11.3125,-61.625 z m 0.730469,3.59765 c 1.453125,6.20704 4.0625,12.98047 7.675781,20.14844 -0.832031,5.07813 -1.304687,10.11719 -1.21875,15.07422 -4.015625,-11.60547 -6.117187,-23.46094 -6.453125,-35.22266 z m 50.09375,44.3711 c -1.007813,1.5664 -2.023438,3.14844 -2.957032,4.67969 0.02344,-1.96094 0.105469,-3.94532 0.199219,-5.9375 z m -3.417969,-1.57422 c -0.121094,2.49219 -0.257813,4.97656 -0.265625,7.42187 -2.867188,4.78907 -5.28125,9.36719 -7.332031,13.72657 -3.996094,-4.5586 -7.78125,-9.14844 -11.296875,-13.72266 -1.273438,-4.11328 -2.355469,-8.30469 -3.28125,-12.54687 0.96875,-0.10157 1.972656,-0.16016 3.050781,-0.1211 5.328125,0.19141 11.917969,2.11328 19.125,5.24219 z m 78.785155,68.17969 c 0.33203,0.64843 0.72656,1.32422 1.01953,1.96484 2.63281,5.75391 3.66016,10.98047 2.64844,15.3125 -3.89453,-0.19922 -7.76172,-0.50781 -11.58984,-1.01172 -8.26954,-4.27734 -16.53125,-9.29297 -24.61329,-14.90234 10.4961,0.85156 21.44141,0.30469 32.53907,-1.36328 z M 90.535156,236.96875 c 0.04297,7.73437 0.671875,15.20703 1.929688,22.30859 -3.003906,-3.13281 -5.953125,-6.27343 -8.757813,-9.45703 1.90625,-4.08203 4.1875,-8.37109 6.828125,-12.85156 z M 52.300781,206.44141 c 1.167969,2.26953 2.425781,4.57421 3.777344,6.90625 2.039063,3.50781 4.347656,7.09375 6.777344,10.70312 -2.328125,1.37891 -4.039063,3.55859 -4.941407,6.60547 -0.457031,1.53125 -0.695312,3.28125 -0.742187,5.25781 -2.234375,-4.39062 -4.199219,-8.83984 -5.847656,-13.33203 -0.238281,-5.28516 0.140625,-10.69531 0.976562,-16.14062 z m 15.679688,16.625 c 0.8125,3.71484 1.769531,7.38281 2.847656,11.00781 -2.480469,-3.27735 -4.777344,-6.53516 -6.976563,-9.77344 1.214844,-0.60937 2.597657,-1.01562 4.128907,-1.23437 z m 105.093751,91.16796 c -0.31641,1.08985 -0.7461,2.12891 -1.34375,3.08985 -0.35156,-0.15235 -0.69922,-0.26953 -1.05078,-0.42188 -2.35157,-1.05468 -4.71875,-2.21875 -7.07422,-3.40234 3.1289,0.36719 6.29297,0.57031 9.46875,0.73437 z m 9.39062,7.98829 c -6.97265,2.43359 -13.9375,3.98437 -20.75781,4.27734 l -0.66797,0.008 c -0.73437,-0.25 -1.46484,-0.54297 -2.19531,-0.80469 6.46484,-1.48046 10.74219,-4.07031 13.12891,-7.55078 3.50781,1.52344 7.01171,2.85938 10.49218,4.07032 z M 63.222656,224.60547 c 2.515625,3.70703 5.191406,7.43359 8.078125,11.1914 2.292969,7.39063 5.144531,14.54297 8.582031,21.35938 -1.011718,2.74219 -1.867187,5.38672 -2.433593,7.85156 -8.03125,-8.78515 -14.519531,-18.09765 -19.570313,-27.72265 -0.0625,-2.48438 0.152344,-4.64454 0.679688,-6.42969 0.867187,-2.92578 2.464844,-4.95703 4.664062,-6.25 z m 108.097654,93.27734 c -2.40234,3.42188 -6.76953,6.01172 -13.62109,7.40235 -12.91016,-4.81641 -25.5586,-12.25782 -37.49219,-22.58594 0.67969,-0.42969 1.33203,-0.80469 2.03906,-1.28906 12.14063,6.11328 25.44532,9.96093 39.27344,11.79687 2.96094,1.52734 5.92969,2.97656 8.89063,4.30078 0.30468,0.13672 0.60546,0.24219 0.91015,0.375 z m 15.80078,14.58985 c -12.64062,-0.16407 -25.30468,-1.98829 -37.64453,-5.48047 l 0.0352,-0.0156 c 0.82812,-0.0469 1.57422,-0.13672 2.35156,-0.20703 3.02344,0.375 6.08984,0.5 9.18359,0.40234 8.64454,2.89063 17.38282,4.6211 26.07032,5.29688 z M 72.46875,237.29687 c 3.28125,4.20704 6.746094,8.41797 10.421875,12.60547 -1.019531,2.20313 -1.882813,4.32032 -2.671875,6.39063 -3.035156,-6.09375 -5.628906,-12.44141 -7.75,-18.9961 z m 87.35547,75.00391 c -13.00391,-1.89844 -25.4961,-5.61328 -36.96094,-11.33594 1.82813,-1.26953 3.76563,-2.73047 5.76953,-4.33984 2.34375,0.36328 4.71875,0.65234 7.10938,0.87109 7.90625,5.53907 15.97265,10.51563 24.08203,14.80469 z M 83.390625,250.47656 c 2.980469,3.375 6.113281,6.70703 9.316406,10.01953 1.769531,9.375 4.675781,18.06641 8.835939,25.80469 l -0.62891,-0.44922 c -8.199216,-8.49609 -14.933591,-18.20312 -20.269529,-28.73437 0.796875,-2.14063 1.691407,-4.34375 2.746094,-6.63672 z M 51.492188,224.76953 c 1.640624,4.25781 3.546874,8.47266 5.71875,12.62891 0.121093,4.57812 1.421874,10.43359 3.792968,17.41015 -5.257812,-8.625 -8.332031,-18.02734 -9.363281,-27.88281 -0.07422,-0.71484 -0.09766,-1.4375 -0.148437,-2.15625 z m 42.074218,36.63281 c 3.527344,3.61328 7.136724,7.19532 10.886724,10.6836 l 2.54296,2.28906 c -1.95312,4.98437 -3.33203,9.35547 -3.97656,12.93359 -0.0781,-0.0547 -0.16015,-0.10156 -0.23828,-0.15625 -4.3125,-7.67578 -7.347656,-16.35156 -9.210938,-25.75 z m 41.101564,35.31641 c -1.79688,-0.18359 -3.57422,-0.41016 -5.34375,-0.67578 0.68359,-0.55469 1.36719,-1.09375 2.0664,-1.6836 z m -3.84375,-2.77734 c -0.81641,0.6875 -1.625,1.32812 -2.41406,1.96484 -7.53516,-1.19922 -14.76563,-3.16797 -21.58985,-5.96875 -0.85156,-0.56641 -1.66797,-1.14844 -2.5,-1.72266 l 0.0937,-0.008 c 0.0156,-0.004 0.0234,-0.0117 0.0352,-0.0156 4.37891,-0.33985 9.30859,-1.50391 14.64062,-3.33985 3.84766,3.14844 7.76172,6.17188 11.73438,9.08985 z m -23.30078,-19.09766 c 3.57812,3.24609 7.23437,6.42578 10.96484,9.49609 -5.16406,1.76172 -9.90234,2.86719 -14.11719,3.19141 h -0.0234 l -0.0117,-0.008 c -0.25391,0.0391 -0.44531,0.0273 -0.69922,0.0703 0.61328,-3.48828 1.95312,-7.8125 3.88672,-12.75 z m 20.19531,21.64453 c -1.92578,1.53125 -3.77734,2.92188 -5.52734,4.12891 -3.8125,-1.9375 -7.50782,-4.10938 -11.06641,-6.5 -0.91016,-0.9336 -1.82422,-1.86719 -2.71875,-2.83594 6.15234,2.37109 12.60938,4.10156 19.3125,5.20703 z M 57.929688,238.80469 c 5.054687,9.38672 11.488281,18.45703 19.371093,27.02343 -0.503906,2.38672 -0.796875,4.63672 -0.835937,6.71875 -5.574219,-4.64453 -10.171875,-9.71875 -13.832032,-15.14453 -2.753906,-7.48047 -4.351562,-13.74218 -4.699218,-18.59765 z m 22.363281,19.16406 c 4.730469,9.21484 10.527343,17.78516 17.449219,25.48047 -7.378907,-5.6211 -13.953126,-11.58594 -19.734376,-17.83594 0.01953,-0.0859 0.01953,-0.16016 0.03906,-0.25 0.523437,-2.32031 1.316406,-4.8125 2.246094,-7.39453 z m 78.925781,68.55859 c -1.37891,0.004 -2.74609,-0.043 -4.10938,-0.13672 0.88672,-0.1289 1.78125,-0.2539 2.59766,-0.41796 z M 156.39453,325.5 c -1.39453,0.24219 -2.89062,0.4375 -4.47656,0.58594 -13.54688,-1.66797 -26.21875,-8.20313 -36.89844,-20.53516 0.70703,-0.32812 1.36719,-0.57031 2.1211,-0.97656 0.78125,-0.42188 1.64453,-1.00781 2.47656,-1.51563 11.70312,10.16016 24.10547,17.57422 36.77734,22.44141 z m -34.80859,-24.42969 c -0.66797,0.45313 -1.26953,0.75781 -1.90625,1.16016 -2.11328,-1.84766 -4.19922,-3.76563 -6.26172,-5.79297 2.65625,1.67187 5.37891,3.20703 8.16797,4.63281 z m -14.35938,-10.03906 0.0664,0.0547 1.18359,1.25 c -0.94531,-0.67969 -1.84375,-1.41797 -2.76953,-2.12891 0.25,0.10547 0.51172,0.1875 0.76172,0.29297 0.26172,0.17187 0.49609,0.35937 0.75781,0.53125 z M 77.875,266.47266 c 6.53125,7.00781 14.035156,13.67187 22.57813,19.87109 0.42187,0.44141 0.85156,0.87891 1.28515,1.3125 -0.5,-0.24609 -1.01562,-0.45703 -1.51172,-0.71094 l -0.0117,-0.008 c -9.042965,-3.95703 -16.691402,-8.62891 -23.101559,-13.86328 0,-2.01953 0.292969,-4.2461 0.761719,-6.60156 z m 25.74609,22.07421 c -0.0312,-0.0156 -0.0664,-0.0273 -0.0977,-0.0391 l -0.0312,-0.0469 z m 7.09375,6.10157 c 2.74219,2.8164 5.53125,5.46875 8.36329,7.95312 -0.75,0.45703 -1.53907,0.9961 -2.2461,1.37891 -0.80469,0.4375 -1.51562,0.69922 -2.26172,1.03515 -3.66015,-4.30078 -7.07812,-9.28906 -10.21093,-15.00781 2.0625,1.63672 4.18359,3.17969 6.35546,4.64063 z m -7.98828,-5.80078 c -0.82812,4.22656 -1.19531,7.75 -1.01953,10.48437 0.0977,1.51953 0.35547,2.82422 0.75,3.91406 -0.86719,-0.66797 -1.7539,-1.30078 -2.605468,-1.98437 -5.75,-4.61328 -11.195312,-9.55078 -16.128906,-14.53906 4.171875,2.20312 10.210938,2.875 18.312504,1.80078 z m 0.57813,0.64062 c 3.24609,6.05078 6.8125,11.29297 10.64453,15.81641 -1.71875,0.72265 -3.32422,1.26562 -4.67188,1.41406 -0.89062,0.0977 -1.66406,0.0547 -2.3789,-0.10156 -1.11328,-0.80469 -2.19922,-1.65235 -3.30078,-2.48828 -0.66016,-1.17579 -1.08985,-2.75391 -1.22266,-4.82813 -0.16406,-2.53125 0.1875,-5.87109 0.92969,-9.8125 z m 42.52734,36.19922 c -0.55469,-0.10547 -1.08594,-0.15234 -1.65234,-0.27734 l -2.625,-0.90235 c 1.41015,0.45703 2.84375,0.83985 4.27734,1.17969 z m -45.13672,-37.79297 c -9.183591,1.01563 -15.550779,-0.26172 -19.234372,-3.53125 -0.585938,-0.61328 -1.15625,-1.21875 -1.722657,-1.83203 -1.65625,-2.27734 -2.511719,-5.1875 -2.628906,-8.62109 6.367187,5.13671 13.917969,9.74218 22.808594,13.63281 l 0.03516,0.008 z M 59.929688,254.33594 c 0.667968,1.13281 1.339843,2.25 2.082031,3.35547 0.175781,0.47265 0.296875,0.89062 0.480469,1.375 -0.894532,-1.5625 -1.730469,-3.14063 -2.5625,-4.73047 z m 80.132812,69.65234 c -8.00391,-2.86719 -15.8125,-6.48047 -23.35547,-10.8125 -2.89844,-1.79687 -5.78906,-3.71094 -8.64844,-5.75 0.41407,0.0117 0.83594,0.0156 1.28125,-0.0352 1.49219,-0.16406 3.22266,-0.76171 5.0586,-1.55078 7.66015,8.87891 16.35156,14.83203 25.66406,18.14844 z m -76.667969,-64.375 c 3.554688,4.91016 7.886719,9.52344 13.039063,13.76563 0.03516,2.66796 0.507812,5.04687 1.410156,7.10156 -3.105469,-3.49219 -5.886719,-6.95313 -8.253906,-10.28125 -0.3125,-0.44531 -0.601563,-0.89844 -0.90625,-1.34375 -2.035156,-2.97656 -3.777344,-5.85547 -5.042969,-8.52735 0,-0.008 0.0039,-0.0156 0,-0.0234 -0.101563,-0.25 -0.148437,-0.44532 -0.246094,-0.69141 z m 0,0"
                   fill-opacity="1"
                   fill-rule="evenodd"
                   id="path27" />
              </g>
            </g>
          </g>
        </g>
      </g>
    </g>
  </g>
  <g
     fill="#000000"
     fill-opacity="1"
     id="g36">
    <g
       transform="translate(312.71695,243.24653)"
       id="g35">
      <g
         id="g34">
        <path
           d="m -52.078125,9.515625 c 2.324219,-3.210937 3.996094,-6.578125 5.015625,-10.109375 1.011719,-3.539062 1.421875,-7.09375 1.234375,-10.65625 -0.195313,-3.5625 -0.972656,-7.003906 -2.328125,-10.328125 C -49.519531,-24.898438 -51.507812,-28 -54.125,-30.875 c -5.15625,-5.6875 -11.304688,-9.082031 -18.453125,-10.1875 -7.144531,-1.113281 -14.367187,0.246094 -21.671875,4.078125 l -14.9375,-16.484375 c 5.77344,-3.988281 11.871094,-6.785156 18.296875,-8.390625 6.417969,-1.601563 12.792969,-2.066406 19.125,-1.390625 6.335937,0.667969 12.417969,2.464844 18.25,5.390625 5.835937,2.929687 11.054687,6.933594 15.65625,12.015625 4.617187,5.074219 8.09375,10.695312 10.4375,16.859375 2.34375,6.15625 3.542969,12.464844 3.59375,18.921875 0.04297,6.449219 -1.050781,12.785156 -3.28125,19.015625 C -29.335938,15.179688 -32.675781,20.863281 -37.125,26 Z m 5.75,24.84375 c -5.550781,3.9375 -11.53125,6.703125 -17.9375,8.296875 -6.414063,1.601562 -12.828125,2.066406 -19.234375,1.390625 -6.414062,-0.679687 -12.578125,-2.480469 -18.48438,-5.40625 -5.91406,-2.929687 -11.17968,-6.929687 -15.79687,-12 -4.60156,-5.085937 -8.07813,-10.671875 -10.42187,-16.765625 -2.34375,-6.09375 -3.53516,-12.320312 -3.57813,-18.6875 -0.0508,-6.375 1.03906,-12.679688 3.26563,-18.921875 2.21874,-6.238281 5.59374,-12.03125 10.12499,-17.375 l 14.9375,16.484375 c -4.53125,6.886719 -6.59375,13.945312 -6.1875,21.171875 0.40625,7.21875 3.1875,13.671875 8.34375,19.359375 2.617192,2.875 5.511724,5.144531 8.687505,6.8125 3.179687,1.675781 6.53125,2.785156 10.0625,3.328125 3.523437,0.539063 7.109375,0.460937 10.765625,-0.234375 3.648438,-0.6875 7.148438,-2 10.5,-3.9375 z m 0,0"
           id="path33" />
      </g>
    </g>
  </g>
  <g
     fill="#000000"
     fill-opacity="1"
     id="g39">
    <g
       transform="translate(98.897004,183.40614)"
       id="g38">
      <g
         id="g37">
        <path
           d="m 9.765625,-97.5625 h 21 V 0 h -21 z m 65.046875,0 h 21 V 0 h -21 z m -35.578125,38.5 h 27.125 v 20.40625 h -27.125 z m 0,0"
           id="path36" />
      </g>
    </g>
  </g>
  <g
     mask="url(#f8987eab44)"
     id="g48">
    <g
       transform="translate(48,72)"
       id="g47">
      <g
         clip-path="url(#d5e6ea4b5d)"
         id="g46">
        <g
           clip-path="url(#20578f8ff7)"
           id="g42">
          <g
             clip-path="url(#a3504a28fe)"
             id="g41">
            <g
               clip-path="url(#b2be0fb52e)"
               id="g40">
              <path
                 fill="#000000"
                 d="m 266.99609,190.19531 -137.03515,-53.78515 -3.34375,-1.3086 -16.47266,-6.46875 14.58203,8.21485 -2.64062,2.4375 c -0.71485,0.65234 -1.78906,0.73046 -2.58985,0.1875 l -2.41406,-1.65235 c -7.92969,-5.42578 -18.839842,-1.41015 -21.359374,7.86328 L 94.957031,148.5 c -0.257812,0.9375 -1.125,1.57422 -2.09375,1.53516 l -19.933593,-0.80079 c -0.96875,-0.0391 -1.78125,-0.73828 -1.960938,-1.69531 l -0.539062,-2.875 c -1.769532,-9.4414 -12.324219,-14.32031 -20.660157,-9.54687 l -2.539062,1.44922 c -0.84375,0.48828 -1.90625,0.32031 -2.5625,-0.38672 L 31.140625,121.51563 c -0.65625,-0.71485 -0.734375,-1.78516 -0.191406,-2.58594 l 1.652343,-2.41406 c 5.425782,-7.92969 1.410157,-18.839849 -7.855468,-21.363286 l -2.824219,-0.765625 c -0.9375,-0.253907 -1.570313,-1.121094 -1.53125,-2.089844 L 21.1875,72.363281 c 0.03906,-0.96875 0.742188,-1.785156 1.691406,-1.960937 l 2.878906,-0.539063 C 35.199219,68.09375 40.078125,57.539062 35.308594,49.195312 l -1.457032,-2.53125 C 33.375,45.820312 33.539062,44.761719 34.25,44.097656 L 48.90625,30.574219 c 0.714844,-0.664063 1.792969,-0.738281 2.585938,-0.191407 l 2.414062,1.648438 c 7.929688,5.425781 18.839844,1.410156 21.363281,-7.859375 l 0.773438,-2.820313 c 0.246093,-0.933593 1.121093,-1.570312 2.089843,-1.53125 L 98.0625,20.621094 c 0.96875,0.04297 1.78125,0.742187 1.96094,1.695312 l 0.53515,2.875 c 1.77344,9.441406 12.32813,14.3125 20.66797,9.546875 l 2.53125,-1.453125 c 0.84766,-0.480468 1.91016,-0.316406 2.56641,0.394532 l 13.52344,14.660156 c 0.66406,0.714844 0.74218,1.785156 0.1914,2.585937 l -1.65234,2.410157 c -5.42578,7.933593 -1.40625,18.84375 7.86328,21.367187 l 2.82422,0.765625 c 0.93359,0.257812 1.5664,1.121094 1.52734,2.089844 L 150.37891,83 c 0.0117,-0.08984 -13.69922,-5.402344 -14.19141,-5.589844 l 13.17969,7.765625 0.90625,0.53125 69.125,40.722659 -97.71485,-45.472659 C 121.08984,75.453125 119.26172,70.304688 116.46875,65.792969 110.32031,55.859375 99.511719,49.054688 86.957031,48.550781 66.871094,47.746094 49.929688,63.378906 49.121094,83.460938 48.3125,103.55469 63.949219,120.5 84.035156,121.30469 c 2.242188,0.0898 4.441406,-0.0234 6.585938,-0.33203 5.527344,-0.77735 10.683596,-2.80469 15.140626,-5.80469 l 161.23437,75.02734"
                 fill-opacity="1"
                 fill-rule="nonzero"
                 id="path39" />
            </g>
          </g>
        </g>
        <g
           clip-path="url(#6fa84e703f)"
           id="g45">
          <g
             clip-path="url(#a5beb38e36)"
             id="g44">
            <g
               clip-path="url(#ade21180a7)"
               id="g43">
              <path
                 fill="#000000"
                 d="m 74.917969,113.9375 c -0.796875,-0.29687 -1.589844,-0.625 -2.371094,-0.98828 -15.585937,-7.25391 -22.34375,-25.765626 -15.089844,-41.347658 7.25,-15.585937 25.761719,-22.339843 41.351563,-15.085937 0.78125,0.363281 1.542966,0.757813 2.281246,1.175781 C 86.042969,52.125 68.992188,58.964844 62.105469,73.765625 55.21875,88.5625 60.96875,106.01172 74.917969,113.9375"
                 fill-opacity="1"
                 fill-rule="nonzero"
                 id="path42" />
            </g>
          </g>
        </g>
      </g>
    </g>
  </g>
  <g
     mask="url(#ad6ea24108)"
     id="g66">
    <g
       transform="translate(113,132)"
       id="g65">
      <g
         clip-path="url(#13184ece7b)"
         id="g64">
        <g
           clip-path="url(#7be4e09063)"
           id="g51">
          <g
             clip-path="url(#4d316fe151)"
             id="g50">
            <g
               clip-path="url(#5adc928e44)"
               id="g49">
              <path
                 fill="#000000"
                 d="m 27.210938,32.960938 c -8.136719,-1.042969 -30.574219,0.855468 -24.980469,7.988281 0.3125,0.398437 0.789062,0.871093 1.183593,1.1875 0.375,0.300781 2.324219,1.777343 3.816407,1.1875 11.789062,-6.949219 32.285156,-1.835938 30.820312,5.4375 -0.484375,2.382812 -3.179687,4.191406 -6.09375,5.3125 0.0039,0.01563 0,0.03516 0.0039,0.04687 0.917968,-0.300782 1.210937,-0.414063 2.089843,-0.769532 2.117188,-0.941406 2.332031,-1.039062 3.753907,-1.828124 0.960937,-0.582032 2.222656,-1.378907 3.144531,-2.011719 9.167969,-7.15625 0.136719,-14.773438 -13.738281,-16.550781"
                 fill-opacity="1"
                 fill-rule="evenodd"
                 id="path48" />
            </g>
          </g>
        </g>
        <g
           clip-path="url(#5c158b6fdb)"
           id="g54">
          <g
             clip-path="url(#f7a38d2693)"
             id="g53">
            <g
               clip-path="url(#4054d65b4c)"
               id="g52">
              <path
                 fill="#000000"
                 d="m 8.84375,29.441406 c 23.855469,-4.425781 43.910156,5.585938 38.175781,15.246094 0.01953,0.01953 0.04297,0.03516 0.06641,0.05469 1.28125,-1.652344 2.273437,-3.074219 3.652343,-5.761719 l 0.566407,-1.203125 C 57.308594,21.308594 17.253906,16.929688 6.296875,21.523438 c -2.378906,0.996093 -3.425781,3.5625 -2.320313,5.71875 0.496094,0.976562 1.796876,2.558593 4.867188,2.199218"
                 fill-opacity="1"
                 fill-rule="evenodd"
                 id="path51" />
            </g>
          </g>
        </g>
        <g
           clip-path="url(#4328b3f86f)"
           id="g57">
          <g
             clip-path="url(#eb5126572c)"
             id="g56">
            <g
               clip-path="url(#4c84f27247)"
               id="g55">
              <path
                 fill="#000000"
                 d="m 31.285156,16.425781 c 2.734375,0.488281 5.332032,1.144531 7.71875,1.953125 2.375,0.804688 4.550782,1.761719 6.4375,2.855469 1.886719,1.089844 3.480469,2.320313 4.722656,3.671875 0.582032,0.628906 1.0625,1.265625 1.449219,1.90625 0.398438,0.636719 0.691407,1.285156 0.902344,1.929688 0.210937,0.644531 0.328125,1.289062 0.363281,1.929687 0.01563,0.269531 0.0039,0.535156 -0.01563,0.800781 0.01172,0 0.02344,0.0078 0.04297,0.01172 0.367188,-2.296875 0.453125,-3.121094 0.511719,-5.734375 -0.04297,-0.925781 -0.0625,-2.164062 -0.140625,-3.089844 -0.335938,-1.875 -1.339844,-7.585937 -13.34375,-11.964844 -0.1875,-0.06641 -18.863282,-6.457031 -22,-0.921874 -0.375,0.664062 -0.507813,1.660156 -0.316406,2.371093 0.226562,0.839844 1.175781,2.847657 5.136718,3.328125 2.933594,0.140625 5.800782,0.464844 8.53125,0.953125"
                 fill-opacity="1"
                 fill-rule="evenodd"
                 id="path54" />
            </g>
          </g>
        </g>
        <g
           clip-path="url(#7f726a332e)"
           id="g60">
          <g
             clip-path="url(#55137237d9)"
             id="g59">
            <g
               clip-path="url(#a156bcb181)"
               id="g58">
              <path
                 fill="#000000"
                 d="m 38.226562,6.640625 c 1.21875,0.398437 2.386719,0.835937 3.496094,1.316406 1.101563,0.476563 2.140625,0.992188 3.105469,1.542969 0.964844,0.550781 1.855469,1.140625 2.660156,1.761719 0.804688,0.625 1.53125,1.277343 2.160157,1.964843 0.28125,0.308594 0.539062,0.621094 0.773437,0.929688 0.238281,0.3125 0.453125,0.625 0.636719,0.941406 0.04297,0.07031 0.07422,0.144532 0.121094,0.21875 0.0039,-0.121094 -1.347657,-3.488281 -2.566407,-5.554687 -0.753906,-1.285157 -1.507812,-2.59375 -3.890625,-4.5 -0.714844,-0.578125 -1.53125,-1.09375 -2.390625,-1.589844 -0.878906,-0.5 -1.8125,-0.960937 -2.800781,-1.394531 -0.996094,-0.429688 -2.046875,-0.824219 -3.144531,-1.1875 -3.703125,-0.964844 -3.332031,1.171875 -2.90625,1.996094 0.253906,0.503906 1.355469,2.246093 4.746093,3.554687"
                 fill-opacity="1"
                 fill-rule="evenodd"
                 id="path57" />
            </g>
          </g>
        </g>
        <g
           clip-path="url(#d429506cb7)"
           id="g63">
          <g
             clip-path="url(#99df4002ad)"
             id="g62">
            <g
               clip-path="url(#7c7b7a630e)"
               id="g61">
              <path
                 fill="#000000"
                 d="m 22.808594,44.839844 c -5.253906,-0.535156 -19.648438,1.046875 -15.9375,5.542968 0.207031,0.253907 0.523437,0.546876 0.78125,0.746094 0.246094,0.1875 1.523437,1.105469 2.472656,0.703125 10.429688,-6.511719 24.539062,-0.390625 12.773438,4.480469 0,0.01172 0,0.02344 0,0.03125 12.578124,-4.457031 12.609374,-10.195312 -0.08984,-11.503906"
                 fill-opacity="1"
                 fill-rule="evenodd"
                 id="path60" />
            </g>
          </g>
        </g>
      </g>
    </g>
  </g>
  <path
     fill="#000000"
     d="M 187.5,0 C 83.90625,0 0,83.90625 0,187.5 0,291.09375 83.90625,375 187.5,375 291.09375,375 375,291.09375 375,187.5 375,83.90625 291.09375,0 187.5,0 Z m 0,337.5 c -82.875,0 -150,-67.125 -150,-150 0,-82.875 67.125,-150 150,-150 82.875,0 150,67.125 150,150 0,82.875 -67.125,150 -150,150 z m 0,0"
     fill-opacity="1"
     fill-rule="nonzero"
     id="path66" />
</svg>
