<svg xmlns="http://www.w3.org/2000/svg" xmlns:xlink="http://www.w3.org/1999/xlink" width="500" zoomAndPan="magnify" viewBox="0 0 375 374.999991" height="500" preserveAspectRatio="xMidYMid meet" version="1.0"><defs><filter x="0%" y="0%" width="100%" height="100%" id="98fb36695f"><feColorMatrix values="0 0 0 0 1 0 0 0 0 1 0 0 0 0 1 0 0 0 1 0" color-interpolation-filters="sRGB"/></filter><g/><mask id="7caadd8e3e"><g filter="url(#98fb36695f)"><rect x="-37.5" width="450" fill="#000000" y="-37.499999" height="449.999989" fill-opacity="0.5"/></g></mask><clipPath id="a19c5a8f34"><path d="M 42 44 L 333 44 L 333 334 L 42 334 Z M 42 44 " clip-rule="nonzero"/></clipPath><clipPath id="8c00a9d333"><path d="M 169.199219 -14.949219 L 391.140625 173.261719 L 205.355469 392.339844 L -16.585938 204.132812 Z M 169.199219 -14.949219 " clip-rule="nonzero"/></clipPath><clipPath id="58346ee637"><path d="M 169.199219 -14.949219 L 391.140625 173.261719 L 205.355469 392.339844 L -16.585938 204.132812 Z M 169.199219 -14.949219 " clip-rule="nonzero"/></clipPath><clipPath id="46176effc4"><rect x="0" width="375" y="0" height="375"/></clipPath><mask id="59b90d766b"><g filter="url(#98fb36695f)"><rect x="-37.5" width="450" fill="#000000" y="-37.499999" height="449.999989" fill-opacity="0.5"/></g></mask><clipPath id="4b93e7b777"><path d="M 20 19 L 267 19 L 267 191 L 20 191 Z M 20 19 " clip-rule="nonzero"/></clipPath><clipPath id="bd45e14fea"><path d="M 54.316406 -0.234375 L 301.832031 114.941406 L 247.722656 231.21875 L 0.210938 116.042969 Z M 54.316406 -0.234375 " clip-rule="nonzero"/></clipPath><clipPath id="8eba1a5683"><path d="M 54.316406 -0.234375 L 301.832031 114.941406 L 247.722656 231.21875 L 0.210938 116.042969 Z M 54.316406 -0.234375 " clip-rule="nonzero"/></clipPath><clipPath id="416a8100b9"><path d="M 54 53 L 102 53 L 102 114 L 54 114 Z M 54 53 " clip-rule="nonzero"/></clipPath><clipPath id="de9a889541"><path d="M 54.316406 -0.234375 L 301.832031 114.941406 L 247.722656 231.21875 L 0.210938 116.042969 Z M 54.316406 -0.234375 " clip-rule="nonzero"/></clipPath><clipPath id="67afb7bec0"><path d="M 54.316406 -0.234375 L 301.832031 114.941406 L 247.722656 231.21875 L 0.210938 116.042969 Z M 54.316406 -0.234375 " clip-rule="nonzero"/></clipPath><clipPath id="b01bf8a9b3"><rect x="0" width="303" y="0" height="232"/></clipPath><mask id="14db097aba"><g filter="url(#98fb36695f)"><rect x="-37.5" width="450" fill="#000000" y="-37.499999" height="449.999989" fill-opacity="0.5"/></g></mask><clipPath id="0924eb18c5"><path d="M 1 32 L 45 32 L 45 55 L 1 55 Z M 1 32 " clip-rule="nonzero"/></clipPath><clipPath id="ae817a7f90"><path d="M -3.824219 0.609375 L 56.921875 -0.203125 L 57.671875 56.042969 L -3.070312 56.855469 Z M -3.824219 0.609375 " clip-rule="nonzero"/></clipPath><clipPath id="9cc45d3ec6"><path d="M -3.824219 0.609375 L 56.921875 -0.203125 L 57.671875 56.042969 L -3.070312 56.855469 Z M -3.824219 0.609375 " clip-rule="nonzero"/></clipPath><clipPath id="5c6a7f4179"><path d="M 3 19 L 52 19 L 52 45 L 3 45 Z M 3 19 " clip-rule="nonzero"/></clipPath><clipPath id="1686151444"><path d="M -3.824219 0.609375 L 56.921875 -0.203125 L 57.671875 56.042969 L -3.070312 56.855469 Z M -3.824219 0.609375 " clip-rule="nonzero"/></clipPath><clipPath id="ef1c12595d"><path d="M -3.824219 0.609375 L 56.921875 -0.203125 L 57.671875 56.042969 L -3.070312 56.855469 Z M -3.824219 0.609375 " clip-rule="nonzero"/></clipPath><clipPath id="de025903c1"><path d="M 17 7 L 54 7 L 54 32 L 17 32 Z M 17 7 " clip-rule="nonzero"/></clipPath><clipPath id="938f3b453d"><path d="M -3.824219 0.609375 L 56.921875 -0.203125 L 57.671875 56.042969 L -3.070312 56.855469 Z M -3.824219 0.609375 " clip-rule="nonzero"/></clipPath><clipPath id="6fb931583b"><path d="M -3.824219 0.609375 L 56.921875 -0.203125 L 57.671875 56.042969 L -3.070312 56.855469 Z M -3.824219 0.609375 " clip-rule="nonzero"/></clipPath><clipPath id="0ad17acf45"><path d="M 33 0.238281 L 52 0.238281 L 52 16 L 33 16 Z M 33 0.238281 " clip-rule="nonzero"/></clipPath><clipPath id="fe8f328a83"><path d="M -3.824219 0.609375 L 56.921875 -0.203125 L 57.671875 56.042969 L -3.070312 56.855469 Z M -3.824219 0.609375 " clip-rule="nonzero"/></clipPath><clipPath id="231f0e449e"><path d="M -3.824219 0.609375 L 56.921875 -0.203125 L 57.671875 56.042969 L -3.070312 56.855469 Z M -3.824219 0.609375 " clip-rule="nonzero"/></clipPath><clipPath id="04399ad54e"><path d="M 6 44 L 33 44 L 33 56.640625 L 6 56.640625 Z M 6 44 " clip-rule="nonzero"/></clipPath><clipPath id="1b0f42fb09"><path d="M -3.824219 0.609375 L 56.921875 -0.203125 L 57.671875 56.042969 L -3.070312 56.855469 Z M -3.824219 0.609375 " clip-rule="nonzero"/></clipPath><clipPath id="c2b591f57a"><path d="M -3.824219 0.609375 L 56.921875 -0.203125 L 57.671875 56.042969 L -3.070312 56.855469 Z M -3.824219 0.609375 " clip-rule="nonzero"/></clipPath><clipPath id="61e353bfdf"><rect x="0" width="55" y="0" height="57"/></clipPath></defs><g mask="url(#7caadd8e3e)"><g transform="matrix(1, 0, 0, 1, 0, 0)"><g clip-path="url(#46176effc4)"><g clip-path="url(#a19c5a8f34)"><g clip-path="url(#8c00a9d333)"><g clip-path="url(#58346ee637)"><path fill="#ffffff" d="M 280.316406 79.347656 C 276.285156 75.933594 272.117188 72.785156 267.851562 69.878906 C 256.871094 61.996094 245.964844 56.015625 237.28125 53.53125 L 237.246094 53.523438 L 237.234375 53.511719 C 236.804688 53.460938 236.476562 53.46875 236.058594 53.417969 C 231.816406 51.5 227.539062 50.167969 223.242188 49.398438 C 171.335938 35.53125 114.128906 50.992188 77.214844 93.84375 L 77.078125 93.929688 L 77.023438 93.992188 C 76.910156 94.125 76.828125 94.277344 76.714844 94.410156 C 76.636719 94.5 76.550781 94.578125 76.472656 94.667969 C 58.457031 115.914062 47.816406 140.96875 44.210938 166.773438 C 43.214844 169.886719 42.878906 173.394531 43.128906 177.238281 C 40.996094 209.652344 49.835938 242.601562 69.09375 270.191406 C 76.210938 280.382812 84.722656 289.847656 94.660156 298.273438 C 98.035156 301.136719 101.515625 303.796875 105.0625 306.304688 C 105.183594 306.386719 105.292969 306.488281 105.417969 306.5625 C 109.378906 309.34375 113.429688 311.90625 117.570312 314.246094 C 126.707031 319.828125 135.882812 324.070312 144.195312 325.972656 C 162.597656 331.96875 181.839844 334.195312 200.75 332.722656 L 200.914062 332.707031 C 210.683594 332.261719 220.28125 330.480469 229.519531 327.507812 C 255.589844 320.007812 279.730469 305.085938 298.496094 282.953125 C 318.625 259.21875 329.558594 230.738281 331.738281 201.75 L 331.808594 200.734375 C 333.632812 173.945312 327.976562 146.785156 315.125 122.566406 C 315.117188 122.550781 315.105469 122.535156 315.097656 122.519531 C 310.972656 112.53125 302.929688 101.804688 293.25 91.796875 C 289.230469 87.453125 284.941406 83.277344 280.3125 79.351562 Z M 277.5 78.125 C 279.511719 79.789062 281.515625 81.503906 283.472656 83.257812 C 286.316406 85.808594 289.046875 88.460938 291.699219 91.160156 C 292.144531 91.632812 292.566406 92.121094 293.007812 92.597656 C 289.082031 89.9375 283.164062 88.609375 275.3125 88.621094 C 275.277344 88.601562 275.246094 88.578125 275.210938 88.558594 C 274.914062 88.117188 274.652344 87.675781 274.351562 87.234375 L 274.308594 87.15625 L 274.234375 87.113281 L 272.925781 86.425781 C 273.082031 83.019531 273.007812 80.011719 272.488281 77.777344 C 271.945312 75.433594 271.03125 73.683594 269.773438 72.542969 C 269.351562 72.164062 268.890625 71.84375 268.394531 71.597656 C 266.417969 70.605469 263.921875 70.691406 261.015625 71.65625 C 260.824219 71.71875 260.601562 71.863281 260.40625 71.929688 C 257.542969 68.769531 254.65625 65.859375 251.722656 63.378906 C 248.621094 60.757812 245.476562 58.617188 242.3125 56.71875 C 251.183594 60.488281 259.769531 65.171875 267.960938 70.808594 L 268.0625 70.871094 C 271.222656 73.160156 274.382812 75.554688 277.5 78.125 Z M 269.324219 73.042969 C 270.460938 74.074219 271.3125 75.671875 271.835938 77.925781 C 272.320312 80.007812 272.40625 82.867188 272.28125 86.097656 C 271.808594 85.84375 271.34375 85.613281 270.875 85.367188 C 267.609375 80.554688 264.28125 76.25 260.890625 72.453125 C 260.996094 72.414062 261.117188 72.328125 261.222656 72.292969 C 264.027344 71.363281 266.339844 71.320312 268.101562 72.203125 C 268.539062 72.425781 268.945312 72.703125 269.324219 73.042969 Z M 294.109375 94.261719 C 294.714844 94.789062 295.242188 95.359375 295.726562 95.960938 C 297.792969 98.539062 298.78125 101.820312 298.835938 105.664062 C 298.335938 105.210938 297.914062 104.746094 297.402344 104.292969 C 291.480469 99.082031 284.472656 94.078125 276.441406 89.292969 C 284.667969 89.433594 290.542969 91.136719 294.109375 94.261719 Z M 297.820312 98.089844 C 304.328125 105.90625 309.917969 114.253906 314.558594 123.003906 C 314.855469 123.738281 315.039062 124.445312 315.296875 125.171875 C 311.328125 118.6875 306.027344 112.378906 299.484375 106.304688 C 299.519531 103.222656 298.992188 100.460938 297.820312 98.089844 Z M 246.945312 58.03125 C 246.414062 57.78125 245.882812 57.53125 245.347656 57.292969 C 245.878906 57.53125 246.40625 57.773438 246.945312 58.03125 Z M 251.3125 63.890625 C 254.167969 66.308594 256.976562 69.152344 259.765625 72.222656 C 258.261719 72.820312 256.660156 73.613281 254.957031 74.621094 C 241 65.449219 227.667969 58.746094 214.988281 54.175781 C 220.152344 53.171875 227.042969 53.117188 235.636719 54.074219 C 236.144531 54.261719 236.65625 54.449219 237.160156 54.640625 C 241.933594 56.953125 246.660156 59.949219 251.3125 63.886719 Z M 260.234375 72.734375 C 263.402344 76.273438 266.527344 80.261719 269.59375 84.699219 L 268.3125 84.027344 C 264.023438 80.816406 259.769531 77.785156 255.585938 75.019531 C 257.246094 74.050781 258.792969 73.289062 260.234375 72.734375 Z M 296.964844 104.78125 C 297.632812 105.371094 298.175781 105.980469 298.816406 106.574219 C 298.769531 108.632812 298.355469 110.90625 297.804688 113.265625 C 291.800781 106.0625 284.921875 98.785156 277.117188 91.453125 C 276.761719 90.90625 276.40625 90.359375 276.042969 89.8125 C 284.074219 94.59375 291.066406 99.59375 296.964844 104.78125 Z M 299.476562 107.199219 C 306.785156 114.058594 312.367188 121.21875 316.398438 128.570312 C 317.269531 133.59375 317.488281 137.808594 317.1875 141.347656 C 312.265625 132.351562 306.023438 123.191406 298.34375 113.902344 C 298.917969 111.558594 299.375 109.277344 299.472656 107.195312 Z M 273.855469 87.695312 C 273.875 87.726562 273.890625 87.757812 273.910156 87.785156 L 273.222656 87.378906 C 273.433594 87.492188 273.644531 87.582031 273.855469 87.695312 Z M 233.027344 53.183594 C 225.109375 52.484375 218.652344 52.660156 213.8125 53.773438 C 210.101562 52.472656 206.433594 51.304688 202.835938 50.363281 C 209.28125 49.035156 215.761719 48.839844 222.214844 49.867188 C 225.847656 50.816406 229.453125 51.945312 233.027344 53.183594 Z M 272.238281 86.851562 C 272.234375 86.894531 272.238281 86.9375 272.234375 86.984375 C 272.070312 86.851562 271.898438 86.75 271.730469 86.617188 L 271.714844 86.585938 Z M 274.902344 89.289062 L 275.054688 89.527344 L 274.796875 89.285156 Z M 272.957031 88.496094 L 273.085938 88.628906 C 273.058594 88.628906 273.03125 88.621094 273.003906 88.621094 Z M 273.808594 89.285156 C 274.757812 90.152344 275.671875 91.019531 276.59375 91.890625 C 283.59375 102.582031 289.515625 113.117188 294.417969 123.46875 C 293.847656 124.78125 293.132812 126.171875 292.464844 127.539062 C 288.367188 123.054688 284.050781 118.660156 279.554688 114.386719 C 277.980469 106.078125 275.875 97.703125 273.1875 89.289062 Z M 270.644531 86.625 C 262.234375 84.503906 253.917969 82.988281 245.714844 82.015625 C 247.71875 80.367188 249.648438 78.894531 251.476562 77.609375 C 251.726562 77.433594 251.941406 77.328125 252.1875 77.160156 C 257.414062 79.429688 262.699219 81.945312 268.058594 84.695312 C 268.917969 85.339844 269.78125 85.960938 270.644531 86.625 Z M 271.542969 87.515625 C 271.746094 87.824219 271.949219 88.09375 272.152344 88.40625 L 272.132812 88.609375 C 271.996094 88.617188 271.890625 88.613281 271.75 88.617188 L 271.738281 88.609375 L 271.714844 88.609375 C 266.089844 89.410156 260.222656 90.90625 254.210938 92.894531 C 250.433594 90.027344 246.609375 87.273438 242.761719 84.617188 C 243.523438 83.953125 244.296875 83.226562 245.035156 82.609375 C 253.746094 83.613281 262.59375 85.210938 271.542969 87.515625 Z M 278.671875 93.828125 C 285.773438 100.632812 292.0625 107.382812 297.609375 114.070312 C 297.367188 115.03125 297.238281 115.933594 296.917969 116.9375 C 296.34375 118.75 295.5625 120.667969 294.75 122.609375 C 290.25 113.15625 284.910156 103.554688 278.671875 93.828125 Z M 264.769531 82.210938 C 260.769531 80.234375 256.816406 78.429688 252.890625 76.71875 C 253.601562 76.25 254.289062 75.828125 254.964844 75.417969 C 258.203125 77.554688 261.464844 79.808594 264.765625 82.210938 Z M 272.105469 89.292969 C 272.066406 89.695312 272.085938 89.988281 272.042969 90.40625 L 272.03125 90.441406 C 270.449219 94.554688 268.683594 98.765625 266.835938 103.007812 C 265.964844 102.273438 265.113281 101.527344 264.234375 100.804688 C 261.574219 98.605469 258.875 96.445312 256.152344 94.34375 C 255.738281 94.023438 255.3125 93.730469 254.894531 93.410156 C 260.699219 91.515625 266.363281 90.058594 271.78125 89.285156 C 271.898438 89.277344 271.988281 89.296875 272.105469 89.292969 Z M 272.734375 90.003906 C 275.234375 97.902344 277.199219 105.777344 278.710938 113.585938 C 275.035156 110.121094 271.238281 106.742188 267.359375 103.453125 C 269.246094 99.128906 271.054688 94.84375 272.667969 90.652344 L 272.675781 90.613281 L 272.699219 90.566406 C 272.722656 90.355469 272.710938 90.210938 272.734375 90.003906 Z M 316.777344 127.398438 C 317.492188 128.863281 318.203125 130.324219 318.867188 131.8125 C 318.320312 130.664062 317.671875 129.535156 317.050781 128.398438 L 316.996094 128.046875 L 316.996094 128.023438 C 316.941406 127.816406 316.835938 127.601562 316.777344 127.398438 Z M 254.324219 75.007812 C 253.601562 75.449219 252.890625 75.878906 252.136719 76.390625 C 234.957031 68.960938 218.484375 64.054688 202.871094 61.359375 C 203.824219 59.710938 205.179688 58.265625 207.070312 57.082031 C 208.84375 55.96875 211.113281 55.109375 213.8125 54.476562 C 226.632812 59 240.15625 65.722656 254.324219 75.007812 Z M 317.328125 130.304688 C 321.847656 139.125 324.210938 148.199219 324.660156 157.351562 C 322.761719 152.429688 320.476562 147.433594 317.773438 142.398438 C 318.167969 139.027344 318.023438 135.003906 317.328125 130.304688 Z M 298.152344 114.703125 C 305.90625 124.128906 312.167969 133.417969 317.070312 142.523438 C 316.535156 146.804688 315.179688 149.996094 313.121094 152.1875 C 312.882812 152.445312 312.601562 152.644531 312.34375 152.871094 C 312.164062 152.597656 312.015625 152.320312 311.835938 152.046875 C 308.652344 147.242188 305.117188 142.492188 301.324219 137.804688 C 299.480469 133.070312 297.425781 128.277344 295.152344 123.457031 C 296.082031 121.289062 296.914062 119.164062 297.554688 117.148438 C 297.824219 116.296875 297.933594 115.53125 298.152344 114.703125 Z M 251.425781 76.839844 C 251.304688 76.925781 251.207031 76.976562 251.085938 77.058594 C 249.101562 78.453125 247.003906 80.113281 244.828125 81.921875 C 242.476562 81.65625 240.132812 81.429688 237.800781 81.25 C 226.636719 73.851562 215.371094 67.445312 204.546875 62.316406 C 219.433594 65.046875 235.109375 69.820312 251.425781 76.84375 Z M 320.40625 135.449219 C 321.035156 136.964844 321.636719 138.488281 322.210938 140.019531 C 327.433594 153.933594 330.480469 168.496094 331.277344 183.171875 C 330.320312 175.425781 328.363281 167.460938 325.386719 159.328125 C 325.253906 152.839844 324.296875 146.378906 322.210938 140.015625 C 321.710938 138.484375 321.03125 136.96875 320.40625 135.449219 Z M 217.292969 48.6875 C 212.179688 48.371094 207.0625 48.714844 201.972656 49.828125 C 201.753906 49.878906 201.535156 49.953125 201.316406 50.003906 C 185.921875 46.175781 171.609375 45.585938 158.503906 47.710938 C 177.824219 44.042969 197.851562 44.328125 217.292969 48.691406 Z M 212.648438 54.0625 C 210.335938 54.6875 208.335938 55.5 206.714844 56.515625 C 204.671875 57.796875 203.175781 59.386719 202.15625 61.214844 C 198.113281 59.359375 194.117188 57.625 190.246094 56.15625 C 189.472656 55.863281 188.738281 55.628906 187.976562 55.351562 C 192.390625 53.304688 196.847656 51.734375 201.328125 50.691406 C 205.039062 51.621094 208.808594 52.742188 212.648438 54.0625 Z M 317.628906 143.527344 C 320.472656 148.917969 322.804688 154.230469 324.730469 159.480469 C 324.75 160.550781 324.835938 161.617188 324.804688 162.691406 C 324.695312 166.359375 324.257812 170.03125 323.589844 173.703125 C 320.707031 166.929688 317.058594 160.152344 312.714844 153.453125 C 313.015625 153.1875 313.335938 152.945312 313.613281 152.652344 C 315.640625 150.492188 317.007812 147.476562 317.628906 143.527344 Z M 294.808594 124.332031 C 296.679688 128.324219 298.441406 132.300781 300.015625 136.230469 C 297.75 133.484375 295.390625 130.769531 292.949219 128.082031 C 293.566406 126.828125 294.273438 125.542969 294.808594 124.332031 Z M 244.148438 82.515625 C 243.511719 83.050781 242.84375 83.652344 242.191406 84.222656 C 241.121094 83.488281 240.058594 82.726562 238.984375 82.007812 C 240.699219 82.152344 242.417969 82.324219 244.148438 82.515625 Z M 263.800781 101.316406 C 264.730469 102.082031 265.636719 102.875 266.554688 103.652344 C 262.382812 113.175781 257.605469 122.960938 252.328125 132.886719 C 247.710938 129.417969 243.140625 125.726562 238.757812 121.863281 C 233.460938 117.191406 228.480469 112.304688 223.917969 107.382812 C 234.234375 101.570312 244.382812 96.902344 254.09375 93.65625 C 254.640625 94.070312 255.199219 94.460938 255.746094 94.878906 C 258.460938 96.972656 261.148438 99.125 263.800781 101.316406 Z M 267.082031 104.097656 C 271.136719 107.542969 275.101562 111.085938 278.9375 114.722656 C 280.855469 124.921875 281.90625 134.992188 282.289062 144.910156 C 281.261719 146.445312 280.234375 147.984375 279.121094 149.554688 C 270.714844 145.496094 261.707031 139.914062 252.867188 133.320312 C 258.140625 123.402344 262.902344 113.621094 267.078125 104.097656 Z M 253.410156 93.140625 C 243.742188 96.414062 233.660156 101.085938 223.433594 106.863281 C 222.949219 106.335938 222.480469 105.804688 222.003906 105.277344 C 229.246094 97.347656 236.050781 90.496094 242.226562 85.066406 C 245.984375 87.660156 249.714844 90.347656 253.410156 93.140625 Z M 279.769531 115.539062 C 284.078125 119.660156 288.214844 123.882812 292.148438 128.195312 C 289.667969 133.171875 286.5625 138.453125 282.894531 143.992188 C 282.492188 134.632812 281.527344 125.140625 279.769531 115.539062 Z M 241.660156 84.675781 C 235.5 90.097656 228.71875 96.902344 221.535156 104.769531 C 214.597656 96.984375 208.988281 89.230469 205.429688 82.175781 C 215.847656 81.171875 226.589844 81.070312 237.558594 81.902344 C 238.929688 82.8125 240.292969 83.738281 241.660156 84.675781 Z M 292.636719 128.738281 C 295.449219 131.847656 298.183594 134.980469 300.761719 138.160156 C 303.070312 144.09375 305.050781 149.941406 306.71875 155.71875 C 303.367188 156.515625 299.367188 156.382812 294.851562 155.386719 C 291.214844 154.582031 287.238281 153.1875 283.097656 151.40625 C 283.085938 149.3125 283.042969 147.214844 282.960938 145.105469 C 286.792969 139.375 290.050781 133.902344 292.636719 128.738281 Z M 236.363281 81.132812 C 225.703125 80.394531 215.265625 80.554688 205.128906 81.542969 C 203.640625 78.503906 202.425781 75.570312 201.804688 72.871094 C 201.015625 69.433594 200.980469 66.332031 201.8125 63.671875 C 201.984375 63.125 202.21875 62.605469 202.46875 62.09375 C 213.464844 67.183594 224.949219 73.640625 236.363281 81.132812 Z M 199.941406 50.355469 C 195.617188 51.453125 191.320312 53.03125 187.070312 55.046875 C 175.601562 50.96875 165.09375 48.6875 156.378906 48.789062 C 157.035156 48.667969 157.675781 48.511719 158.335938 48.402344 C 171.074219 46.296875 184.984375 46.792969 199.941406 50.355469 Z M 302.089844 139.839844 C 305.378906 143.988281 308.46875 148.171875 311.273438 152.402344 C 311.472656 152.707031 311.636719 153.019531 311.835938 153.320312 C 310.535156 154.351562 309.046875 155.09375 307.351562 155.574219 C 305.859375 150.390625 304.097656 145.148438 302.089844 139.839844 Z M 325.433594 161.484375 C 329.445312 173.070312 331.347656 184.292969 331.335938 195.019531 C 331.332031 197.039062 331.257812 199.042969 331.125 201.027344 C 331.007812 202.820312 330.820312 204.585938 330.597656 206.347656 C 330.84375 196.058594 328.46875 185.425781 324.070312 174.769531 C 324.855469 170.75 325.355469 166.726562 325.472656 162.707031 C 325.484375 162.296875 325.425781 161.890625 325.433594 161.480469 Z M 312.203125 153.898438 C 316.695312 160.835938 320.476562 167.84375 323.375 174.839844 C 321.707031 183.265625 318.609375 191.65625 314.320312 199.875 C 314.015625 186.003906 311.855469 171.394531 307.535156 156.210938 C 309.285156 155.71875 310.847656 154.964844 312.207031 153.898438 Z M 201.828125 61.859375 C 201.578125 62.386719 201.339844 62.914062 201.164062 63.476562 C 200.285156 66.28125 200.339844 69.5 201.148438 73.019531 C 201.769531 75.714844 202.949219 78.628906 204.394531 81.628906 C 185.167969 83.578125 167.074219 88.511719 150.429688 95.523438 C 149.804688 95.261719 149.175781 94.957031 148.550781 94.703125 C 146.910156 94.035156 145.300781 93.503906 143.675781 92.898438 C 154.832031 78.847656 167.152344 67.25 180.003906 59.558594 C 187.070312 59.839844 194.351562 60.605469 201.828125 61.863281 Z M 199.707031 60.832031 C 193.371094 59.847656 187.171875 59.207031 181.132812 58.929688 C 183.117188 57.777344 185.109375 56.726562 187.117188 55.769531 C 188.082031 56.113281 189.019531 56.410156 190 56.78125 C 193.167969 57.984375 196.417969 59.367188 199.707031 60.832031 Z M 306.902344 156.359375 C 311.335938 171.921875 313.492188 186.878906 313.699219 201.042969 C 308.832031 210.109375 302.457031 218.917969 295.015625 227.335938 C 294.488281 226.296875 294.046875 225.28125 293.484375 224.230469 C 289.230469 216.285156 283.847656 208.050781 277.734375 199.738281 C 281.246094 184.585938 283.144531 168.628906 283.085938 152.121094 C 287.167969 153.859375 291.101562 155.242188 294.714844 156.039062 C 299.296875 157.050781 303.417969 157.195312 306.902344 156.359375 Z M 186.222656 55.449219 C 184.074219 56.496094 181.953125 57.621094 179.832031 58.882812 C 162.339844 58.214844 146.140625 60.414062 131.484375 64.90625 C 133.378906 60.203125 136.675781 56.160156 141.652344 52.945312 C 141.949219 52.769531 142.308594 52.667969 142.617188 52.507812 C 145.484375 51.484375 148.421875 50.59375 151.429688 49.851562 C 160.6875 48.625 172.742188 50.726562 186.222656 55.449219 Z M 323.855469 175.910156 C 329.109375 188.996094 331.253906 202.003906 329.207031 214.328125 C 325.421875 221.507812 319.636719 225.789062 312.359375 227.734375 C 313.773438 219.277344 314.472656 210.453125 314.351562 201.289062 C 318.804688 192.976562 322.054688 184.46875 323.855469 175.910156 Z M 282.359375 146.027344 C 282.417969 147.738281 282.433594 149.441406 282.449219 151.140625 C 281.554688 150.75 280.640625 150.28125 279.734375 149.851562 C 280.644531 148.5625 281.5 147.296875 282.359375 146.027344 Z M 178.804688 59.527344 C 166.113281 67.300781 153.984375 78.785156 143 92.660156 C 139.148438 91.25 135.351562 90.007812 131.609375 88.984375 C 130.140625 83.894531 129.40625 79.078125 129.535156 74.636719 C 129.628906 71.449219 130.191406 68.464844 131.195312 65.695312 C 145.628906 61.207031 161.566406 58.972656 178.800781 59.527344 Z M 204.699219 82.257812 C 208.292969 89.484375 214.011719 97.375 221.078125 105.285156 C 219.1875 107.363281 217.265625 109.488281 215.328125 111.703125 C 209.714844 115.15625 204.082031 118.898438 198.464844 122.894531 C 182.816406 111.824219 166.78125 102.5 151.285156 95.898438 C 167.773438 89.015625 185.683594 84.167969 204.699219 82.257812 Z M 282.433594 151.855469 C 282.511719 168.195312 280.644531 183.996094 277.210938 199.007812 C 271.625 191.464844 265.433594 183.867188 258.660156 176.363281 C 266.441406 167.476562 273.398438 158.746094 279.324219 150.410156 C 280.367188 150.90625 281.414062 151.414062 282.433594 151.855469 Z M 278.71875 150.113281 C 272.832031 158.382812 265.921875 167.042969 258.199219 175.863281 C 252.355469 169.410156 246.113281 163.058594 239.601562 156.855469 C 244.144531 149.195312 248.5 141.527344 252.558594 133.917969 C 261.355469 140.476562 270.3125 146.050781 278.714844 150.113281 Z M 221.535156 105.785156 L 222.820312 107.203125 C 220.964844 108.257812 219.101562 109.445312 217.238281 110.570312 C 218.695312 108.921875 220.109375 107.355469 221.535156 105.785156 Z M 223.304688 107.722656 C 227.917969 112.699219 232.953125 117.640625 238.316406 122.367188 C 242.738281 126.265625 247.347656 130 252.011719 133.5 C 247.964844 141.09375 243.632812 148.738281 239.101562 156.386719 C 236.800781 154.203125 234.511719 152.007812 232.144531 149.871094 C 228.886719 146.925781 225.574219 144.035156 222.210938 141.203125 C 216.171875 136.121094 209.980469 131.253906 203.703125 126.632812 C 207.789062 121.65625 211.855469 116.714844 215.800781 112.210938 C 218.308594 110.671875 220.8125 109.140625 223.304688 107.722656 Z M 143.316406 51.449219 C 143.042969 51.578125 142.757812 51.691406 142.488281 51.828125 C 128.15625 56.925781 115.609375 65.457031 104.984375 76.402344 C 98.792969 79.96875 93.007812 83.980469 87.664062 88.417969 C 84.703125 89.496094 81.886719 90.882812 79.222656 92.554688 C 96.992188 72.582031 119.265625 58.804688 143.316406 51.449219 Z M 213.914062 113.34375 C 210.394531 117.394531 206.78125 121.820312 203.15625 126.238281 C 201.796875 125.238281 200.425781 124.28125 199.058594 123.308594 C 204.007812 119.796875 208.964844 116.4375 213.914062 113.34375 Z M 139.417969 53.738281 C 135.214844 56.910156 132.316406 60.753906 130.652344 65.167969 C 122.277344 67.796875 114.417969 71.179688 107.101562 75.203125 C 116.460938 65.957031 127.277344 58.601562 139.417969 53.738281 Z M 313.726562 202.457031 C 313.777344 211.277344 313.050781 219.785156 311.664062 227.941406 C 310.601562 228.199219 309.507812 228.40625 308.382812 228.566406 C 304.46875 229.132812 300.136719 229.011719 295.578125 228.476562 L 295.335938 227.984375 C 302.589844 219.808594 308.875 211.269531 313.726562 202.457031 Z M 328.738281 216.398438 C 324.804688 232.726562 316.503906 247.578125 305.160156 260.507812 C 305.121094 259.566406 305.09375 258.628906 304.996094 257.660156 C 304.929688 256.984375 304.742188 256.25 304.644531 255.558594 C 308.019531 247.0625 310.582031 238.003906 312.234375 228.464844 C 319.175781 226.671875 324.824219 222.75 328.742188 216.398438 Z M 328.675781 219.40625 C 324.320312 240.914062 314.886719 261.625 300.296875 279.742188 C 303.789062 274.605469 305.339844 268.417969 305.214844 261.457031 C 316.183594 249.089844 324.40625 234.9375 328.679688 219.402344 Z M 221.757812 141.722656 C 225.117188 144.550781 228.4375 147.429688 231.691406 150.367188 C 234.089844 152.53125 236.417969 154.753906 238.75 156.96875 C 231.988281 168.34375 224.703125 179.617188 217.242188 190.6875 C 210.554688 185.71875 203.957031 180.425781 197.554688 174.914062 C 191.195312 169.4375 185.046875 163.734375 179.203125 157.921875 C 184.464844 150.828125 189.765625 143.878906 195.035156 137.203125 C 197.808594 133.691406 200.507812 130.496094 203.25 127.152344 C 209.523438 131.773438 215.71875 136.644531 221.757812 141.722656 Z M 239.242188 157.429688 C 245.722656 163.613281 251.917969 169.945312 257.738281 176.375 C 255.453125 178.976562 253.132812 181.589844 250.722656 184.207031 C 245.265625 190.132812 239.488281 196.082031 233.527344 201.964844 C 228.269531 198.550781 223.011719 194.925781 217.800781 191.070312 C 225.242188 180.023438 232.488281 168.785156 239.238281 157.429688 Z M 202.707031 126.757812 C 199.96875 130.101562 197.273438 133.285156 194.503906 136.796875 C 189.25 143.449219 183.957031 150.371094 178.710938 157.441406 C 175.304688 154.035156 172.050781 150.585938 168.882812 147.121094 C 176.511719 140.492188 184.300781 134.117188 192.1875 128.230469 C 194.269531 126.675781 196.363281 125.214844 198.453125 123.726562 C 199.871094 124.734375 201.292969 125.722656 202.707031 126.757812 Z M 130.398438 65.945312 C 129.476562 68.652344 128.9375 71.539062 128.847656 74.601562 C 128.71875 79.015625 129.425781 83.769531 130.835938 88.769531 C 118.910156 85.59375 107.617188 84.429688 97.523438 85.945312 C 100.03125 82.769531 102.671875 79.746094 105.449219 76.882812 C 113.148438 72.460938 121.484375 68.78125 130.402344 65.945312 Z M 197.875 123.320312 C 195.84375 124.769531 193.8125 126.179688 191.789062 127.691406 C 183.886719 133.589844 176.078125 139.972656 168.4375 146.609375 C 155.796875 132.722656 145.21875 118.546875 138.335938 105.34375 C 137.835938 104.386719 137.464844 103.46875 137.007812 102.523438 C 141.355469 100.265625 145.835938 98.191406 150.429688 96.25 C 165.984375 102.816406 182.121094 112.183594 197.875 123.320312 Z M 258.195312 176.875 C 265.078125 184.503906 271.371094 192.21875 277.015625 199.878906 C 275.269531 207.367188 273.117188 214.632812 270.636719 221.679688 C 258.988281 217.035156 246.582031 210.40625 234.09375 202.335938 C 240.03125 196.476562 245.789062 190.558594 251.222656 184.65625 C 253.617188 182.054688 255.921875 179.460938 258.195312 176.875 Z M 311.546875 228.632812 C 309.964844 237.664062 307.578125 246.265625 304.441406 254.351562 C 303.203125 246.589844 300.28125 238.117188 295.925781 229.1875 C 300.363281 229.679688 304.605469 229.785156 308.460938 229.230469 C 309.515625 229.078125 310.542969 228.867188 311.546875 228.628906 Z M 277.542969 200.609375 C 283.484375 208.734375 288.730469 216.78125 292.886719 224.542969 C 293.492188 225.671875 293.96875 226.757812 294.53125 227.875 C 294.394531 228.03125 294.269531 228.191406 294.128906 228.347656 C 288.398438 227.546875 282.265625 225.996094 275.820312 223.71875 C 274.335938 223.195312 272.792969 222.53125 271.277344 221.9375 C 273.703125 215.039062 275.8125 207.929688 277.542969 200.609375 Z M 149.5625 95.867188 C 145.304688 97.683594 141.144531 99.628906 137.09375 101.714844 C 139.101562 98.890625 141.132812 96.105469 143.226562 93.445312 C 144.914062 94.070312 146.585938 94.621094 148.289062 95.316406 C 148.710938 95.488281 149.140625 95.691406 149.5625 95.867188 Z M 142.554688 93.203125 C 140.480469 95.839844 138.46875 98.601562 136.484375 101.398438 C 134.601562 97.410156 132.988281 93.507812 131.859375 89.769531 C 135.371094 90.742188 138.9375 91.886719 142.554688 93.203125 Z M 131.050781 89.527344 C 132.234375 93.535156 133.996094 97.730469 136.035156 102.007812 C 135.949219 102.125 135.863281 102.242188 135.777344 102.359375 C 112.875 114.394531 93.527344 130.527344 79.085938 148.445312 C 76.554688 143.332031 74.585938 138.367188 73.085938 133.558594 C 76.527344 122.507812 80.96875 111.933594 86.507812 102.253906 C 89.644531 96.777344 93.132812 91.585938 96.90625 86.722656 C 107.179688 85.042969 118.769531 86.214844 131.054688 89.527344 Z M 295.140625 229.117188 C 299.777344 238.554688 302.84375 247.476562 303.972656 255.539062 C 302.28125 259.773438 300.382812 263.851562 298.308594 267.796875 C 295.382812 270.652344 292.300781 273.398438 289.085938 276.027344 C 281.941406 281.859375 274.078125 287.039062 265.78125 291.640625 C 258.9375 291.136719 251.582031 289.726562 243.753906 287.292969 C 242.867188 284.464844 241.804688 281.585938 240.492188 278.628906 C 243.664062 274.59375 246.707031 270.355469 249.621094 265.917969 C 261.929688 258.285156 273.457031 249.640625 283.566406 240.195312 C 287.417969 236.59375 290.992188 232.855469 294.417969 229.054688 C 294.664062 229.089844 294.894531 229.085938 295.140625 229.117188 Z M 293.578125 228.980469 C 290.265625 232.636719 286.808594 236.238281 283.097656 239.707031 C 273.363281 248.800781 262.324219 257.171875 250.527344 264.589844 C 258.664062 251.972656 265.636719 237.832031 271.0625 222.566406 C 272.578125 223.164062 274.125 223.832031 275.617188 224.359375 C 281.917969 226.585938 287.9375 228.152344 293.578125 228.980469 Z M 136.417969 102.816406 C 136.878906 103.769531 137.242188 104.695312 137.746094 105.660156 C 144.667969 118.933594 155.265625 133.148438 167.929688 147.0625 C 157.933594 155.78125 148.292969 164.984375 139.226562 174.371094 C 128.421875 167.566406 117.699219 161.804688 107.5 157.5 C 114.882812 138.339844 124.410156 119.929688 135.480469 103.914062 C 135.722656 103.570312 135.980469 103.257812 136.222656 102.914062 L 136.414062 102.8125 Z M 134.917969 103.546875 C 123.820312 119.597656 114.265625 138.039062 106.871094 157.230469 C 103.363281 155.769531 99.910156 154.425781 96.554688 153.328125 C 90.59375 151.375 84.902344 150.035156 79.585938 149.375 L 79.433594 149.089844 C 93.589844 131.457031 112.503906 115.519531 134.917969 103.546875 Z M 103.292969 78.140625 C 100.9375 80.671875 98.683594 83.332031 96.527344 86.09375 C 94.070312 86.507812 91.710938 87.105469 89.40625 87.847656 C 93.757812 84.335938 98.390625 81.089844 103.292969 78.140625 Z M 270.425781 222.316406 C 264.84375 238.023438 257.609375 252.523438 249.167969 265.398438 C 245.296875 267.796875 241.351562 270.070312 237.332031 272.246094 C 236.921875 271.46875 236.59375 270.71875 236.164062 269.9375 C 228.859375 256.675781 218.015625 242.613281 205.203125 228.929688 C 214.933594 220.578125 224.503906 211.792969 233.613281 202.828125 C 246.179688 210.957031 258.675781 217.632812 270.429688 222.3125 Z M 304.167969 256.71875 C 304.207031 257.042969 304.304688 257.394531 304.335938 257.71875 C 304.453125 258.90625 304.511719 260.070312 304.539062 261.214844 C 303.046875 262.890625 301.507812 264.535156 299.917969 266.144531 C 301.453125 263.09375 302.855469 259.9375 304.167969 256.71875 Z M 304.539062 262.226562 C 304.539062 270.171875 302.308594 277.035156 297.378906 282.378906 C 293.742188 286 289.324219 288.496094 284.300781 290.039062 C 289.796875 283.40625 294.664062 276.089844 298.824219 268.191406 C 300.800781 266.253906 302.703125 264.261719 304.539062 262.226562 Z M 168.371094 147.570312 C 171.570312 151.070312 174.871094 154.546875 178.316406 157.984375 C 171.277344 167.492188 164.4375 177.246094 157.769531 186.988281 C 151.808594 182.613281 145.804688 178.519531 139.796875 174.71875 C 148.820312 165.386719 158.421875 156.242188 168.371094 147.570312 Z M 233.03125 202.445312 C 223.960938 211.367188 214.429688 220.117188 204.742188 228.429688 C 202.246094 225.777344 199.675781 223.148438 197.039062 220.535156 C 203.9375 211.261719 210.734375 201.527344 217.417969 191.625 C 222.59375 195.453125 227.808594 199.050781 233.03125 202.445312 Z M 95.882812 86.890625 C 92.265625 91.605469 88.941406 96.628906 85.921875 101.910156 C 80.507812 111.363281 76.152344 121.679688 72.730469 132.441406 C 71.605469 128.644531 70.695312 124.933594 70.296875 121.394531 C 69.664062 115.765625 70.027344 110.515625 71.4375 105.722656 C 76.355469 99.683594 81.890625 94.074219 88.003906 88.992188 C 90.53125 88.078125 93.15625 87.390625 95.882812 86.890625 Z M 178.796875 158.480469 C 184.632812 164.28125 190.777344 169.964844 197.117188 175.425781 C 203.535156 180.953125 210.152344 186.261719 216.859375 191.242188 C 210.199219 201.109375 203.421875 210.808594 196.546875 220.050781 C 189.742188 213.332031 182.558594 206.75 175.082031 200.503906 C 169.601562 195.929688 163.972656 191.578125 158.304688 187.398438 C 164.949219 177.679688 171.777344 167.964844 178.796875 158.480469 Z M 86.066406 89.769531 C 80.945312 94.167969 76.238281 98.9375 71.976562 104.019531 C 73.207031 100.578125 75.007812 97.378906 77.484375 94.492188 C 77.5 94.472656 77.511719 94.457031 77.527344 94.441406 C 77.53125 94.433594 77.535156 94.429688 77.539062 94.425781 C 77.542969 94.421875 77.542969 94.417969 77.546875 94.414062 C 80.210938 92.527344 83.070312 91.007812 86.066406 89.769531 Z M 297.382812 269.5 C 293.277344 277.023438 288.527344 284.023438 283.195312 290.355469 C 279.347656 291.410156 275.164062 291.945312 270.660156 291.945312 C 269.507812 291.945312 268.257812 291.785156 267.070312 291.71875 C 275.035156 287.226562 282.59375 282.179688 289.492188 276.542969 C 292.246094 274.296875 294.835938 271.914062 297.382812 269.496094 Z M 297.394531 283.269531 C 282.21875 300.921875 263.558594 313.878906 243.25 322.066406 C 255.183594 316.429688 266.253906 308.722656 275.925781 299.1875 C 278.582031 296.570312 281.128906 293.816406 283.5625 290.933594 C 288.863281 289.453125 293.535156 286.949219 297.394531 283.269531 Z M 72.941406 100.082031 C 72.074219 101.777344 71.386719 103.558594 70.839844 105.390625 C 68.511719 108.253906 66.300781 111.203125 64.253906 114.246094 C 60.324219 120.085938 56.953125 126.246094 54.101562 132.628906 C 58.800781 121.207031 65.074219 110.253906 72.941406 100.082031 Z M 70.359375 107.097656 C 69.28125 111.558594 69.050781 116.367188 69.625 121.464844 C 70.058594 125.320312 71.074219 129.390625 72.355469 133.535156 C 70.773438 138.632812 69.382812 143.804688 68.261719 149.082031 C 66.96875 149.203125 65.691406 149.371094 64.46875 149.609375 C 56.246094 151.21875 49.738281 155.644531 45.667969 163.320312 C 48.386719 145.941406 54.933594 129.304688 64.808594 114.628906 C 66.546875 112.050781 68.421875 109.550781 70.359375 107.097656 Z M 282.355469 291.277344 C 280.140625 293.855469 277.855469 296.347656 275.464844 298.707031 C 264.007812 310 250.585938 318.730469 236.085938 324.449219 C 243.328125 318.628906 246.5 310.78125 246.34375 301.683594 C 253.117188 298.96875 259.648438 295.785156 265.953125 292.292969 C 267.523438 292.402344 269.136719 292.597656 270.648438 292.597656 C 274.804688 292.597656 278.722656 292.167969 282.355469 291.277344 Z M 174.640625 201.011719 C 182.140625 207.273438 189.335938 213.859375 196.15625 220.601562 C 188.449219 230.945312 180.777344 240.535156 173.230469 249.609375 C 164.8125 243.554688 156.496094 237.117188 148.472656 230.3125 C 144.539062 226.976562 140.699219 223.558594 136.921875 220.097656 C 143.367188 209.683594 150.480469 198.859375 157.925781 187.957031 C 163.574219 192.121094 169.183594 196.453125 174.640625 201.007812 Z M 157.378906 187.539062 C 149.945312 198.417969 142.859375 209.222656 136.417969 219.628906 C 129.566406 213.320312 123.035156 206.835938 116.886719 200.269531 C 117.097656 200.011719 117.277344 199.757812 117.492188 199.503906 C 124.1875 191.425781 131.554688 183.273438 139.320312 175.214844 C 145.355469 179.03125 151.390625 183.140625 157.378906 187.539062 Z M 196.625 221.085938 C 199.230469 223.667969 201.773438 226.261719 204.238281 228.882812 C 194.804688 236.953125 185.242188 244.539062 175.835938 251.46875 L 173.773438 250.007812 C 181.296875 240.960938 188.945312 231.390625 196.625 221.085938 Z M 204.679688 229.371094 C 217.472656 243.027344 228.304688 257.054688 235.574219 270.25 C 236.003906 271.03125 236.324219 271.777344 236.726562 272.550781 C 232.261719 274.949219 227.734375 277.195312 223.128906 279.292969 C 207.972656 272.363281 192.046875 262.898438 176.40625 251.886719 C 185.777344 244.972656 195.289062 237.40625 204.683594 229.367188 Z M 248.246094 266.730469 C 245.648438 270.621094 242.953125 274.351562 240.160156 277.925781 C 239.40625 276.257812 238.5 274.546875 237.621094 272.847656 C 241.222656 270.898438 244.761719 268.859375 248.246094 266.730469 Z M 138.726562 174.847656 C 130.992188 182.882812 123.65625 191.011719 116.980469 199.070312 C 116.785156 199.300781 116.609375 199.527344 116.414062 199.757812 C 110.445312 193.355469 104.894531 186.890625 99.828125 180.429688 C 101.949219 172.933594 104.421875 165.484375 107.238281 158.117188 C 117.347656 162.382812 127.996094 168.101562 138.730469 174.847656 Z M 106.617188 157.835938 C 103.851562 165.066406 101.417969 172.394531 99.320312 179.757812 C 93.046875 171.703125 87.46875 163.683594 83 155.878906 C 81.890625 153.933594 80.949219 152.027344 79.964844 150.113281 C 85.097656 150.789062 90.570312 152.0625 96.328125 153.949219 C 99.671875 155.046875 103.117188 156.375 106.617188 157.832031 Z M 264.648438 292.21875 C 258.730469 295.445312 252.628906 298.402344 246.304688 300.949219 C 246.160156 296.867188 245.292969 292.523438 243.933594 288.015625 C 251.238281 290.257812 258.160156 291.648438 264.648438 292.21875 Z M 237.027344 273.15625 C 237.953125 274.953125 238.921875 276.753906 239.707031 278.511719 C 238.167969 280.460938 236.609375 282.371094 235.019531 284.222656 L 233.511719 283.691406 C 230.382812 282.476562 227.191406 281.113281 223.984375 279.660156 C 228.398438 277.636719 232.742188 275.460938 237.027344 273.15625 Z M 72.710938 134.628906 C 74.226562 139.285156 76.179688 144.0625 78.632812 148.984375 C 78.566406 149.066406 78.492188 149.144531 78.425781 149.226562 C 75.101562 148.871094 71.945312 148.800781 68.953125 149.03125 C 69.992188 144.152344 71.273438 139.351562 72.710938 134.628906 Z M 240 279.242188 C 241.160156 281.894531 242.171875 284.496094 242.988281 287.039062 C 240.601562 286.28125 238.152344 285.382812 235.699219 284.46875 C 237.15625 282.769531 238.585938 281.027344 240 279.242188 Z M 243.195312 287.808594 C 244.644531 292.515625 245.519531 297.039062 245.644531 301.246094 C 232.585938 306.4375 218.800781 310.035156 204.917969 312.015625 C 213.589844 306.367188 222.035156 299.289062 229.964844 290.945312 C 231.757812 289.058594 233.480469 287.019531 235.21875 285.007812 C 237.90625 286.015625 240.585938 286.992188 243.195312 287.808594 Z M 79.167969 149.988281 C 80.21875 152.054688 81.242188 154.121094 82.445312 156.222656 C 87 164.179688 92.683594 172.355469 99.097656 180.558594 C 97.304688 186.925781 95.707031 193.300781 94.472656 199.640625 C 92.652344 209 91.539062 218.246094 91.070312 227.25 C 83.914062 224.164062 77.351562 222.265625 71.953125 222.066406 C 70.835938 222.027344 69.78125 222.09375 68.761719 222.199219 C 65.03125 204.859375 64.207031 186.65625 65.988281 168.769531 C 69.460938 162.628906 73.484375 156.574219 78.070312 150.707031 C 78.265625 150.453125 78.5 150.214844 78.699219 149.964844 C 78.859375 149.984375 79.003906 149.964844 79.164062 149.984375 Z M 77.863281 149.914062 C 77.761719 150.046875 77.640625 150.167969 77.535156 150.300781 C 73.246094 155.792969 69.484375 161.457031 66.15625 167.199219 C 66.792969 161.316406 67.636719 155.480469 68.839844 149.726562 C 71.671875 149.5 74.710938 149.609375 77.863281 149.914062 Z M 234.550781 284.769531 C 232.871094 286.707031 231.210938 288.671875 229.480469 290.488281 C 221.191406 299.210938 212.335938 306.5 203.265625 312.242188 C 200.925781 312.550781 198.589844 312.925781 196.25 313.140625 C 188.910156 313.804688 181.585938 313.878906 174.339844 313.535156 C 175.339844 309.035156 174.226562 303.691406 171.578125 297.917969 C 171.308594 297.332031 170.933594 296.722656 170.632812 296.125 C 178.132812 294.976562 185.6875 293.363281 193.230469 291.207031 C 203.324219 288.320312 213.347656 284.5 223.144531 280.050781 C 226.558594 281.605469 229.949219 283.035156 233.277344 284.328125 C 233.707031 284.496094 234.121094 284.605469 234.550781 284.769531 Z M 222.347656 279.664062 C 212.742188 283.996094 202.917969 287.730469 193.035156 290.554688 C 185.445312 292.722656 177.84375 294.351562 170.304688 295.5 C 166.609375 288.386719 160.800781 280.695312 153.652344 273.03125 C 157.671875 268.742188 161.78125 264.214844 166.019531 259.328125 C 168.515625 257.605469 171.007812 255.882812 173.53125 254.050781 C 174.300781 253.492188 175.085938 252.890625 175.855469 252.324219 C 191.40625 263.285156 207.238281 272.710938 222.347656 279.664062 Z M 68.140625 149.773438 C 66.851562 155.964844 65.929688 162.265625 65.296875 168.605469 C 58.703125 180.296875 54.304688 192.335938 52.222656 204.191406 C 48.128906 195.921875 45.375 188.179688 44.257812 181.339844 C 44.269531 175.957031 44.667969 170.613281 45.40625 165.320312 C 49.296875 156.730469 55.949219 151.976562 64.609375 150.28125 C 65.75 150.054688 66.933594 149.890625 68.140625 149.773438 Z M 245.660156 301.964844 C 245.757812 311.054688 242.546875 318.765625 235.0625 324.457031 C 220 329.597656 202.726562 328.109375 184.855469 322.191406 C 191.097656 319.855469 197.324219 316.769531 203.449219 312.90625 C 217.839844 310.984375 232.125 307.328125 245.660156 301.964844 Z M 99.617188 181.242188 C 104.632812 187.613281 110.121094 193.980469 116.003906 200.289062 C 107.894531 210.152344 100.785156 219.828125 94.859375 228.988281 C 93.8125 228.488281 92.765625 228.003906 91.742188 227.550781 C 92.195312 218.496094 93.304688 209.195312 95.136719 199.765625 C 96.335938 193.617188 97.894531 187.421875 99.617188 181.242188 Z M 116.476562 200.800781 C 122.636719 207.382812 129.1875 213.886719 136.058594 220.203125 C 135.578125 220.980469 135.023438 221.804688 134.550781 222.578125 C 129.753906 230.410156 125.386719 237.90625 121.46875 245.015625 C 112.695312 238.722656 103.796875 233.289062 95.492188 229.28125 C 101.367188 220.195312 108.433594 210.585938 116.472656 200.796875 Z M 175.273438 251.917969 C 174.5625 252.4375 173.839844 252.996094 173.128906 253.511719 C 171.316406 254.828125 169.535156 256.042969 167.734375 257.300781 C 169.578125 255.152344 171.464844 252.785156 173.335938 250.539062 Z M 172.792969 250.144531 C 170.488281 252.90625 168.148438 255.851562 165.890625 258.464844 C 165.785156 258.585938 165.6875 258.679688 165.582031 258.800781 C 160.203125 262.511719 154.9375 265.925781 149.792969 269.035156 C 144.925781 264.128906 139.636719 259.28125 134.054688 254.675781 C 131.664062 252.699219 129.230469 250.765625 126.765625 248.890625 C 125.199219 247.695312 123.609375 246.5625 122.027344 245.417969 C 125.945312 238.300781 130.320312 230.78125 135.125 222.9375 C 135.578125 222.199219 136.105469 221.414062 136.5625 220.671875 C 140.320312 224.117188 144.136719 227.515625 148.046875 230.832031 C 156.066406 237.632812 164.378906 244.085938 172.792969 250.144531 Z M 65.117188 170.367188 C 63.542969 187.765625 64.457031 205.421875 68.078125 222.277344 C 66.457031 222.507812 64.992188 222.941406 63.695312 223.605469 C 61.246094 219.976562 58.914062 216.382812 56.867188 212.859375 C 55.355469 210.261719 53.984375 207.710938 52.710938 205.195312 C 54.625 193.621094 58.828125 181.851562 65.117188 170.367188 Z M 163.566406 261.050781 C 160.039062 265.074219 156.5625 268.9375 153.191406 272.53125 C 152.242188 271.523438 151.277344 270.523438 150.289062 269.519531 C 154.632812 266.886719 159.046875 264.113281 163.566406 261.050781 Z M 232.066406 325.964844 C 231.230469 326.257812 230.390625 326.53125 229.546875 326.804688 C 220.058594 329.542969 210.324219 331.332031 200.488281 332.078125 L 200.34375 332.089844 C 188.109375 332.585938 175.621094 330.960938 163.296875 327.046875 C 170.066406 326.632812 176.953125 325.03125 183.835938 322.558594 C 200.855469 328.320312 217.363281 330.03125 232.066406 325.964844 Z M 133.636719 255.199219 C 139.148438 259.75 144.371094 264.550781 149.183594 269.394531 C 138.453125 275.84375 128.367188 280.898438 119.503906 283.988281 C 115.613281 280.789062 111.804688 277.484375 108.078125 274.097656 C 111.226562 266.15625 115.882812 256.613281 121.695312 246.019531 C 123.253906 247.144531 124.816406 248.25 126.359375 249.425781 C 128.816406 251.292969 131.25 253.230469 133.636719 255.199219 Z M 201.789062 313.125 C 195.855469 316.753906 189.847656 319.664062 183.824219 321.84375 C 180.136719 320.589844 176.429688 319.183594 172.703125 317.566406 C 173.34375 316.523438 173.785156 315.394531 174.109375 314.222656 C 181.449219 314.582031 188.871094 314.5 196.304688 313.824219 C 198.136719 313.660156 199.957031 313.351562 201.789062 313.125 Z M 121.148438 245.625 C 115.367188 256.15625 110.714844 265.664062 107.550781 273.628906 C 106.769531 272.917969 105.96875 272.21875 105.195312 271.5 C 101.1875 267.769531 97.339844 263.929688 93.589844 260.054688 C 92.140625 252.320312 91.476562 244.121094 91.484375 235.613281 C 92.613281 233.738281 93.867188 231.792969 95.109375 229.859375 C 103.414062 233.863281 112.34375 239.3125 121.148438 245.625 Z M 149.6875 269.890625 C 150.726562 270.941406 151.730469 272 152.722656 273.058594 C 145.140625 281.117188 138.019531 288.019531 131.667969 293.421875 C 127.757812 290.546875 123.886719 287.585938 120.09375 284.484375 C 128.980469 281.355469 139.023438 276.3125 149.6875 269.890625 Z M 153.179688 273.558594 C 160.214844 281.113281 165.957031 288.652344 169.613281 295.613281 C 158.222656 297.300781 147.007812 297.765625 136.28125 296.78125 C 134.921875 295.828125 133.585938 294.824219 132.238281 293.839844 C 138.578125 288.441406 145.652344 281.558594 153.183594 273.558594 Z M 43.59375 181.550781 L 43.617188 181.679688 C 43.628906 195.300781 45.964844 209.101562 50.882812 222.539062 C 50.953125 223.988281 51.050781 225.425781 51.203125 226.859375 C 51.796875 232.460938 53.058594 237.914062 54.976562 243.179688 C 46.683594 223.582031 42.851562 202.515625 43.59375 181.550781 Z M 44.332031 185.148438 C 45.789062 191.355469 48.410156 198.132812 52.027344 205.300781 C 51.203125 210.378906 50.730469 215.417969 50.824219 220.375 C 46.796875 208.765625 44.683594 196.90625 44.332031 185.148438 Z M 94.480469 229.566406 C 93.476562 231.132812 92.460938 232.710938 91.527344 234.242188 C 91.546875 232.28125 91.628906 230.296875 91.71875 228.304688 Z M 91.0625 227.988281 C 90.945312 230.480469 90.808594 232.964844 90.804688 235.410156 C 87.941406 240.195312 85.53125 244.769531 83.484375 249.125 C 79.484375 244.566406 75.691406 239.96875 72.171875 235.394531 C 70.894531 231.277344 69.804688 227.085938 68.875 222.847656 C 69.84375 222.746094 70.851562 222.6875 71.925781 222.726562 C 77.257812 222.921875 83.851562 224.851562 91.0625 227.988281 Z M 169.9375 296.242188 C 170.269531 296.894531 170.664062 297.570312 170.957031 298.207031 C 173.597656 303.964844 174.628906 309.191406 173.621094 313.523438 C 169.726562 313.320312 165.859375 313.007812 162.03125 312.5 C 153.753906 308.214844 145.484375 303.1875 137.394531 297.574219 C 147.894531 298.433594 158.84375 297.898438 169.9375 296.242188 Z M 90.777344 236.863281 C 90.832031 244.597656 91.464844 252.070312 92.734375 259.171875 C 89.722656 256.035156 86.769531 252.890625 83.960938 249.707031 C 85.867188 245.625 88.140625 241.339844 90.777344 236.863281 Z M 52.503906 206.296875 C 53.671875 208.566406 54.929688 210.875 56.289062 213.207031 C 58.328125 216.71875 60.640625 220.304688 63.078125 223.917969 C 60.75 225.292969 59.042969 227.46875 58.140625 230.519531 C 57.6875 232.046875 57.449219 233.796875 57.40625 235.773438 C 55.167969 231.378906 53.195312 226.929688 51.542969 222.433594 C 51.300781 217.152344 51.671875 211.742188 52.503906 206.296875 Z M 68.203125 222.9375 C 69.019531 226.652344 69.980469 230.324219 71.0625 233.945312 C 68.578125 230.667969 66.277344 227.40625 64.074219 224.167969 C 65.289062 223.558594 66.671875 223.15625 68.203125 222.9375 Z M 173.417969 314.207031 C 173.101562 315.296875 172.671875 316.332031 172.074219 317.296875 C 171.726562 317.140625 171.375 317.027344 171.027344 316.871094 C 168.671875 315.8125 166.304688 314.648438 163.945312 313.460938 C 167.074219 313.832031 170.242188 314.039062 173.417969 314.207031 Z M 182.816406 322.203125 C 175.847656 324.632812 168.882812 326.175781 162.058594 326.457031 L 161.390625 326.464844 C 160.65625 326.21875 159.925781 325.921875 159.195312 325.65625 C 165.660156 324.183594 169.9375 321.601562 172.320312 318.121094 C 175.832031 319.648438 179.335938 320.988281 182.816406 322.203125 Z M 63.445312 224.472656 C 65.964844 228.183594 68.648438 231.910156 71.539062 235.671875 C 73.839844 243.0625 76.699219 250.214844 80.144531 257.035156 C 79.136719 259.777344 78.28125 262.421875 77.714844 264.882812 C 69.675781 256.09375 63.175781 246.777344 58.113281 237.144531 C 58.050781 234.660156 58.261719 232.5 58.789062 230.714844 C 59.652344 227.792969 61.246094 225.761719 63.445312 224.472656 Z M 171.667969 317.851562 C 169.265625 321.273438 164.902344 323.855469 158.050781 325.238281 C 145.128906 320.410156 132.472656 312.957031 120.523438 302.617188 C 121.203125 302.191406 121.855469 301.8125 122.5625 301.332031 C 134.710938 307.453125 148.023438 311.316406 161.859375 313.167969 C 164.824219 314.699219 167.792969 316.148438 170.753906 317.476562 C 171.058594 317.613281 171.363281 317.71875 171.667969 317.851562 Z M 187.484375 332.457031 C 174.84375 332.28125 162.175781 330.441406 149.828125 326.9375 L 149.863281 326.925781 C 150.6875 326.878906 151.433594 326.789062 152.214844 326.71875 C 155.238281 327.09375 158.304688 327.226562 161.398438 327.132812 C 170.050781 330.03125 178.792969 331.769531 187.484375 332.453125 Z M 72.707031 237.167969 C 75.992188 241.378906 79.460938 245.59375 83.144531 249.785156 C 82.125 251.988281 81.265625 254.105469 80.476562 256.175781 C 77.4375 250.078125 74.835938 243.726562 72.707031 237.167969 Z M 160.164062 312.257812 C 147.152344 310.347656 134.65625 306.621094 123.179688 300.886719 C 125.007812 299.617188 126.941406 298.160156 128.945312 296.550781 C 131.289062 296.917969 133.664062 297.207031 136.058594 297.429688 C 143.972656 302.976562 152.046875 307.964844 160.164062 312.257812 Z M 83.644531 250.363281 C 86.628906 253.738281 89.769531 257.074219 92.976562 260.386719 C 94.753906 269.765625 97.671875 278.460938 101.839844 286.199219 L 101.207031 285.753906 C 93 277.246094 86.25 267.53125 80.902344 257 C 81.699219 254.859375 82.59375 252.65625 83.644531 250.363281 Z M 51.710938 224.625 C 53.359375 228.882812 55.269531 233.097656 57.445312 237.257812 C 57.570312 241.832031 58.878906 247.691406 61.257812 254.671875 C 55.988281 246.039062 52.90625 236.632812 51.863281 226.78125 C 51.789062 226.066406 51.765625 225.34375 51.710938 224.625 Z M 93.835938 261.296875 C 97.363281 264.914062 100.980469 268.496094 104.734375 271.988281 L 107.28125 274.28125 C 105.332031 279.261719 103.957031 283.632812 103.316406 287.210938 C 103.238281 287.15625 103.15625 287.105469 103.078125 287.050781 C 98.757812 279.375 95.714844 270.695312 93.835938 261.296875 Z M 134.984375 296.652344 C 133.1875 296.464844 131.40625 296.238281 129.640625 295.972656 C 130.320312 295.417969 131.003906 294.878906 131.703125 294.289062 Z M 131.132812 293.871094 C 130.320312 294.558594 129.511719 295.195312 128.722656 295.832031 C 121.1875 294.628906 113.949219 292.648438 107.121094 289.839844 C 106.269531 289.277344 105.453125 288.691406 104.621094 288.117188 L 104.714844 288.109375 C 104.726562 288.105469 104.738281 288.097656 104.75 288.09375 C 109.128906 287.757812 114.054688 286.601562 119.390625 284.769531 C 123.242188 287.925781 127.160156 290.949219 131.132812 293.871094 Z M 107.808594 274.75 C 111.390625 278 115.050781 281.183594 118.789062 284.257812 C 113.625 286.011719 108.882812 287.113281 104.671875 287.433594 L 104.648438 287.4375 L 104.632812 287.425781 C 104.378906 287.46875 104.1875 287.453125 103.9375 287.492188 C 104.542969 284.007812 105.882812 279.683594 107.808594 274.75 Z M 128.03125 296.414062 C 126.105469 297.941406 124.257812 299.332031 122.507812 300.535156 C 118.691406 298.59375 114.992188 296.421875 111.429688 294.027344 C 110.519531 293.089844 109.605469 292.160156 108.707031 291.1875 C 114.867188 293.5625 121.324219 295.300781 128.03125 296.414062 Z M 58.167969 238.664062 C 63.230469 248.054688 69.675781 257.132812 77.570312 265.707031 C 77.070312 268.089844 76.777344 270.339844 76.742188 272.421875 C 71.160156 267.773438 66.558594 262.695312 62.890625 257.265625 C 60.128906 249.78125 58.523438 243.519531 58.167969 238.664062 Z M 80.554688 257.847656 C 85.296875 267.070312 91.101562 275.644531 98.03125 283.34375 C 90.648438 277.71875 84.066406 271.746094 78.277344 265.492188 C 78.296875 265.402344 78.296875 265.328125 78.316406 265.238281 C 78.839844 262.917969 79.625 260.433594 80.554688 257.847656 Z M 159.570312 326.480469 C 158.191406 326.484375 156.824219 326.4375 155.460938 326.34375 C 156.34375 326.214844 157.242188 326.089844 158.058594 325.925781 Z M 156.746094 325.453125 C 155.351562 325.695312 153.855469 325.886719 152.265625 326.035156 C 138.71875 324.351562 126.035156 317.804688 115.335938 305.460938 C 116.042969 305.136719 116.707031 304.894531 117.460938 304.488281 C 118.242188 304.066406 119.105469 303.484375 119.933594 302.976562 C 131.652344 313.144531 144.066406 320.570312 156.746094 325.453125 Z M 121.902344 300.988281 C 121.234375 301.441406 120.632812 301.746094 119.996094 302.148438 C 117.882812 300.300781 115.792969 298.378906 113.730469 296.347656 C 116.386719 298.023438 119.109375 299.558594 121.902344 300.988281 Z M 107.53125 290.9375 L 107.59375 290.992188 L 108.78125 292.242188 C 107.835938 291.5625 106.933594 290.824219 106.007812 290.109375 C 106.261719 290.214844 106.519531 290.300781 106.773438 290.40625 C 107.03125 290.578125 107.269531 290.765625 107.53125 290.9375 Z M 78.144531 266.347656 C 84.683594 273.363281 92.199219 280.035156 100.75 286.242188 C 101.171875 286.683594 101.601562 287.121094 102.035156 287.554688 C 101.535156 287.308594 101.019531 287.101562 100.523438 286.84375 L 100.511719 286.835938 C 91.460938 282.871094 83.804688 278.191406 77.390625 272.953125 C 77.386719 270.933594 77.679688 268.703125 78.144531 266.347656 Z M 103.917969 288.449219 C 103.886719 288.433594 103.851562 288.421875 103.820312 288.410156 L 103.792969 288.363281 Z M 111.023438 294.558594 C 113.769531 297.375 116.558594 300.03125 119.394531 302.519531 C 118.648438 302.976562 117.855469 303.511719 117.148438 303.894531 C 116.34375 304.332031 115.636719 304.589844 114.886719 304.925781 C 111.226562 300.621094 107.796875 295.628906 104.660156 289.910156 C 106.726562 291.546875 108.847656 293.097656 111.023438 294.558594 Z M 103.027344 288.746094 C 102.203125 292.972656 101.839844 296.5 102.019531 299.230469 C 102.117188 300.75 102.375 302.054688 102.769531 303.148438 C 101.90625 302.476562 101.015625 301.84375 100.164062 301.15625 C 94.40625 296.542969 88.953125 291.597656 84.015625 286.605469 C 88.191406 288.8125 94.230469 289.488281 102.332031 288.421875 Z M 103.605469 289.390625 C 106.855469 295.445312 110.433594 300.691406 114.269531 305.214844 C 112.550781 305.9375 110.945312 306.476562 109.59375 306.625 C 108.707031 306.71875 107.929688 306.675781 107.214844 306.523438 C 106.101562 305.714844 105.015625 304.867188 103.914062 304.03125 C 103.253906 302.855469 102.820312 301.273438 102.683594 299.199219 C 102.519531 296.671875 102.867188 293.328125 103.605469 289.390625 Z M 146.179688 325.628906 C 145.625 325.523438 145.09375 325.476562 144.527344 325.347656 L 141.902344 324.445312 C 143.3125 324.902344 144.746094 325.289062 146.179688 325.628906 Z M 100.996094 287.792969 C 91.808594 288.800781 85.441406 287.515625 81.75 284.242188 C 81.164062 283.628906 80.59375 283.023438 80.027344 282.40625 C 78.363281 280.128906 77.507812 277.21875 77.386719 273.785156 C 83.761719 278.929688 91.316406 283.542969 100.214844 287.441406 L 100.25 287.449219 L 100.996094 287.796875 Z M 60.183594 254.199219 C 60.851562 255.328125 61.527344 256.449219 62.269531 257.550781 C 62.445312 258.027344 62.566406 258.445312 62.75 258.929688 C 61.851562 257.367188 61.019531 255.789062 60.183594 254.199219 Z M 140.40625 323.925781 C 132.398438 321.050781 124.585938 317.429688 117.035156 313.085938 C 114.132812 311.289062 111.238281 309.371094 108.378906 307.332031 C 108.792969 307.34375 109.214844 307.34375 109.660156 307.296875 C 111.152344 307.136719 112.882812 306.539062 114.714844 305.75 C 122.386719 314.636719 131.085938 320.601562 140.40625 323.925781 Z M 63.652344 259.472656 C 67.214844 264.386719 71.554688 269.007812 76.710938 273.253906 C 76.75 275.921875 77.222656 278.300781 78.128906 280.359375 C 75.015625 276.863281 72.230469 273.398438 69.859375 270.066406 C 69.550781 269.621094 69.257812 269.171875 68.953125 268.722656 C 66.914062 265.746094 65.171875 262.867188 63.902344 260.191406 C 63.898438 260.183594 63.902344 260.175781 63.902344 260.167969 C 63.800781 259.917969 63.75 259.722656 63.652344 259.472656 Z M 63.652344 259.472656 " fill-opacity="1" fill-rule="evenodd"/></g></g></g></g></g></g><g fill="#f8f8f8" fill-opacity="1"><g transform="translate(312.716951, 243.246526)"><g><path d="M -52.078125 9.515625 C -49.753906 6.304688 -48.082031 2.9375 -47.0625 -0.59375 C -46.050781 -4.132812 -45.640625 -7.6875 -45.828125 -11.25 C -46.023438 -14.8125 -46.800781 -18.253906 -48.15625 -21.578125 C -49.519531 -24.898438 -51.507812 -28 -54.125 -30.875 C -59.28125 -36.5625 -65.429688 -39.957031 -72.578125 -41.0625 C -79.722656 -42.175781 -86.945312 -40.816406 -94.25 -36.984375 L -109.1875 -53.46875 C -103.414062 -57.457031 -97.316406 -60.253906 -90.890625 -61.859375 C -84.472656 -63.460938 -78.097656 -63.925781 -71.765625 -63.25 C -65.429688 -62.582031 -59.347656 -60.785156 -53.515625 -57.859375 C -47.679688 -54.929688 -42.460938 -50.925781 -37.859375 -45.84375 C -33.242188 -40.769531 -29.765625 -35.148438 -27.421875 -28.984375 C -25.078125 -22.828125 -23.878906 -16.519531 -23.828125 -10.0625 C -23.785156 -3.613281 -24.878906 2.722656 -27.109375 8.953125 C -29.335938 15.179688 -32.675781 20.863281 -37.125 26 Z M -46.328125 34.359375 C -51.878906 38.296875 -57.859375 41.0625 -64.265625 42.65625 C -70.679688 44.257812 -77.09375 44.722656 -83.5 44.046875 C -89.914062 43.367188 -96.078125 41.566406 -101.984375 38.640625 C -107.898438 35.710938 -113.164062 31.710938 -117.78125 26.640625 C -122.382812 21.554688 -125.859375 15.96875 -128.203125 9.875 C -130.546875 3.78125 -131.738281 -2.445312 -131.78125 -8.8125 C -131.832031 -15.1875 -130.742188 -21.492188 -128.515625 -27.734375 C -126.296875 -33.972656 -122.921875 -39.765625 -118.390625 -45.109375 L -103.453125 -28.625 C -107.984375 -21.738281 -110.046875 -14.679688 -109.640625 -7.453125 C -109.234375 -0.234375 -106.453125 6.21875 -101.296875 11.90625 C -98.679688 14.78125 -95.785156 17.050781 -92.609375 18.71875 C -89.429688 20.394531 -86.078125 21.503906 -82.546875 22.046875 C -79.023438 22.585938 -75.4375 22.507812 -71.78125 21.8125 C -68.132812 21.125 -64.632812 19.8125 -61.28125 17.875 Z M -46.328125 34.359375 "/></g></g></g><g fill="#f8f8f8" fill-opacity="1"><g transform="translate(98.897004, 183.406052)"><g><path d="M 9.765625 -97.5625 L 30.765625 -97.5625 L 30.765625 0 L 9.765625 0 Z M 74.8125 -97.5625 L 95.8125 -97.5625 L 95.8125 0 L 74.8125 0 Z M 39.234375 -59.0625 L 66.359375 -59.0625 L 66.359375 -38.65625 L 39.234375 -38.65625 Z M 39.234375 -59.0625 "/></g></g></g><g mask="url(#59b90d766b)"><g transform="matrix(1, 0, 0, 1, 48, 72)"><g clip-path="url(#b01bf8a9b3)"><g clip-path="url(#4b93e7b777)"><g clip-path="url(#bd45e14fea)"><g clip-path="url(#8eba1a5683)"><path fill="#ffffff" d="M 266.996094 190.195312 L 129.960938 136.410156 L 126.617188 135.101562 L 110.144531 128.632812 L 124.726562 136.847656 L 122.085938 139.285156 C 121.371094 139.9375 120.296875 140.015625 119.496094 139.472656 L 117.082031 137.820312 C 109.152344 132.394531 98.242188 136.410156 95.722656 145.683594 L 94.957031 148.5 C 94.699219 149.4375 93.832031 150.074219 92.863281 150.035156 L 72.929688 149.234375 C 71.960938 149.195312 71.148438 148.492188 70.96875 147.539062 L 70.429688 144.664062 C 68.660156 135.222656 58.105469 130.34375 49.769531 135.117188 L 47.230469 136.566406 C 46.386719 137.054688 45.324219 136.886719 44.667969 136.175781 L 31.140625 121.511719 C 30.484375 120.800781 30.40625 119.730469 30.949219 118.929688 L 32.601562 116.515625 C 38.027344 108.585938 34.011719 97.675781 24.746094 95.152344 L 21.921875 94.386719 C 20.984375 94.128906 20.351562 93.265625 20.390625 92.296875 L 21.1875 72.363281 C 21.226562 71.394531 21.929688 70.578125 22.878906 70.402344 L 25.757812 69.863281 C 35.199219 68.09375 40.078125 57.539062 35.308594 49.195312 L 33.851562 46.664062 C 33.375 45.820312 33.539062 44.761719 34.25 44.097656 L 48.90625 30.574219 C 49.621094 29.910156 50.699219 29.835938 51.492188 30.382812 L 53.90625 32.03125 C 61.835938 37.457031 72.746094 33.441406 75.269531 24.171875 L 76.042969 21.351562 C 76.289062 20.417969 77.164062 19.78125 78.132812 19.820312 L 98.0625 20.621094 C 99.03125 20.664062 99.84375 21.363281 100.023438 22.316406 L 100.558594 25.191406 C 102.332031 34.632812 112.886719 39.503906 121.226562 34.738281 L 123.757812 33.285156 C 124.605469 32.804688 125.667969 32.96875 126.324219 33.679688 L 139.847656 48.339844 C 140.511719 49.054688 140.589844 50.125 140.039062 50.925781 L 138.386719 53.335938 C 132.960938 61.269531 136.980469 72.179688 146.25 74.703125 L 149.074219 75.46875 C 150.007812 75.726562 150.640625 76.589844 150.601562 77.558594 L 150.378906 83 C 150.390625 82.910156 136.679688 77.597656 136.1875 77.410156 L 149.367188 85.175781 L 150.273438 85.707031 L 219.398438 126.429688 L 121.683594 80.957031 C 121.089844 75.453125 119.261719 70.304688 116.46875 65.792969 C 110.320312 55.859375 99.511719 49.054688 86.957031 48.550781 C 66.871094 47.746094 49.929688 63.378906 49.121094 83.460938 C 48.3125 103.554688 63.949219 120.5 84.035156 121.304688 C 86.277344 121.394531 88.476562 121.28125 90.621094 120.972656 C 96.148438 120.195312 101.304688 118.167969 105.761719 115.167969 L 266.996094 190.195312 " fill-opacity="1" fill-rule="nonzero"/></g></g></g><g clip-path="url(#416a8100b9)"><g clip-path="url(#de9a889541)"><g clip-path="url(#67afb7bec0)"><path fill="#ffffff" d="M 74.917969 113.9375 C 74.121094 113.640625 73.328125 113.3125 72.546875 112.949219 C 56.960938 105.695312 50.203125 87.183594 57.457031 71.601562 C 64.707031 56.015625 83.21875 49.261719 98.808594 56.515625 C 99.589844 56.878906 100.351562 57.273438 101.089844 57.691406 C 86.042969 52.125 68.992188 58.964844 62.105469 73.765625 C 55.21875 88.5625 60.96875 106.011719 74.917969 113.9375 " fill-opacity="1" fill-rule="nonzero"/></g></g></g></g></g></g><g mask="url(#14db097aba)"><g transform="matrix(1, 0, 0, 1, 113, 132)"><g clip-path="url(#61e353bfdf)"><g clip-path="url(#0924eb18c5)"><g clip-path="url(#ae817a7f90)"><g clip-path="url(#9cc45d3ec6)"><path fill="#ffffff" d="M 27.210938 32.960938 C 19.074219 31.917969 -3.363281 33.816406 2.230469 40.949219 C 2.542969 41.347656 3.019531 41.820312 3.414062 42.136719 C 3.789062 42.4375 5.738281 43.914062 7.230469 43.324219 C 19.019531 36.375 39.515625 41.488281 38.050781 48.761719 C 37.566406 51.144531 34.871094 52.953125 31.957031 54.074219 C 31.960938 54.089844 31.957031 54.109375 31.960938 54.121094 C 32.878906 53.820312 33.171875 53.707031 34.050781 53.351562 C 36.167969 52.410156 36.382812 52.3125 37.804688 51.523438 C 38.765625 50.941406 40.027344 50.144531 40.949219 49.511719 C 50.117188 42.355469 41.085938 34.738281 27.210938 32.960938 " fill-opacity="1" fill-rule="evenodd"/></g></g></g><g clip-path="url(#5c6a7f4179)"><g clip-path="url(#1686151444)"><g clip-path="url(#ef1c12595d)"><path fill="#ffffff" d="M 8.84375 29.441406 C 32.699219 25.015625 52.753906 35.027344 47.019531 44.6875 C 47.039062 44.707031 47.0625 44.722656 47.085938 44.742188 C 48.367188 43.089844 49.359375 41.667969 50.738281 38.980469 L 51.304688 37.777344 C 57.308594 21.308594 17.253906 16.929688 6.296875 21.523438 C 3.917969 22.519531 2.871094 25.085938 3.976562 27.242188 C 4.472656 28.21875 5.773438 29.800781 8.84375 29.441406 " fill-opacity="1" fill-rule="evenodd"/></g></g></g><g clip-path="url(#de025903c1)"><g clip-path="url(#938f3b453d)"><g clip-path="url(#6fb931583b)"><path fill="#ffffff" d="M 31.285156 16.425781 C 34.019531 16.914062 36.617188 17.570312 39.003906 18.378906 C 41.378906 19.183594 43.554688 20.140625 45.441406 21.234375 C 47.328125 22.324219 48.921875 23.554688 50.164062 24.90625 C 50.746094 25.535156 51.226562 26.171875 51.613281 26.8125 C 52.011719 27.449219 52.304688 28.097656 52.515625 28.742188 C 52.726562 29.382812 52.84375 30.03125 52.878906 30.671875 C 52.894531 30.941406 52.882812 31.207031 52.863281 31.472656 C 52.875 31.472656 52.886719 31.480469 52.90625 31.484375 C 53.273438 29.1875 53.359375 28.363281 53.417969 25.75 C 53.375 24.824219 53.355469 23.585938 53.277344 22.660156 C 52.941406 20.785156 51.9375 15.074219 39.933594 10.695312 C 39.746094 10.628906 21.070312 4.238281 17.933594 9.773438 C 17.558594 10.4375 17.425781 11.433594 17.617188 12.144531 C 17.84375 12.984375 18.792969 14.992188 22.753906 15.472656 C 25.6875 15.613281 28.554688 15.9375 31.285156 16.425781 " fill-opacity="1" fill-rule="evenodd"/></g></g></g><g clip-path="url(#0ad17acf45)"><g clip-path="url(#fe8f328a83)"><g clip-path="url(#231f0e449e)"><path fill="#ffffff" d="M 38.226562 6.640625 C 39.445312 7.039062 40.613281 7.476562 41.722656 7.957031 C 42.824219 8.433594 43.863281 8.949219 44.828125 9.5 C 45.792969 10.050781 46.683594 10.640625 47.488281 11.261719 C 48.292969 11.886719 49.019531 12.539062 49.648438 13.226562 C 49.929688 13.535156 50.1875 13.847656 50.421875 14.15625 C 50.660156 14.46875 50.875 14.78125 51.058594 15.097656 C 51.101562 15.167969 51.132812 15.242188 51.179688 15.316406 C 51.183594 15.195312 49.832031 11.828125 48.613281 9.761719 C 47.859375 8.476562 47.105469 7.167969 44.722656 5.261719 C 44.007812 4.683594 43.191406 4.167969 42.332031 3.671875 C 41.453125 3.171875 40.519531 2.710938 39.53125 2.277344 C 38.535156 1.847656 37.484375 1.453125 36.386719 1.089844 C 32.683594 0.125 33.054688 2.261719 33.480469 3.085938 C 33.734375 3.589844 34.835938 5.332031 38.226562 6.640625 " fill-opacity="1" fill-rule="evenodd"/></g></g></g><g clip-path="url(#04399ad54e)"><g clip-path="url(#1b0f42fb09)"><g clip-path="url(#c2b591f57a)"><path fill="#ffffff" d="M 22.808594 44.839844 C 17.554688 44.304688 3.160156 45.886719 6.871094 50.382812 C 7.078125 50.636719 7.394531 50.929688 7.652344 51.128906 C 7.898438 51.316406 9.175781 52.234375 10.125 51.832031 C 20.554688 45.320312 34.664062 51.441406 22.898438 56.3125 C 22.898438 56.324219 22.898438 56.335938 22.898438 56.34375 C 35.476562 51.886719 35.507812 46.148438 22.808594 44.839844 " fill-opacity="1" fill-rule="evenodd"/></g></g></g></g></g></g><path fill="#ffffff" d="M 187.5 0 C 83.90625 0 0 83.90625 0 187.5 C 0 291.09375 83.90625 375 187.5 375 C 291.09375 375 375 291.09375 375 187.5 C 375 83.90625 291.09375 0 187.5 0 Z M 187.5 337.5 C 104.625 337.5 37.5 270.375 37.5 187.5 C 37.5 104.625 104.625 37.5 187.5 37.5 C 270.375 37.5 337.5 104.625 337.5 187.5 C 337.5 270.375 270.375 337.5 187.5 337.5 Z M 187.5 337.5 " fill-opacity="1" fill-rule="nonzero"/></svg>