<?xml version="1.0" encoding="UTF-8" standalone="no"?>
<svg
   width="489.91107"
   zoomAndPan="magnify"
   viewBox="0 0 367.4333 60.055388"
   height="80.073853"
   preserveAspectRatio="xMidYMid"
   version="1.0"
   id="svg76"
   sodipodi:docname="5.svg"
   inkscape:version="1.3 (0e150ed6c4, 2023-07-21)"
   xmlns:inkscape="http://www.inkscape.org/namespaces/inkscape"
   xmlns:sodipodi="http://sodipodi.sourceforge.net/DTD/sodipodi-0.dtd"
   xmlns="http://www.w3.org/2000/svg"
   xmlns:svg="http://www.w3.org/2000/svg">
  <sodipodi:namedview
     id="namedview76"
     pagecolor="#ffffff"
     bordercolor="#000000"
     borderopacity="0.25"
     inkscape:showpageshadow="2"
     inkscape:pageopacity="0.0"
     inkscape:pagecheckerboard="true"
     inkscape:deskcolor="#d1d1d1"
     inkscape:zoom="1.642"
     inkscape:cx="243.60536"
     inkscape:cy="46.589525"
     inkscape:window-width="1920"
     inkscape:window-height="1017"
     inkscape:window-x="2552"
     inkscape:window-y="-8"
     inkscape:window-maximized="1"
     inkscape:current-layer="svg76" />
  <defs
     id="defs22">
    <filter
       x="0"
       y="0"
       width="1"
       height="1"
       id="3ac10190cc">
      <feColorMatrix
         values="0 0 0 0 1 0 0 0 0 1 0 0 0 0 1 0 0 0 1 0"
         color-interpolation-filters="sRGB"
         id="feColorMatrix1" />
    </filter>
    <g
       id="g1" />
    <mask
       id="71b56b1b6a">
      <g
         filter="url(#3ac10190cc)"
         id="g2">
        <rect
           x="-37.5"
           width="450"
           fill="#000000"
           y="-37.5"
           height="450"
           fill-opacity="0.75"
           id="rect1" />
      </g>
    </mask>
    <clipPath
       id="0d9952d6a8">
      <path
         d="m 1,12 h 18 v 9 H 1 Z m 0,0"
         clip-rule="nonzero"
         id="path2" />
    </clipPath>
    <clipPath
       id="299e4973e5">
      <path
         d="m -0.710938,0.15625 24,-0.414062 0.371094,21.746093 -23.996094,0.414063 z m 0,0"
         clip-rule="nonzero"
         id="path3" />
    </clipPath>
    <clipPath
       id="6598fbd56e">
      <path
         d="m -0.710938,0.15625 24,-0.414062 0.371094,21.746093 -23.996094,0.414063 z m 0,0"
         clip-rule="nonzero"
         id="path4" />
    </clipPath>
    <clipPath
       id="7ede34cae8">
      <path
         d="M 2,7 H 21 V 18 H 2 Z m 0,0"
         clip-rule="nonzero"
         id="path5" />
    </clipPath>
    <clipPath
       id="3586aff9ab">
      <path
         d="m -0.710938,0.15625 24,-0.414062 0.371094,21.746093 -23.996094,0.414063 z m 0,0"
         clip-rule="nonzero"
         id="path6" />
    </clipPath>
    <clipPath
       id="3054b1741e">
      <path
         d="m -0.710938,0.15625 24,-0.414062 0.371094,21.746093 -23.996094,0.414063 z m 0,0"
         clip-rule="nonzero"
         id="path7" />
    </clipPath>
    <clipPath
       id="8d4f5a1dcd">
      <path
         d="M 7,2 H 21.960938 V 13 H 7 Z m 0,0"
         clip-rule="nonzero"
         id="path8" />
    </clipPath>
    <clipPath
       id="d2aad2b883">
      <path
         d="m -0.710938,0.15625 24,-0.414062 0.371094,21.746093 -23.996094,0.414063 z m 0,0"
         clip-rule="nonzero"
         id="path9" />
    </clipPath>
    <clipPath
       id="41e7890289">
      <path
         d="m -0.710938,0.15625 24,-0.414062 0.371094,21.746093 -23.996094,0.414063 z m 0,0"
         clip-rule="nonzero"
         id="path10" />
    </clipPath>
    <clipPath
       id="0b38e4a0ff">
      <path
         d="m 13,0 h 8 v 6 h -8 z m 0,0"
         clip-rule="nonzero"
         id="path11" />
    </clipPath>
    <clipPath
       id="475edb8861">
      <path
         d="m -0.710938,0.15625 24,-0.414062 0.371094,21.746093 -23.996094,0.414063 z m 0,0"
         clip-rule="nonzero"
         id="path12" />
    </clipPath>
    <clipPath
       id="de4c94d4bf">
      <path
         d="m -0.710938,0.15625 24,-0.414062 0.371094,21.746093 -23.996094,0.414063 z m 0,0"
         clip-rule="nonzero"
         id="path13" />
    </clipPath>
    <clipPath
       id="4ebb13ea19">
      <path
         d="m 3,17 h 11 v 5 H 3 Z m 0,0"
         clip-rule="nonzero"
         id="path14" />
    </clipPath>
    <clipPath
       id="6f06a94f11">
      <path
         d="m -0.710938,0.15625 24,-0.414062 0.371094,21.746093 -23.996094,0.414063 z m 0,0"
         clip-rule="nonzero"
         id="path15" />
    </clipPath>
    <clipPath
       id="65d9832370">
      <path
         d="m -0.710938,0.15625 24,-0.414062 0.371094,21.746093 -23.996094,0.414063 z m 0,0"
         clip-rule="nonzero"
         id="path16" />
    </clipPath>
    <clipPath
       id="30b3692c3c">
      <rect
         x="0"
         width="22"
         y="0"
         height="23"
         id="rect16" />
    </clipPath>
    <mask
       id="fcb78ca101">
      <g
         filter="url(#3ac10190cc)"
         id="g17">
        <rect
           x="-37.5"
           width="450"
           fill="#000000"
           y="-37.5"
           height="450"
           fill-opacity="0.75"
           id="rect17" />
      </g>
    </mask>
    <clipPath
       id="b818358c44">
      <path
         d="M 6,7 H 106 V 68 H 6 Z m 0,0"
         clip-rule="nonzero"
         id="path17" />
    </clipPath>
    <clipPath
       id="dc55904e4f">
      <path
         d="m 17.191406,0.902344 100.019534,36.574218 -17,46.488282 L 0.191406,47.390625 Z m 0,0"
         clip-rule="nonzero"
         id="path18" />
    </clipPath>
    <clipPath
       id="63ae7ba197">
      <path
         d="m 17.191406,0.902344 100.019534,36.574218 -17,46.488282 L 0.191406,47.390625 Z m 0,0"
         clip-rule="nonzero"
         id="path19" />
    </clipPath>
    <clipPath
       id="c5291780a3">
      <path
         d="M 20,20 H 38 V 45 H 20 Z m 0,0"
         clip-rule="nonzero"
         id="path20" />
    </clipPath>
    <clipPath
       id="3d4fb649c5">
      <path
         d="m 17.191406,0.902344 100.019534,36.574218 -17,46.488282 L 0.191406,47.390625 Z m 0,0"
         clip-rule="nonzero"
         id="path21" />
    </clipPath>
    <clipPath
       id="937b46d2c1">
      <path
         d="m 17.191406,0.902344 100.019534,36.574218 -17,46.488282 L 0.191406,47.390625 Z m 0,0"
         clip-rule="nonzero"
         id="path22" />
    </clipPath>
    <clipPath
       id="8e89729111">
      <rect
         x="0"
         width="117"
         y="0"
         height="85"
         id="rect22" />
    </clipPath>
  </defs>
  <g
     fill="#ffffff"
     fill-opacity="1"
     id="g25"
     transform="translate(-4.660161,-152.53055)">
    <g
       transform="translate(0.644536,204.75004)"
       id="g24">
      <g
         id="g23">
        <path
           d="M 4.015625,-40.140625 H 12.65625 V 0 H 4.015625 Z m 26.765625,0 h 8.640625 V 0 H 30.78125 Z m -14.640625,15.84375 h 11.15625 v 8.390625 h -11.15625 z m 0,0"
           id="path23" />
      </g>
    </g>
  </g>
  <g
     fill="#ffffff"
     fill-opacity="1"
     id="g28"
     transform="translate(-4.660161,-152.53055)">
    <g
       transform="translate(44.024496,204.75004)"
       id="g27">
      <g
         id="g26">
        <path
           d="M 11.09375,-27.421875 15.90625,-18 6.65625,0 H -3 Z M 27.0625,-6.71875 h -12 l 4.25,-8.40625 h 3.421875 L 13.6875,-32.578125 18.546875,-41.9375 40.203125,0 h -9.71875 z m 0,0"
           id="path25" />
      </g>
    </g>
  </g>
  <g
     fill="#ffffff"
     fill-opacity="1"
     id="g31"
     transform="translate(-4.660161,-152.53055)">
    <g
       transform="translate(81.884456,204.75004)"
       id="g30">
      <g
         id="g29">
        <path
           d="M 4.015625,-40.140625 H 12.65625 V 0 H 4.015625 Z m 10.203125,20.09375 5.21875,-7.3125 L 39.65625,0 H 29.046875 Z M 22.4375,-31.5 l 6.25,-8.640625 h 10.546875 l -11.453125,15.84375 z m 0,0"
           id="path28" />
      </g>
    </g>
  </g>
  <g
     fill="#ffffff"
     fill-opacity="1"
     id="g34"
     transform="translate(-4.660161,-152.53055)">
    <g
       transform="translate(119.38442,204.75004)"
       id="g33">
      <g
         id="g32">
        <path
           d="M 4.015625,-40.140625 H 12.65625 V 0 H 4.015625 Z M 16.375,-8.40625 H 28.015625 V 0 H 16.375 Z m 0,0"
           id="path31" />
      </g>
    </g>
  </g>
  <g
     fill="#ffffff"
     fill-opacity="1"
     id="g37"
     transform="translate(-4.660161,-152.53055)">
    <g
       transform="translate(147.34439,204.75004)"
       id="g36">
      <g
         id="g35">
        <path
           d="m 9.84375,-20.578125 14.28125,-19.5625 h 10.671875 l -16.3125,22.375 V 0 H 9.84375 Z m -13.796875,-19.5625 H 6.59375 l 5.59375,7.921875 -5.40625,7.265625 z m 0,0"
           id="path34" />
      </g>
    </g>
  </g>
  <g
     fill="#ffffff"
     fill-opacity="1"
     id="g40"
     transform="translate(-4.660161,-152.53055)">
    <g
       transform="translate(201.15233,204.75004)"
       id="g39">
      <g
         id="g38">
        <path
           d="m 10.921875,-17.578125 c 0.320313,1.523437 0.863281,2.890625 1.625,4.109375 0.757813,1.21875 1.675781,2.273438 2.75,3.15625 1.082031,0.875 2.28125,1.554688 3.59375,2.03125 1.320313,0.480469 2.742187,0.71875 4.265625,0.71875 3,0 5.597656,-0.890625 7.796875,-2.671875 2.207031,-1.78125 3.707031,-4.226563 4.5,-7.34375 h 8.703125 c -0.355469,2.71875 -1.148438,5.21875 -2.375,7.5 -1.21875,2.28125 -2.761719,4.25 -4.625,5.90625 -1.855469,1.65625 -3.976562,2.949219 -6.359375,3.875 -2.375,0.914063 -4.902344,1.375 -7.578125,1.375 -2.679688,0 -5.21875,-0.46875 -7.625,-1.40625 C 13.195312,-1.265625 11.054688,-2.570312 9.171875,-4.25 7.296875,-5.9375 5.75,-7.921875 4.53125,-10.203125 c -1.21875,-2.28125 -1.992188,-4.738281 -2.3125,-7.375 z M 2.21875,-22.4375 c 0.320312,-2.644531 1.09375,-5.101562 2.3125,-7.375 1.21875,-2.28125 2.765625,-4.257812 4.640625,-5.9375 1.882813,-1.6875 4.023437,-3 6.421875,-3.9375 2.40625,-0.9375 4.945312,-1.40625 7.625,-1.40625 2.675781,0 5.203125,0.460938 7.578125,1.375 2.382813,0.917969 4.503906,2.210938 6.359375,3.875 1.863281,1.65625 3.40625,3.625 4.625,5.90625 1.226562,2.28125 2.019531,4.78125 2.375,7.5 h -8.703125 c -0.792969,-3.125 -2.292969,-5.570312 -4.5,-7.34375 -2.199219,-1.78125 -4.796875,-2.671875 -7.796875,-2.671875 -1.523438,0 -2.945312,0.242187 -4.265625,0.71875 -1.3125,0.480469 -2.511719,1.164063 -3.59375,2.046875 -1.074219,0.875 -1.992187,1.933594 -2.75,3.171875 -0.761719,1.242187 -1.304687,2.601563 -1.625,4.078125 z m 0,0"
           id="path37" />
      </g>
    </g>
  </g>
  <g
     fill="#ffffff"
     fill-opacity="1"
     id="g43"
     transform="translate(-4.660161,-152.53055)">
    <g
       transform="translate(247.53228,204.75004)"
       id="g42">
      <g
         id="g41">
        <path
           d="M 4.015625,-40.140625 H 12.65625 V 0 H 4.015625 Z m 13.5625,31.734375 h 15.78125 V 0 h -15.78125 z m 0,-15.828125 h 15.78125 v 8.390625 h -15.78125 z m 0,-15.90625 h 15.78125 v 8.40625 h -15.78125 z m 0,0"
           id="path40" />
      </g>
    </g>
  </g>
  <g
     fill="#ffffff"
     fill-opacity="1"
     id="g46"
     transform="translate(-4.660161,-152.53055)">
    <g
       transform="translate(284.37224,204.75004)"
       id="g45">
      <g
         id="g44">
        <path
           d="m 4.015625,-23.640625 8.640625,7.5625 V 0 H 4.015625 Z m 0,-6.359375 v -11.453125 l 26.765625,23.6875 v -22.375 h 8.640625 v 41.40625 z m 0,0"
           id="path43" />
      </g>
    </g>
  </g>
  <g
     fill="#ffffff"
     fill-opacity="1"
     id="g49"
     transform="translate(-4.660161,-152.53055)">
    <g
       transform="translate(327.8122,204.75004)"
       id="g48">
      <g
         id="g47">
        <path
           d="m 42.296875,-10.921875 c -0.917969,1.886719 -2.039063,3.570313 -3.359375,5.046875 -1.324219,1.480469 -2.804688,2.742188 -4.4375,3.78125 -1.636719,1.03125 -3.398438,1.828125 -5.28125,2.390625 -1.875,0.5625 -3.835938,0.84375 -5.875,0.84375 C 20.414062,1.140625 17.671875,0.59375 15.109375,-0.5 12.554688,-1.601562 10.316406,-3.113281 8.390625,-5.03125 6.472656,-6.957031 4.960938,-9.195312 3.859375,-11.75 2.765625,-14.3125 2.21875,-17.054688 2.21875,-19.984375 c 0,-2.914063 0.546875,-5.65625 1.640625,-8.21875 1.101563,-2.5625 2.601563,-4.800781 4.5,-6.71875 1.90625,-1.914063 4.140625,-3.421875 6.703125,-4.515625 2.5625,-1.101562 5.320312,-1.65625 8.28125,-1.65625 5.875,0 10.929688,2.15625 15.171875,6.46875 l -6.296875,6 c -1.4375,-1.351562 -2.851562,-2.320312 -4.234375,-2.90625 -1.375,-0.582031 -2.921875,-0.875 -4.640625,-0.875 -1.761719,0 -3.402344,0.324219 -4.921875,0.96875 -1.523437,0.636719 -2.855469,1.515625 -4,2.640625 -1.136719,1.117187 -2.027344,2.433594 -2.671875,3.953125 -0.636719,1.523438 -0.953125,3.140625 -0.953125,4.859375 0,1.71875 0.328125,3.339844 0.984375,4.859375 0.664062,1.523438 1.554688,2.855469 2.671875,4 1.125,1.136719 2.445313,2.039062 3.96875,2.703125 1.519531,0.65625 3.140625,0.984375 4.859375,0.984375 3.320312,0 6.179688,-1.160156 8.578125,-3.484375 z M 23.34375,-24.125 h 20.515625 c 0.15625,0.84375 0.265625,1.570312 0.328125,2.171875 0.0625,0.59375 0.09375,1.273437 0.09375,2.03125 0,0.761719 -0.03125,1.445313 -0.09375,2.046875 -0.0625,0.59375 -0.171875,1.3125 -0.328125,2.15625 H 23.34375 Z m 0,0"
           id="path46" />
      </g>
    </g>
  </g>
  <g
     mask="url(#71b56b1b6a)"
     id="g67"
     transform="translate(-4.660161,-152.53055)">
    <g
       transform="translate(153,168)"
       id="g66">
      <g
         clip-path="url(#30b3692c3c)"
         id="g65">
        <g
           clip-path="url(#0d9952d6a8)"
           id="g52">
          <g
             clip-path="url(#299e4973e5)"
             id="g51">
            <g
               clip-path="url(#6598fbd56e)"
               id="g50">
              <path
                 fill="#ffffff"
                 d="m 11.386719,12.675781 c -3.160157,-0.394531 -11.871094,0.375 -9.691407,3.136719 0.121094,0.15625 0.308594,0.339844 0.460938,0.460938 0.148438,0.117187 0.90625,0.6875 1.488281,0.457031 4.566407,-2.71875 12.535157,-0.761719 11.976563,2.066406 -0.183594,0.925781 -1.226563,1.632813 -2.359375,2.070313 0,0.0078 0,0.01562 0,0.01953 0.359375,-0.117188 0.472656,-0.160157 0.8125,-0.300781 0.820312,-0.371094 0.90625,-0.40625 1.457031,-0.714844 0.371094,-0.230469 0.859375,-0.539063 1.21875,-0.789063 3.546875,-2.792969 0.03125,-5.738281 -5.363281,-6.40625"
                 fill-opacity="1"
                 fill-rule="evenodd"
                 id="path49" />
            </g>
          </g>
        </g>
        <g
           clip-path="url(#7ede34cae8)"
           id="g55">
          <g
             clip-path="url(#3586aff9ab)"
             id="g54">
            <g
               clip-path="url(#3054b1741e)"
               id="g53">
              <path
                 fill="#ffffff"
                 d="m 4.25,11.335938 c 9.257812,-1.753907 17.0625,2.105468 14.847656,5.863281 0.0078,0.0078 0.01953,0.01563 0.02734,0.02344 0.496094,-0.644531 0.878906,-1.199218 1.410156,-2.242187 l 0.21875,-0.46875 C 23.0625,8.105469 7.496094,6.460938 3.246094,8.261719 2.324219,8.652344 1.921875,9.652344 2.355469,10.488281 2.550781,10.867188 3.054688,11.476562 4.25,11.335938"
                 fill-opacity="1"
                 fill-rule="evenodd"
                 id="path52" />
            </g>
          </g>
        </g>
        <g
           clip-path="url(#8d4f5a1dcd)"
           id="g58">
          <g
             clip-path="url(#d2aad2b883)"
             id="g57">
            <g
               clip-path="url(#41e7890289)"
               id="g56">
              <path
                 fill="#ffffff"
                 d="m 12.945312,6.246094 c 1.0625,0.1875 2.074219,0.4375 3.003907,0.746094 0.921875,0.308593 1.769531,0.679687 2.503906,1.101562 0.734375,0.421875 1.355469,0.894531 1.839844,1.417969 0.226562,0.242187 0.414062,0.492187 0.566406,0.738281 0.152344,0.246094 0.269531,0.5 0.351563,0.75 0.08203,0.25 0.128906,0.5 0.144531,0.746094 0.0039,0.105468 0,0.210937 -0.0039,0.3125 0.0039,0 0.0078,0.0039 0.01563,0.0039 0.136718,-0.890625 0.171874,-1.210938 0.191406,-2.226562 C 21.539062,9.476562 21.53125,8.996094 21.496094,8.636719 21.363281,7.90625 20.964844,5.691406 16.296875,4.007812 16.222656,3.980469 8.960938,1.527344 7.75,3.683594 7.605469,3.941406 7.554688,4.328125 7.632812,4.605469 c 0.085938,0.324219 0.460938,1.101562 2,1.28125 1.140626,0.050781 2.253907,0.171875 3.3125,0.359375"
                 fill-opacity="1"
                 fill-rule="evenodd"
                 id="path55" />
            </g>
          </g>
        </g>
        <g
           clip-path="url(#0b38e4a0ff)"
           id="g61">
          <g
             clip-path="url(#475edb8861)"
             id="g60">
            <g
               clip-path="url(#de4c94d4bf)"
               id="g59">
              <path
                 fill="#ffffff"
                 d="m 15.628906,2.433594 c 0.472656,0.15625 0.925782,0.324218 1.359375,0.507812 0.429688,0.183594 0.832031,0.382813 1.207031,0.59375 0.378907,0.214844 0.722657,0.441406 1.035157,0.683594 0.316406,0.238281 0.597656,0.492188 0.84375,0.757812 0.109375,0.121094 0.210937,0.242188 0.300781,0.359376 0.09375,0.121093 0.175781,0.242187 0.25,0.363281 0.01563,0.03125 0.02734,0.058593 0.04687,0.085937 0,-0.046875 -0.527344,-1.351562 -1.003906,-2.152344 C 19.371094,3.136719 19.078125,2.628906 18.148438,1.890625 17.871094,1.667969 17.550781,1.46875 17.21875,1.277344 16.878906,1.082031 16.515625,0.90625 16.128906,0.738281 15.742188,0.574219 15.332031,0.421875 14.90625,0.28125 c -1.441406,-0.3710938 -1.292969,0.460938 -1.125,0.78125 0.09766,0.195312 0.527344,0.871094 1.847656,1.371094"
                 fill-opacity="1"
                 fill-rule="evenodd"
                 id="path58" />
            </g>
          </g>
        </g>
        <g
           clip-path="url(#4ebb13ea19)"
           id="g64">
          <g
             clip-path="url(#6f06a94f11)"
             id="g63">
            <g
               clip-path="url(#65d9832370)"
               id="g62">
              <path
                 fill="#ffffff"
                 d="m 9.695312,17.296875 c -2.042968,-0.203125 -7.628906,0.433594 -6.183593,2.175781 0.082031,0.09766 0.203125,0.210938 0.304687,0.285156 0.097656,0.07422 0.59375,0.429688 0.960938,0.269532 4.042968,-2.542969 9.53125,-0.1875 4.96875,1.722656 0,0.0039 0,0.01172 0,0.01172 4.878906,-1.746094 4.882812,-3.976563 -0.050782,-4.464844"
                 fill-opacity="1"
                 fill-rule="evenodd"
                 id="path61" />
            </g>
          </g>
        </g>
      </g>
    </g>
  </g>
  <g
     mask="url(#fcb78ca101)"
     id="g76"
     transform="translate(-4.660161,-152.53055)">
    <g
       transform="translate(129,145)"
       id="g75">
      <g
         clip-path="url(#8e89729111)"
         id="g74">
        <g
           clip-path="url(#b818358c44)"
           id="g70">
          <g
             clip-path="url(#dc55904e4f)"
             id="g69">
            <g
               clip-path="url(#63ae7ba197)"
               id="g68">
              <path
                 fill="#ffffff"
                 d="m 105.77344,67.585938 -54.800784,-16.296876 -1.339844,-0.398437 -6.585937,-1.957031 5.914063,2.695312 -0.941407,1.03125 C 47.761719,52.9375 47.351562,53 47.023438,52.816406 l -0.988282,-0.558594 c -3.25,-1.835937 -7.335937,0.07422 -8.007812,3.746094 l -0.203125,1.117188 c -0.07031,0.371094 -0.382813,0.644531 -0.757813,0.660156 l -7.742187,0.347656 c -0.375,0.01953 -0.710938,-0.226562 -0.8125,-0.589844 l -0.304688,-1.09375 c -0.996093,-3.597656 -5.242187,-5.136718 -8.308593,-3.015624 l -0.9375,0.644531 c -0.308594,0.21875 -0.726563,0.1875 -1.003907,-0.06641 l -5.71875,-5.226562 c -0.277343,-0.253906 -0.339843,-0.667969 -0.15625,-0.996094 l 0.558594,-0.988281 c 1.835937,-3.246094 -0.07422,-7.335937 -3.742187,-8.007813 L 7.777344,38.585938 C 7.40625,38.519531 7.132812,38.203125 7.117188,37.828125 L 6.769531,30.089844 C 6.753906,29.710938 6.996094,29.375 7.359375,29.273438 l 1.09375,-0.300782 c 3.597656,-0.996094 5.136719,-5.242187 3.015625,-8.3125 L 10.824219,19.726562 C 10.609375,19.417969 10.636719,19 10.890625,18.722656 l 5.226563,-5.71875 c 0.253906,-0.28125 0.667968,-0.34375 0.996093,-0.160156 l 0.988281,0.558594 c 3.246094,1.839844 7.335938,-0.07422 8.007813,-3.742188 L 26.3125,8.539062 C 26.37891,8.171875 26.695312,7.898438 27.074219,7.878906 L 34.8125,7.53125 c 0.375,-0.015625 0.710938,0.230469 0.8125,0.59375 l 0.304688,1.09375 c 0.996093,3.59375 5.242187,5.132812 8.308593,3.015625 l 0.933594,-0.648437 c 0.3125,-0.214844 0.730469,-0.183594 1.007813,0.06641 l 5.714843,5.230468 c 0.28125,0.253907 0.34375,0.664063 0.160157,0.992188 l -0.5625,0.988281 c -1.835938,3.25 0.07812,7.339844 3.746093,8.007813 l 1.121094,0.203125 c 0.371094,0.07031 0.644531,0.382812 0.660156,0.761719 l 0.09375,2.109374 c 0,-0.03516 -5.480469,-1.636718 -5.675781,-1.695312 l 5.355469,2.574219 0.367187,0.171875 L 85.25,44.476562 45.941406,30.101562 C 45.53125,27.992188 44.652344,26.058594 43.421875,24.40625 40.714844,20.765625 36.308594,18.488281 31.433594,18.707031 23.636719,19.058594 17.59375,25.664062 17.945312,33.464844 c 0.347657,7.800781 6.957032,13.839844 14.757813,13.492187 0.867187,-0.03906 1.714844,-0.15625 2.535156,-0.347656 2.113281,-0.480469 4.042969,-1.4375 5.667969,-2.746094 l 64.86719,23.722657"
                 fill-opacity="1"
                 fill-rule="nonzero"
                 id="path67" />
            </g>
          </g>
        </g>
        <g
           clip-path="url(#c5291780a3)"
           id="g73">
          <g
             clip-path="url(#3d4fb649c5)"
             id="g72">
            <g
               clip-path="url(#937b46d2c1)"
               id="g71">
              <path
                 fill="#ffffff"
                 d="m 28.929688,44.40625 c -0.316407,-0.08984 -0.632813,-0.191406 -0.949219,-0.304688 -6.269531,-2.292968 -9.496094,-9.234374 -7.203125,-15.503906 2.292968,-6.269531 9.234375,-9.492187 15.503906,-7.199218 0.316406,0.113281 0.625,0.242187 0.921875,0.378906 -6.003906,-1.65625 -12.378906,1.550781 -14.554687,7.503906 -2.175782,5.953125 0.621093,12.515625 6.28125,15.125"
                 fill-opacity="1"
                 fill-rule="nonzero"
                 id="path70" />
            </g>
          </g>
        </g>
      </g>
    </g>
  </g>
</svg>
