<?xml version="1.0" standalone="no"?>
<!DOCTYPE svg PUBLIC "-//W3C//DTD SVG 20010904//EN"
 "http://www.w3.org/TR/2001/REC-SVG-20010904/DTD/svg10.dtd">
<svg version="1.0" xmlns="http://www.w3.org/2000/svg"
 width="500.000000pt" height="500.000000pt" viewBox="0 0 500.000000 500.000000"
 preserveAspectRatio="xMidYMid meet">
<metadata>
Created by potrace 1.14, written by Peter Selinger 2001-2017
</metadata>
<g transform="translate(0.000000,500.000000) scale(0.100000,-0.100000)"
fill="#000000" stroke="none">
<path d="M2467 4864 c-1 -1 -56 -5 -122 -8 -66 -4 -133 -9 -150 -12 -16 -3
-37 -5 -45 -6 -8 0 -33 -4 -55 -9 -22 -4 -52 -10 -68 -13 -15 -2 -35 -7 -45
-10 -9 -3 -29 -7 -44 -10 -40 -7 -200 -55 -220 -66 -10 -6 -23 -10 -28 -10 -6
0 -30 -9 -52 -20 -23 -11 -45 -20 -50 -20 -16 0 -226 -106 -303 -153 -207
-126 -431 -315 -574 -483 -82 -95 -231 -304 -231 -323 0 -5 -3 -11 -7 -13 -32
-14 -211 -412 -238 -528 -1 -8 -10 -41 -20 -72 -9 -31 -19 -70 -22 -85 -8 -43
-11 -58 -13 -58 -1 0 -3 -9 -4 -20 -2 -11 -6 -42 -10 -70 -22 -141 -24 -185
-25 -375 0 -194 8 -310 24 -370 2 -8 6 -33 10 -55 5 -34 14 -74 50 -225 10
-40 68 -199 101 -277 181 -425 485 -787 877 -1047 62 -41 132 -84 157 -97 25
-12 56 -30 70 -40 14 -9 30 -18 35 -19 6 -1 38 -15 72 -30 67 -30 224 -90 252
-95 9 -2 16 -4 16 -5 0 -1 7 -3 15 -5 8 -2 49 -13 90 -24 41 -12 100 -25 130
-31 30 -5 69 -12 85 -15 17 -3 52 -8 80 -11 27 -2 61 -7 75 -9 32 -7 402 -6
455 1 22 3 58 6 80 9 22 2 40 4 40 5 0 1 9 3 20 4 58 9 110 18 116 21 3 2 21
7 40 10 52 9 152 37 214 61 11 4 25 8 30 9 129 32 440 195 612 322 210 154
445 392 548 555 17 27 33 48 38 48 4 0 7 4 7 8 0 5 23 47 51 93 60 99 142 259
133 259 -4 0 -2 6 4 13 9 12 62 137 66 160 2 7 6 19 9 27 8 21 48 155 52 177
2 10 4 19 5 21 2 1 4 11 5 22 1 11 3 21 5 23 1 1 3 9 5 17 42 211 46 262 45
495 -1 213 -3 255 -10 255 -3 0 -5 17 -6 38 -2 71 -27 200 -64 332 -12 41 -22
81 -22 88 -1 6 -5 12 -10 12 -4 0 -7 3 -6 8 6 22 -66 198 -142 347 -82 160
-175 300 -300 450 -31 37 -236 242 -271 271 -134 110 -313 229 -454 301 -69
36 -239 109 -270 117 -5 2 -17 6 -25 9 -51 19 -191 59 -255 73 -46 10 -113 23
-155 29 -25 4 -56 9 -70 11 -22 3 -113 9 -278 17 -29 2 -53 2 -55 1z m268
-158 c28 -4 66 -9 85 -12 19 -4 49 -8 65 -9 17 -2 31 -4 33 -5 1 -2 5 -3 10
-4 13 -3 86 -18 111 -22 13 -3 32 -9 43 -15 10 -5 18 -7 18 -4 0 3 8 1 18 -4
11 -6 30 -12 43 -14 67 -13 321 -124 449 -197 203 -117 416 -296 584 -490 80
-93 226 -305 226 -329 0 -5 4 -11 9 -13 21 -8 176 -363 195 -449 4 -13 15 -58
26 -99 21 -78 27 -102 36 -160 3 -19 7 -46 10 -60 11 -70 18 -181 18 -325 0
-164 -5 -226 -29 -370 -2 -16 -7 -43 -9 -60 -7 -43 -12 -64 -27 -115 -7 -25
-13 -49 -14 -55 -17 -79 -88 -263 -151 -386 -198 -396 -501 -715 -890 -939
-48 -28 -93 -52 -98 -53 -6 -1 -13 -5 -16 -8 -11 -13 -251 -109 -310 -124 -8
-2 -55 -15 -103 -29 -48 -14 -102 -27 -120 -30 -18 -3 -41 -8 -53 -10 -12 -2
-45 -7 -75 -11 -30 -4 -81 -10 -114 -14 -61 -9 -400 -6 -445 2 -14 3 -47 9
-75 13 -27 4 -57 8 -65 9 -8 2 -35 5 -59 9 -23 3 -46 8 -50 11 -4 2 -23 7 -42
10 -49 9 -287 89 -356 120 -282 130 -512 289 -703 490 -92 97 -113 121 -170
195 -115 152 -148 206 -234 385 -84 173 -153 375 -180 530 -3 17 -8 40 -10 51
-20 101 -29 203 -31 368 -1 161 7 266 32 406 2 14 6 36 8 50 1 14 4 25 5 25 1
0 3 7 5 15 1 8 8 35 15 60 7 25 14 56 17 69 2 13 8 32 14 43 5 10 7 18 3 18
-3 0 -1 6 5 13 6 8 12 22 14 33 2 10 7 27 10 37 11 29 20 52 22 57 2 3 6 16
11 29 4 14 31 72 60 130 223 452 574 803 1019 1021 123 60 332 140 405 154 14
3 40 9 58 15 17 5 32 7 32 5 0 -3 6 -2 12 2 7 5 19 9 28 10 27 3 105 15 120
19 8 2 47 7 85 10 39 4 71 8 72 9 5 5 352 -2 398 -8z"/>
<path d="M2417 4454 c-1 -1 -42 -5 -92 -8 -92 -5 -116 -9 -195 -26 -25 -6 -54
-12 -65 -15 -50 -10 -144 -37 -180 -51 -22 -9 -47 -17 -55 -19 -16 -3 -168
-69 -232 -100 -21 -10 -38 -23 -38 -27 0 -5 -4 -7 -9 -3 -5 3 -16 -2 -24 -10
-9 -8 -19 -15 -22 -15 -13 0 -198 -132 -260 -184 -75 -64 -211 -199 -250 -250
-16 -21 -36 -45 -43 -52 -80 -82 -283 -465 -306 -577 -2 -6 -6 -19 -9 -27 -33
-87 -62 -220 -83 -385 -7 -52 -6 -317 0 -385 11 -113 15 -144 21 -170 3 -14 8
-35 10 -47 12 -56 15 -69 30 -122 121 -427 386 -807 745 -1067 102 -74 335
-204 365 -204 8 0 15 -5 15 -12 0 -6 2 -9 6 -6 3 3 42 -9 87 -27 66 -25 154
-53 197 -60 3 0 28 -6 55 -13 137 -32 187 -37 410 -37 214 0 260 4 394 31 128
26 320 85 349 107 6 5 12 7 12 4 0 -5 198 92 235 115 101 65 181 119 235 162
76 59 253 233 295 291 17 22 36 47 44 55 29 30 128 189 167 266 21 43 42 81
47 82 4 2 7 9 7 16 0 7 9 31 20 54 23 47 80 213 87 252 2 14 10 50 18 80 15
61 25 115 33 175 7 53 6 470 -1 515 -3 19 -8 53 -12 75 -3 22 -8 48 -11 57 -7
24 -15 61 -17 78 -1 8 -21 71 -45 140 -23 69 -43 130 -45 135 -8 30 -107 221
-150 290 -138 222 -346 439 -551 576 -162 108 -401 224 -546 265 -70 19 -183
45 -220 50 -25 3 -54 8 -65 11 -54 11 -349 25 -358 17z m23 -44 c0 -3 -16 -12
-37 -19 -50 -18 -117 -62 -169 -111 l-44 -41 -57 15 c-61 15 -140 27 -208 31
-22 2 -42 3 -45 4 -3 1 18 11 45 22 28 12 57 25 66 29 36 19 208 60 274 66 39
3 71 7 72 8 5 4 103 0 103 -4z m273 -31 c43 -11 101 -29 130 -41 29 -11 68
-25 87 -30 34 -10 34 -11 12 -19 -13 -5 -37 -11 -53 -14 -50 -9 -205 -64 -284
-101 l-76 -36 -72 12 c-40 7 -96 23 -125 36 -29 13 -54 24 -57 24 -2 0 -15 4
-30 10 l-25 10 37 33 c65 58 179 118 252 132 13 2 26 6 28 8 8 8 99 -4 176
-24z m210 -14 c104 -35 161 -61 150 -68 -15 -9 -61 2 -107 25 -22 12 -75 34
-116 50 -95 36 -39 30 73 -7z m284 -131 c62 -35 167 -110 183 -129 11 -13 7
-15 -25 -15 -28 0 -50 10 -93 44 -31 24 -85 61 -119 83 -34 22 -60 42 -58 45
12 11 70 -3 112 -28z m-1202 11 c28 -3 70 -10 95 -16 25 -5 51 -10 58 -11 6
-1 12 -5 12 -9 0 -16 -27 -24 -90 -25 -114 -2 -254 -16 -300 -29 -8 -2 -31 -7
-50 -10 -37 -6 -49 -9 -89 -20 -39 -12 -17 9 72 69 79 52 88 55 153 58 38 2
74 2 79 1 6 -1 33 -4 60 -8z m1064 -15 c57 -32 66 -38 126 -80 92 -64 91 -60
25 -91 -31 -15 -78 -47 -104 -71 l-46 -44 -97 42 c-54 24 -156 62 -228 85 -71
23 -139 45 -150 49 -17 6 -9 13 45 38 101 46 214 82 279 89 25 3 47 6 49 8 10
9 63 -4 101 -25z m266 -9 c6 -3 16 -6 23 -7 27 -4 151 -85 198 -128 l49 -46
-45 16 c-25 8 -53 17 -62 19 -9 2 -57 34 -106 72 -49 37 -98 74 -108 80 -17
11 -15 12 11 6 17 -3 35 -8 40 -12z m-1681 -28 c-27 -20 -69 -54 -92 -74 -24
-21 -60 -43 -80 -50 -21 -6 -55 -20 -77 -31 -39 -18 -38 -17 24 42 35 33 68
60 74 60 6 0 18 7 27 15 17 15 146 74 164 75 5 0 -13 -17 -40 -37z m581 -3
c17 -7 15 -9 -12 -9 -18 -1 -33 4 -33 9 0 12 17 12 45 0z m-115 -43 c0 -2 -15
-37 -34 -78 -43 -92 -82 -241 -85 -321 -1 -10 -20 -37 -42 -60 -23 -24 -61
-66 -85 -94 -35 -40 -53 -53 -89 -61 -43 -10 -53 -8 -126 23 -44 19 -90 36
-102 38 -12 2 -49 12 -82 21 -33 8 -100 18 -150 22 -49 3 -91 7 -93 8 -6 5 99
168 151 235 104 134 171 191 240 205 10 2 27 7 37 10 10 3 29 8 42 11 90 19
129 26 173 30 27 3 51 6 52 8 4 4 193 7 193 3z m217 -11 c36 -4 103 -33 103
-44 0 -4 -28 -25 -63 -47 -86 -55 -241 -180 -319 -258 -25 -24 -31 -26 -30 -7
1 24 15 93 27 134 8 28 16 56 17 61 3 16 69 149 81 163 10 12 56 12 184 -2z
m358 -76 c143 -44 355 -133 355 -149 0 -4 -11 -30 -24 -58 -14 -27 -28 -66
-31 -86 -8 -43 -12 -42 -85 27 -94 89 -268 224 -357 277 -75 43 -21 39 142
-11z m-87 -66 c64 -42 119 -79 122 -83 3 -3 30 -26 60 -51 30 -25 85 -74 122
-109 66 -62 67 -64 65 -112 -2 -44 -7 -54 -29 -50 -10 1 -122 12 -183 17 -132
11 -433 5 -595 -11 -67 -7 -126 -14 -141 -17 -11 -2 -14 11 -13 65 1 75 -4 67
130 187 122 108 307 240 337 240 4 0 61 -34 125 -76z m749 24 c97 -89 255
-274 250 -292 -2 -5 -26 -19 -54 -31 l-51 -23 -93 67 c-77 54 -191 126 -289
180 -26 14 -17 34 34 72 40 31 117 66 149 68 4 1 28 -18 54 -41z m142 0 c56
-53 152 -150 200 -204 l43 -48 -38 -17 c-22 -9 -44 -15 -50 -15 -7 1 -39 38
-72 81 -33 44 -94 115 -136 158 -42 42 -76 79 -76 82 0 3 21 3 47 0 35 -4 56
-13 82 -37z m116 -21 c24 -10 50 -32 64 -55 14 -20 23 -37 20 -37 -2 0 5 -13
17 -30 34 -49 39 -75 8 -40 -15 17 -63 67 -108 113 -45 46 -72 79 -61 75 11
-5 38 -17 60 -26z m-2213 -44 c-45 -53 -152 -198 -152 -207 0 -2 -16 -30 -35
-62 -41 -68 -44 -55 -11 42 33 98 92 211 119 228 44 28 121 65 125 61 2 -2
-18 -30 -46 -62z m2302 38 c-2 -3 -12 3 -22 13 -16 17 -16 18 5 5 12 -7 20
-15 17 -18z m-2404 -6 c0 -2 -10 -10 -22 -16 -21 -11 -22 -11 -9 4 13 16 31
23 31 12z m2544 -147 l60 -53 -35 -5 c-61 -10 -72 -2 -110 76 l-35 73 30 -18
c16 -11 57 -43 90 -73z m-694 29 c76 -40 310 -197 310 -208 0 -6 -15 -16 -32
-24 -18 -7 -66 -32 -107 -54 -59 -33 -82 -40 -110 -37 -20 3 -36 5 -36 6 0 1
-8 3 -19 5 -10 2 -47 34 -82 72 -59 62 -64 71 -60 103 7 52 13 76 26 99 6 12
8 21 5 21 -4 0 4 14 16 31 12 17 24 27 28 22 3 -4 31 -21 61 -36z m-1906 25
c-10 -7 -70 -149 -79 -187 -16 -73 -18 -76 -86 -99 -73 -25 -180 -81 -192
-102 -4 -8 -12 -14 -18 -14 -19 0 94 162 170 244 62 66 183 166 201 166 9 0
11 -3 4 -8z m2729 -182 c36 -38 37 -42 32 -92 -4 -28 -13 -65 -21 -81 l-16
-29 -32 48 c-17 27 -50 74 -72 104 -22 30 -44 61 -48 68 -10 17 29 30 79 26
31 -3 48 -13 78 -44z m-184 -13 c10 -24 22 -63 26 -87 4 -25 9 -54 12 -65 11
-49 22 -155 17 -155 -2 0 -18 30 -36 68 -17 37 -46 91 -65 120 -18 29 -33 56
-33 60 0 4 -9 18 -20 32 -28 36 -25 45 18 57 59 17 62 15 81 -30z m-131 -39
c33 -48 110 -187 130 -233 11 -27 7 -24 -36 20 -50 52 -132 127 -194 180 l-36
30 47 22 c25 12 49 22 53 22 4 1 20 -18 36 -41z m-1666 -36 l-4 -50 -41 -7
c-23 -4 -48 -9 -54 -11 -7 -1 -13 0 -13 3 0 2 6 10 13 18 6 7 30 33 52 58 21
25 42 44 45 42 3 -2 3 -26 2 -53z m1057 -7 c43 -46 43 -46 14 -41 -15 2 -37 5
-49 5 -17 1 -20 7 -18 29 1 15 2 33 3 40 1 18 4 16 50 -33z m508 -32 c66 -55
193 -179 223 -217 14 -18 14 -19 -5 -9 -74 40 -243 108 -290 117 -5 1 -37 10
-70 20 -33 10 -67 19 -75 21 -66 14 -63 19 42 73 57 28 104 52 105 52 2 0 33
-26 70 -57z m564 -73 c26 -41 63 -106 82 -143 l36 -68 -27 5 c-15 3 -49 8 -77
11 -56 7 -55 6 -84 58 -12 20 -30 53 -42 73 -18 33 -19 39 -5 68 14 30 35 101
33 108 -1 2 7 -6 18 -17 11 -11 41 -54 66 -95z m-2740 96 c30 -3 67 -10 82
-15 15 -6 27 -9 27 -6 0 5 41 -8 133 -42 62 -23 84 -39 55 -40 -7 0 -33 -6
-58 -13 -54 -16 -51 -15 -70 -22 -161 -58 -211 -78 -296 -119 -55 -27 -104
-49 -107 -49 -7 0 -2 145 7 186 2 12 16 44 30 72 23 46 29 51 63 54 21 2 47 3
58 1 11 -1 45 -4 76 -7z m2525 -66 l46 -69 -30 -58 c-16 -31 -34 -59 -39 -60
-5 -2 -10 23 -11 55 -1 33 -8 91 -15 131 -8 39 -10 71 -6 71 5 0 30 -31 55
-70z m-2771 28 c-3 -13 -7 -34 -9 -48 -2 -14 -12 -43 -21 -65 -30 -70 -73
-197 -74 -221 -1 -6 -25 -27 -53 -47 -86 -57 -156 -121 -235 -213 l-43 -49 5
40 c20 171 31 229 50 268 7 15 10 25 5 22 -19 -12 35 102 67 143 42 51 105
112 117 112 5 0 17 7 27 16 21 19 127 63 152 64 13 0 16 -6 12 -22z m1710 7
c22 -3 57 -7 77 -8 47 -4 48 -6 54 -56 l5 -41 -210 0 -210 0 5 -24 c15 -87 61
-160 126 -203 37 -25 39 -28 22 -40 -10 -7 -25 -11 -34 -7 -8 4 -38 12 -67 19
l-52 13 1 -42 c1 -93 2 -89 -83 -155 -107 -83 -109 -82 -109 100 l0 138 -52
-15 c-29 -9 -72 -27 -95 -40 -23 -13 -43 -21 -45 -16 -2 4 -35 35 -75 70 -78
69 -78 68 -87 209 -5 65 0 74 38 79 12 1 39 5 61 8 22 3 76 8 120 11 43 3 81
7 83 9 5 6 483 -3 527 -9z m225 -30 c46 -7 80 -29 80 -50 0 -18 -24 -25 -89
-25 -47 0 -57 3 -58 18 -1 9 -4 29 -6 44 -4 21 -2 26 11 23 9 -1 37 -6 62 -10z
m-1079 -22 c2 -31 6 -77 12 -136 4 -36 3 -37 -17 -22 -12 8 -52 35 -91 61 -38
26 -72 48 -74 50 -9 8 28 50 45 50 29 1 97 14 103 19 12 12 21 3 22 -22z
m1209 -9 c0 -2 -7 -4 -15 -4 -8 0 -15 4 -15 10 0 5 7 7 15 4 8 -4 15 -8 15
-10z m150 -28 l45 -15 -92 0 c-92 -1 -119 8 -86 28 21 13 68 8 133 -13z
m-1591 -5 c10 -7 -5 -35 -67 -122 -105 -150 -272 -429 -256 -429 3 0 -4 -13
-15 -29 -12 -16 -21 -31 -21 -34 0 -3 -16 -40 -35 -81 -19 -42 -35 -80 -35
-84 0 -5 -6 -17 -14 -27 -12 -16 -14 23 -14 276 0 162 -1 299 -1 306 -1 13
-83 -7 -133 -33 -27 -14 -28 -13 -28 10 0 19 13 31 73 62 39 21 108 54 152 72
44 18 89 37 100 42 11 5 38 14 60 20 22 6 47 14 55 18 35 14 127 40 145 41 11
0 26 -3 34 -8z m66 -33 c14 -6 25 -15 25 -20 0 -4 5 -8 11 -8 10 0 37 -18 147
-95 3 -2 4 -8 18 -85 4 -25 8 -47 9 -50 1 -3 5 -21 9 -40 4 -19 19 -73 32
-120 18 -62 24 -109 24 -177 l0 -93 -77 -36 c-43 -20 -124 -58 -181 -85 l-103
-49 -182 0 c-159 0 -185 3 -205 18 -21 16 -22 21 -11 47 7 17 13 32 14 35 9
28 51 119 106 230 86 173 201 358 314 505 8 10 15 23 15 27 0 11 4 10 35 -4z
m2183 -64 c18 -31 31 -58 30 -60 -2 -1 -35 -5 -75 -8 l-71 -6 36 65 c21 35 39
65 42 65 3 0 20 -25 38 -56z m-2898 -59 c0 -45 -4 -56 -21 -66 -20 -10 -21 -9
-15 12 9 32 11 39 20 77 11 47 16 40 16 -23z m1048 -132 c10 -10 7 -22 -17
-65 -16 -29 -32 -66 -36 -83 -6 -26 -10 -18 -30 65 -13 52 -26 112 -29 134 -4
21 -9 43 -13 50 -6 10 90 -68 125 -101z m1941 22 c22 -44 38 -81 36 -83 -2 -2
-29 17 -61 43 -31 26 -68 52 -80 57 -13 6 -24 15 -24 20 0 4 -6 8 -14 8 -7 0
-19 6 -25 14 -11 12 -6 15 31 18 99 7 94 10 137 -77z m60 70 c71 -6 114 -42
122 -105 3 -22 -16 -64 -44 -94 -26 -28 -37 -32 -37 -15 0 6 -22 57 -50 114
-52 109 -57 120 -39 110 6 -4 27 -8 48 -10z m-3047 -89 c-2 -11 -13 -30 -22
-41 -47 -54 -54 -83 -57 -250 -1 -88 -3 -167 -3 -176 0 -10 -8 -15 -22 -14
-21 2 -23 6 -22 66 2 59 7 117 17 179 3 14 8 45 11 70 16 104 37 165 64 187
29 24 43 16 34 -21z m2968 -65 c25 -20 60 -51 78 -69 l34 -34 -38 -38 -38 -37
-35 56 c-19 31 -61 97 -95 146 l-61 90 55 -39 c30 -22 75 -56 100 -75z m-1157
69 c103 0 118 -2 123 -17 3 -10 10 -26 15 -35 5 -10 9 -20 9 -22 0 -2 -51 -21
-112 -42 -62 -20 -118 -39 -125 -41 -6 -3 -21 13 -31 34 -11 21 -34 51 -51 67
-17 17 -31 33 -31 36 0 12 45 29 65 25 11 -3 73 -5 138 -5z m406 -4 c-13 -12
-233 -66 -239 -59 -5 4 -12 20 -15 36 l-7 27 133 0 c73 0 130 -2 128 -4z m86
-62 c20 -31 41 -66 46 -78 5 -12 20 -39 34 -61 40 -64 44 -78 29 -100 -8 -10
-53 -59 -100 -107 l-86 -88 -37 52 c-85 122 -208 344 -197 355 2 2 12 6 22 8
11 2 47 13 82 24 34 10 62 17 62 14 0 -3 7 0 15 7 8 7 15 10 15 7 0 -2 17 1
38 9 20 7 38 13 39 14 1 0 19 -25 38 -56z m115 -2 c39 -29 64 -55 88 -90 14
-22 13 -25 -19 -60 -19 -20 -35 -39 -37 -41 -4 -7 -29 30 -54 79 -12 25 -37
70 -55 100 -18 30 -33 58 -33 62 0 11 72 -21 110 -50z m490 -86 c33 -55 60
-104 60 -110 0 -11 -60 -56 -75 -56 -4 0 -5 3 -2 7 4 3 2 12 -4 20 -6 7 -9 13
-6 13 3 0 0 20 -7 45 -8 25 -12 45 -10 45 2 0 -1 12 -7 28 -6 15 -20 56 -30
92 -19 65 -19 65 1 40 11 -14 47 -70 80 -124z m-3005 114 c-7 -11 -16 -51 -29
-122 -2 -13 -7 -39 -10 -58 -9 -48 -15 -102 -20 -184 -5 -76 -10 -84 -51 -92
-47 -8 -111 -44 -154 -87 -11 -10 -21 -15 -24 -10 -8 13 -18 99 -22 186 -3 84
-7 76 94 200 30 37 195 177 209 177 7 0 10 -4 7 -10z m3299 -92 c8 -29 18 -75
22 -103 3 -27 8 -53 11 -57 2 -5 -1 -8 -6 -8 -6 0 -21 15 -33 34 -13 19 -36
50 -51 70 -27 33 -28 37 -12 52 9 9 23 27 32 40 8 13 17 24 18 24 2 0 10 -24
19 -52z m-1060 -293 l64 -93 -62 -58 c-232 -220 -372 -342 -380 -333 -2 2 -11
24 -21 49 -16 40 -18 83 -20 362 l-3 318 121 39 120 39 58 -115 c32 -63 88
-156 123 -208z m-2569 274 c-4 -5 -12 -9 -18 -8 -9 0 -8 2 1 6 6 2 9 10 6 15
-4 7 -2 8 5 4 6 -4 9 -12 6 -17z m1876 1 c1 -5 1 -21 1 -35 0 -73 -3 -78 -47
-84 -3 0 -18 -7 -34 -15 -27 -14 -29 -14 -49 11 l-21 26 67 53 c69 55 81 61
83 44z m-1885 -36 c-3 -9 -6 -44 -6 -78 0 -36 -6 -70 -13 -80 -12 -16 -13 -12
-10 35 2 30 6 65 8 79 2 14 4 33 4 43 1 9 6 17 12 17 6 0 8 -7 5 -16z m3271
-36 c-3 -8 -6 -5 -6 6 -1 11 2 17 5 13 3 -3 4 -12 1 -19z m-287 -33 c10 -35
22 -255 13 -255 -9 0 -101 215 -95 224 13 24 57 75 63 75 4 1 12 -19 19 -44z
m563 -22 c26 -69 49 -140 53 -158 1 -5 12 -48 24 -95 22 -85 21 -133 -3 -161
-6 -8 -11 -13 -10 -11 1 2 -5 21 -12 43 -8 21 -12 39 -9 39 3 0 2 6 -3 13 -4
6 -8 19 -10 27 -1 8 -6 23 -11 35 -6 11 -20 47 -33 80 -12 33 -37 91 -54 129
l-33 68 32 29 c17 16 34 29 38 29 3 0 18 -30 31 -67z m-255 -23 c8 -32 8 -48
0 -57 -17 -21 -22 -7 -24 58 -1 67 8 67 24 -1z m302 35 c0 -7 4 -15 8 -17 5
-1 23 -29 41 -61 29 -50 33 -68 32 -119 -1 -33 -4 -65 -8 -71 -6 -9 -35 77
-47 138 -2 11 -15 50 -29 87 -19 50 -22 65 -11 61 8 -3 14 -11 14 -18z m-1863
-50 c-28 -15 -37 -10 -37 20 0 31 21 37 42 12 15 -20 15 -22 -5 -32z m156 -32
c-1 -38 -2 -76 -2 -87 -1 -12 -16 2 -47 44 -26 35 -43 68 -40 77 3 8 9 12 14
10 4 -3 18 1 32 9 41 22 45 18 43 -53z m1571 -19 c35 -73 102 -259 112 -307
18 -93 19 -85 -30 -132 -37 -34 -132 -85 -161 -85 -2 0 -4 48 -5 108 -2 160
-8 228 -30 367 -9 54 -8 61 9 73 11 8 30 22 42 33 12 10 23 19 24 19 2 0 19
-34 39 -76z m-546 -21 c21 -43 45 -97 55 -120 l16 -42 -27 -19 c-15 -10 -55
-34 -90 -52 l-62 -33 -29 31 c-15 18 -44 49 -63 70 l-35 38 96 101 c53 56 97
102 99 102 1 1 19 -34 40 -76z m-1128 47 c0 -5 23 -41 51 -79 l51 -70 2 -218
c3 -191 6 -225 24 -278 20 -56 20 -61 4 -73 -9 -7 -23 -11 -31 -10 -9 2 -54
59 -101 128 l-85 125 -3 231 -3 230 23 12 c29 14 68 15 68 2z m1934 -46 c3 -8
2 -12 -4 -9 -6 3 -10 10 -10 16 0 14 7 11 14 -7z m-403 -11 c1 -21 5 -57 13
-96 12 -66 23 -309 17 -383 -1 -14 -34 -24 -59 -17 -17 4 -18 21 -17 249 0
204 3 247 15 254 22 14 30 12 31 -7z m-3315 -36 c1 -40 7 -91 20 -173 5 -35
-10 -84 -27 -84 -8 0 -21 97 -24 190 -2 44 2 72 12 87 9 13 16 23 17 23 0 0 1
-19 2 -43z m1349 -102 l-80 -75 -80 1 c-68 0 -76 2 -55 12 197 90 257 119 270
126 34 21 21 7 -55 -64z m2390 -116 c1 -48 -1 -108 -7 -135 -5 -27 -10 -57
-11 -66 -2 -25 -12 -11 -14 20 -2 32 -8 81 -18 142 -9 51 -9 43 7 134 l12 69
13 -39 c8 -21 16 -78 18 -125z m-3384 88 c2 -227 -1 -450 -6 -455 -11 -11 -15
7 -30 128 -14 108 -27 367 -19 380 1 3 14 6 28 8 25 2 26 0 27 -61z m1062
-678 c-14 -12 -162 -56 -170 -50 -4 3 -14 20 -22 36 -50 109 -107 209 -161
285 -26 36 -49 70 -53 76 -4 6 17 11 60 12 145 4 252 95 279 237 6 33 5 35
-22 35 -29 0 -28 1 20 43 27 23 54 47 60 53 8 8 12 -91 14 -354 1 -201 -1
-369 -5 -373z m-1144 634 c1 -128 12 -266 25 -348 8 -48 10 -65 8 -85 -2 -15
-60 -60 -78 -60 -19 0 -104 210 -147 362 -25 88 -23 107 15 136 9 7 23 19 31
27 14 14 76 47 107 58 36 13 38 8 39 -90z m-334 22 c8 -66 12 -92 20 -141 3
-23 1 -61 -5 -84 -6 -23 -12 -56 -12 -72 -1 -19 -4 -25 -9 -16 -14 26 -26 117
-24 194 1 75 14 179 21 172 1 -2 6 -26 9 -53z m2781 -12 c30 -31 54 -61 54
-65 0 -5 -35 -25 -77 -46 -43 -20 -79 -40 -81 -44 -2 -5 -8 -8 -13 -8 -5 0
-58 -23 -117 -51 -59 -29 -143 -67 -187 -85 -91 -39 -96 -47 45 75 61 53 158
142 259 239 25 23 49 42 54 42 6 0 34 -26 63 -57z m278 -66 c1 -46 -1 -94 -4
-106 -5 -22 -6 -22 -60 15 -69 47 -106 81 -98 90 12 11 153 90 157 88 2 -2 4
-41 5 -87z m-121 -78 c45 -34 87 -63 94 -66 19 -8 16 -33 -12 -90 -46 -91
-141 -162 -241 -180 -58 -11 -244 -10 -294 2 -74 16 -206 106 -183 125 4 3 43
22 86 41 61 27 203 96 465 227 2 1 40 -26 85 -59z m-2823 -18 c0 -26 62 -196
101 -279 22 -46 39 -87 39 -91 0 -16 -61 -64 -69 -55 -13 13 -81 218 -107 319
-1 6 -5 28 -9 50 -4 22 -9 43 -11 46 -2 3 3 15 11 25 8 10 15 28 15 39 1 16 4
14 15 -10 8 -16 14 -36 15 -44z m3615 -21 c12 -119 13 -173 3 -199 -12 -34
-21 -19 -24 41 -1 29 -3 53 -4 53 -1 0 -3 14 -5 30 -2 17 -7 45 -10 63 -4 22
0 42 11 62 10 16 19 28 20 27 1 -1 5 -36 9 -77z m-70 -41 c7 -36 17 -132 19
-191 3 -67 -7 -84 -104 -187 -56 -58 -188 -171 -201 -171 -7 0 -3 30 8 60 3 8
7 22 8 30 1 8 5 33 9 55 10 50 14 84 22 160 3 33 7 76 9 95 2 19 4 40 4 47 1
6 16 15 34 18 17 4 37 10 42 14 6 3 13 6 16 6 13 0 97 58 110 76 15 21 18 20
24 -12z m-1776 -209 c9 -7 33 -52 29 -54 -2 -2 -30 -13 -63 -25 -33 -12 -68
-27 -77 -32 -17 -9 -18 1 -18 147 l0 156 61 -93 c34 -52 64 -96 68 -99z
m-1819 105 c7 -27 26 -90 41 -139 34 -105 34 -106 11 -75 -75 99 -88 139 -81
247 3 49 10 40 29 -33z m650 33 c0 -7 22 -59 49 -115 l49 -102 -55 -63 c-30
-35 -57 -62 -61 -61 -7 3 -13 319 -7 341 3 6 9 12 15 12 5 0 10 -6 10 -12z
m308 1 c-2 -4 -45 -50 -96 -103 l-92 -95 -17 32 c-10 18 -18 34 -18 37 -1 3
-13 31 -28 62 -15 31 -27 61 -27 66 0 5 61 9 140 9 77 0 139 -4 138 -8z m63
-66 c18 -27 35 -50 39 -53 13 -11 70 -111 114 -201 53 -109 63 -94 -89 -136
-49 -13 -98 -29 -107 -34 -10 -5 -23 -6 -30 -4 -12 5 -76 106 -142 226 l-25
46 96 101 c53 56 100 102 104 102 5 0 23 -21 40 -47z m2312 11 c-6 -114 -13
-187 -23 -234 -6 -30 -13 -71 -16 -90 -3 -19 -8 -38 -10 -41 -2 -3 -6 -21 -9
-40 -8 -45 -31 -79 -53 -79 -13 0 -18 8 -19 28 0 56 -22 254 -29 261 -2 2 10
29 26 60 15 31 36 82 45 113 16 56 16 56 53 53 34 -2 37 -5 35 -31z m-2986
-131 c-3 -10 -5 -4 -5 12 0 17 2 24 5 18 2 -7 2 -21 0 -30z m3327 0 c-2 -16
-6 -50 -9 -78 -3 -27 -8 -63 -11 -80 -3 -16 -7 -35 -8 -42 -1 -7 -6 -16 -10
-20 -5 -4 -5 10 -1 32 4 22 9 74 11 115 2 41 6 81 9 88 8 23 22 12 19 -15z
m-3348 -58 c2 -11 9 -42 15 -70 6 -27 9 -66 7 -85 -3 -35 -4 -34 -60 59 l-57
94 37 33 c37 32 37 32 45 11 5 -12 10 -31 13 -42z m1624 21 c-16 -21 -30 -20
-46 2 -11 14 -9 19 9 29 18 9 25 9 36 -2 12 -11 12 -17 1 -29z m-1917 -49 l54
-73 -37 -44 -37 -43 -8 34 c-14 63 -27 126 -30 156 -2 12 -6 27 -10 32 -3 6
-2 11 3 11 5 0 34 -33 65 -73z m1856 39 c24 -26 22 -31 -33 -71 -16 -11 -57
-41 -92 -67 -35 -27 -66 -48 -69 -48 -3 0 -5 32 -3 71 l3 71 85 34 c47 18 85
33 86 34 0 0 11 -11 23 -24z m149 -73 c45 -46 90 -79 137 -103 39 -19 72 -35
73 -36 5 -3 21 -73 27 -118 6 -43 10 -44 -59 14 -49 41 -209 203 -243 246 -24
31 -29 44 -21 52 7 7 14 12 15 12 2 0 34 -30 71 -67z m1577 23 c-5 -62 -15
-148 -21 -168 -3 -9 -7 -27 -10 -40 -6 -26 -6 -27 -23 -88 -21 -74 -39 -102
-115 -175 -72 -70 -164 -125 -234 -140 -31 -6 -32 -5 -28 17 3 12 8 35 10 49
2 14 13 48 24 75 21 51 34 85 37 94 13 47 37 117 42 125 5 6 32 28 62 49 82
58 205 173 238 224 9 12 17 22 18 22 1 0 1 -20 0 -44z m-2837 12 c16 -33 64
-115 100 -173 33 -53 31 -61 -21 -70 -12 -3 -51 -11 -87 -19 -68 -16 -210 -44
-210 -42 0 0 14 28 30 60 17 32 30 71 30 86 0 15 7 33 15 40 8 7 15 16 15 20
0 9 102 120 110 120 4 0 12 -10 18 -22z m-516 -83 c29 -47 61 -99 71 -115 10
-16 17 -35 15 -41 -4 -12 -111 67 -177 130 l-43 42 37 34 c20 19 38 35 40 35
2 0 27 -38 57 -85z m1833 -110 c49 -49 111 -107 137 -128 26 -21 50 -48 53
-58 12 -38 21 -196 12 -206 -3 -2 -22 -6 -43 -9 -22 -2 -52 -6 -69 -8 -136
-20 -508 -26 -675 -12 -177 16 -171 13 -170 59 1 18 -1 55 -5 82 l-6 50 43 27
c34 22 44 24 46 13 4 -18 -2 -19 74 5 80 25 139 74 172 144 26 54 33 62 146
143 36 26 67 50 70 54 3 3 14 11 25 17 17 10 25 5 60 -36 22 -26 80 -87 130
-137z m1056 178 c0 -5 2 -17 4 -28 2 -11 7 -72 11 -135 l6 -115 -54 -33 c-55
-32 -173 -85 -278 -124 -73 -26 -249 -78 -267 -78 -27 0 -24 29 9 72 18 24 65
91 103 150 l70 106 65 11 c36 7 89 23 119 35 59 26 179 110 188 132 5 15 22
19 24 7z m-3031 -94 c0 -10 37 -93 82 -182 l19 -38 -48 4 c-26 3 -50 6 -53 7
-3 1 -7 2 -10 2 -17 -1 -53 39 -64 73 -12 35 -12 42 6 74 33 60 68 90 68 60z
m1300 -116 l0 -118 -45 -29 c-25 -15 -48 -27 -50 -25 -2 2 -13 40 -25 84 -12
44 -24 89 -27 100 -3 11 -10 26 -16 33 -5 7 -7 15 -4 18 8 8 138 53 155 54 9
0 12 -30 12 -117z m-1215 47 c10 -16 113 -90 124 -90 10 0 27 -47 20 -54 -5
-5 -39 -9 -69 -7 -19 1 -30 10 -42 39 -10 20 -26 56 -37 80 -11 23 -16 42 -11
42 5 0 12 -5 15 -10z m1033 -17 c29 -75 69 -220 61 -226 -37 -28 -153 -87
-159 -81 -43 49 -180 243 -180 255 0 6 10 10 70 25 8 2 51 14 95 28 101 31
101 31 113 -1z m1277 0 c110 -3 202 -7 204 -9 4 -4 -87 -141 -153 -231 l-45
-62 -33 17 c-18 9 -35 20 -38 23 -3 3 -36 27 -75 52 -38 26 -70 50 -71 55 0 4
-4 34 -9 67 -5 33 -8 63 -7 68 1 4 -2 7 -6 7 -5 0 -9 7 -9 16 0 11 6 14 21 9
12 -4 111 -9 221 -12z m-1535 -138 c30 -47 58 -85 63 -85 4 0 7 -4 7 -10 0 -9
6 -18 52 -72 26 -31 6 -52 -42 -44 -64 11 -74 13 -225 66 -152 53 -329 129
-320 138 6 6 194 44 217 44 10 -1 20 4 23 9 4 5 9 7 13 5 4 -2 39 4 77 14 39
10 72 19 75 19 3 0 30 -37 60 -84z m2265 28 c-4 -10 -8 -22 -9 -28 -6 -28 -18
-55 -25 -55 -13 0 1 75 17 88 21 16 25 15 17 -5z m-3065 -47 c28 -2 54 -7 57
-9 2 -3 24 -38 47 -78 l43 -73 -24 -70 c-13 -38 -26 -72 -28 -74 -11 -11 -176
270 -182 311 -2 14 0 16 16 8 11 -6 42 -13 71 -15z m2994 -74 c-3 -71 -10
-100 -37 -156 l-32 -68 -100 5 c-86 4 -115 8 -170 21 -5 2 -23 6 -40 10 -16 4
-36 9 -43 12 -7 2 -14 2 -16 1 -1 -1 -9 3 -17 9 -8 6 -31 17 -51 23 -21 7 -38
16 -38 20 0 3 21 12 48 19 26 6 54 14 62 16 59 18 85 27 160 57 47 18 87 34
90 34 17 3 160 77 165 85 16 26 24 -9 19 -88z m-2823 64 c1 -6 1 -17 0 -24 -2
-9 6 -11 24 -6 27 7 27 7 12 -22 -37 -70 -39 -70 -75 -8 -20 35 -29 60 -23 64
17 10 61 7 62 -4z m94 -68 c5 -83 16 -168 25 -199 6 -18 8 -34 6 -36 -5 -5
-106 144 -106 157 0 15 63 131 68 125 2 -2 5 -23 7 -47z m127 24 c72 -41 344
-136 448 -157 8 -2 17 -4 20 -5 3 0 -44 -26 -104 -56 -95 -49 -110 -54 -125
-41 -9 8 -32 27 -50 43 -44 36 -203 193 -220 217 -17 22 -10 22 31 -1z m1866
-64 c34 -22 62 -44 62 -49 0 -14 -37 -42 -57 -44 -37 -4 -96 -15 -104 -21 -10
-6 -11 -6 -15 66 -2 30 -5 72 -8 93 l-5 38 32 -21 c18 -12 60 -40 95 -62z
m-1948 30 c1 -21 114 -235 130 -248 16 -12 31 -53 23 -61 -5 -5 -29 -12 -54
-15 -43 -6 -46 -5 -57 22 -17 44 -40 143 -47 204 -3 30 -8 67 -11 83 -2 15 0
27 6 27 5 0 10 -6 10 -12z m220 -178 c19 -17 45 -39 58 -47 12 -8 22 -19 22
-23 0 -4 -22 -17 -50 -28 l-50 -21 -32 47 c-36 52 -37 53 -97 165 -22 43 -41
81 -41 84 0 4 35 -28 78 -69 42 -42 93 -90 112 -108z m594 162 c3 -5 8 -37 12
-72 l7 -63 -54 6 c-51 6 -102 32 -102 52 0 9 109 82 125 84 4 1 9 -3 12 -7z
m2135 -109 c-76 -129 -211 -275 -325 -354 l-42 -28 33 75 c18 42 41 105 51
140 18 62 20 65 59 75 60 16 176 74 205 103 37 36 45 31 19 -11z m-2289 6 c0
-6 -4 -7 -10 -4 -5 3 -10 11 -10 16 0 6 5 7 10 4 6 -3 10 -11 10 -16z m-783
-11 c6 -13 40 -63 76 -112 37 -49 64 -93 61 -98 -3 -4 -30 -8 -61 -8 -52 0
-58 3 -95 41 -37 38 -40 44 -35 87 5 52 25 112 36 112 4 0 12 -10 18 -22z
m2298 -22 c33 -15 69 -30 80 -32 43 -11 50 -13 53 -14 1 -2 5 -3 10 -4 101
-25 113 -27 196 -31 43 -2 80 -6 82 -8 8 -8 -110 -185 -181 -272 -81 -98 -108
-126 -143 -144 -28 -15 -188 -57 -252 -66 -25 -4 -56 -9 -70 -11 -14 -2 -75
-6 -137 -8 -101 -4 -111 -3 -106 12 4 9 9 19 12 22 30 26 92 227 105 336 4 41
9 49 99 147 105 114 139 124 252 73z m-1513 2 c18 1 38 -16 111 -97 44 -48 48
-56 43 -89 -6 -38 -32 -112 -53 -147 -12 -20 -13 -19 -70 10 -60 31 -201 121
-286 183 l-49 35 99 50 c54 27 103 53 108 59 6 5 26 7 45 3 19 -4 43 -7 52 -7z
m1288 -2 c0 -3 -6 -11 -12 -18 -7 -7 -32 -34 -55 -60 -40 -44 -52 -49 -47 -20
1 6 2 27 3 46 1 32 3 34 54 43 28 6 53 11 55 12 1 0 2 -1 2 -3z m-1142 -26
c19 0 22 -5 22 -40 0 -41 0 -41 -22 -24 -13 10 -34 31 -48 47 l-24 30 24 -6
c14 -4 35 -7 48 -7z m1007 -65 l0 -60 -71 -70 c-77 -76 -99 -95 -159 -139 -22
-17 -42 -33 -45 -37 -3 -3 -47 -34 -98 -67 l-93 -61 -52 31 c-62 36 -130 83
-149 101 -7 7 -30 25 -51 39 -42 28 -125 99 -200 172 -46 43 -48 48 -45 93 l3
48 50 -2 c28 -1 91 -5 140 -9 190 -16 692 -1 715 22 2 3 16 4 30 2 24 -3 25
-6 25 -63z m806 -91 c-15 -45 -45 -111 -65 -148 -34 -61 -43 -69 -108 -102
-38 -19 -72 -34 -74 -32 -1 2 9 17 24 33 76 82 199 257 223 318 6 16 15 25 20
20 5 -5 -4 -45 -20 -89z m-2271 51 c6 -8 37 -31 68 -51 32 -21 59 -41 62 -44
3 -4 52 -34 110 -68 158 -92 150 -82 109 -122 -31 -30 -102 -69 -156 -85 -18
-5 -34 4 -74 42 -68 62 -118 116 -171 184 -24 30 -51 63 -60 73 -26 28 -22 42
15 56 17 6 41 16 52 20 28 12 31 12 45 -5z m-140 -82 c14 -20 30 -41 35 -47 6
-6 26 -31 46 -56 20 -25 61 -70 90 -101 92 -95 91 -92 34 -85 -53 8 -72 22
-199 151 -84 85 -115 121 -119 136 -2 10 52 36 78 38 6 1 21 -16 35 -36z m662
20 c44 -60 359 -303 421 -326 16 -6 25 -27 11 -27 -18 0 -176 42 -208 55 -20
8 -39 16 -43 16 -14 3 -93 33 -244 96 l-37 15 23 53 c13 28 28 71 35 94 12 45
22 50 42 24z m918 -85 c-22 -111 -41 -168 -88 -254 l-34 -62 -46 3 c-135 8
-182 18 -229 48 -8 5 27 35 105 87 114 77 187 137 261 212 20 20 38 35 40 33
2 -3 -2 -33 -9 -67z m-1728 -16 c20 -42 35 -78 34 -79 -4 -4 -161 126 -164
136 -2 5 16 12 40 14 24 2 45 4 48 5 3 1 21 -33 42 -76z m38 20 c0 -5 43 -52
96 -106 l96 -97 -58 26 c-33 14 -67 36 -76 48 -30 39 -79 137 -68 137 5 0 10
-4 10 -8z m738 -154 c6 -6 12 -7 12 -4 0 4 12 1 28 -7 45 -24 106 -49 137 -57
6 -2 35 -11 65 -22 59 -21 64 -22 123 -37 21 -5 41 -12 44 -15 5 -5 -35 -25
-132 -66 -25 -11 -115 -39 -143 -45 -12 -3 -32 -7 -44 -10 -95 -21 -121 -17
-194 27 -82 50 -184 121 -184 128 0 3 32 20 70 38 45 21 80 46 101 71 l31 39
36 -15 c21 -8 43 -20 50 -25z m1732 17 c0 -2 -10 -9 -22 -15 -22 -11 -22 -10
-4 4 21 17 26 19 26 11z m-2425 -35 c10 -11 16 -20 13 -20 -3 0 -13 9 -23 20
-10 11 -16 20 -13 20 3 0 13 -9 23 -20z m2274 -63 c-19 -19 -50 -45 -69 -59
-44 -32 -150 -89 -150 -81 0 3 -6 1 -12 -4 -19 -15 -48 -23 -48 -15 0 4 12 15
28 24 15 9 47 35 72 58 40 36 120 87 120 76 0 -2 19 6 43 18 23 13 44 22 46
20 2 -2 -11 -19 -30 -37z m-2109 -4 c30 -5 52 -19 124 -78 31 -25 59 -45 63
-45 5 -1 22 -12 38 -25 l30 -25 -40 11 c-90 25 -215 99 -275 164 l-25 26 30
-11 c17 -7 41 -14 55 -17z m268 -82 c42 -32 97 -70 122 -84 l45 -27 -43 0
c-35 0 -57 10 -129 58 -47 31 -97 64 -109 72 -37 23 -36 37 3 38 27 1 49 -10
111 -57z m1616 14 c-10 -9 -51 -38 -90 -64 l-70 -49 -115 3 c-63 2 -139 8
-169 15 -30 6 -61 13 -68 14 -7 1 -12 5 -12 9 0 4 0 11 0 16 0 5 30 9 68 9 37
0 69 1 72 2 3 1 28 3 55 5 56 3 138 13 175 20 14 3 36 7 50 10 14 2 45 11 70
18 52 16 62 13 34 -8z m-871 -2 c4 -3 18 -7 31 -9 59 -6 99 -15 119 -26 12 -7
24 -13 27 -13 19 -3 100 -39 100 -45 0 -18 -157 -126 -194 -135 -6 -1 -18 -5
-26 -8 -46 -19 -128 -33 -153 -26 -15 4 -42 10 -60 13 -76 12 -297 87 -297
101 0 2 8 4 18 3 19 0 67 9 97 19 11 4 22 8 25 8 54 12 213 75 261 103 39 23
43 25 52 15z m306 -49 c0 -5 -6 -7 -12 -5 -7 2 -18 4 -24 4 -7 0 -13 4 -13 9
0 5 11 7 25 5 14 -2 25 -7 24 -13z m89 -69 c61 -14 173 -29 209 -28 37 1 18
-13 -64 -45 -135 -54 -264 -80 -403 -83 -84 -2 -89 0 -39 20 59 23 144 80 188
125 19 19 38 33 43 30 5 -4 35 -12 66 -19z m-856 -64 c35 -16 91 -39 124 -51
53 -19 55 -21 19 -16 -56 7 -75 12 -121 31 -21 9 -40 16 -42 15 -1 0 -18 7
-38 15 -20 8 -40 15 -45 15 -4 0 -10 4 -13 8 -12 20 57 9 116 -17z"/>
</g>
</svg>
